STARTFONT 2.1
FONT -Misc-Fixed-Medium-R-Normal--52-500-75-75-M-360-ISO10646-1
SIZE 50 75 75
FONTBOUNDINGBOX 38 52 0 -7
COMMENT "Generated by fontforge, http://fontforge.sourceforge.net"
COMMENT "Public domain font.  Share and enjoy."
STARTPROPERTIES 32
FOUNDRY "Misc"
FAMILY_NAME "Fixed"
WEIGHT_NAME "Medium"
SLANT "R"
SETWIDTH_NAME "Normal"
ADD_STYLE_NAME ""
PIXEL_SIZE 52
POINT_SIZE 500
RESOLUTION_X 75
RESOLUTION_Y 75
SPACING "M"
AVERAGE_WIDTH 360
CHARSET_REGISTRY "ISO10646"
CHARSET_ENCODING "1"
FONTNAME_REGISTRY ""
CHARSET_COLLECTIONS "ASCII ISOLatin1Encoding ISO8859-2 ISO8859-5 ISO8859-7 ISO8859-9 ISO8859-8 ISO8859-4 ISO10646-1"
FONT_NAME "FixedMedium"
FACE_NAME "Fixed Medium"
COPYRIGHT "Public domain font.  Share and enjoy."
FONT_VERSION "001.000"
FONT_ASCENT 44
FONT_DESCENT 8
UNDERLINE_POSITION -5
UNDERLINE_THICKNESS 3
X_HEIGHT 29
CAP_HEIGHT 44
RAW_ASCENT 857
RAW_DESCENT 143
NORM_SPACE 36
FIGURE_WIDTH 36
AVG_LOWERCASE_WIDTH 360
AVG_UPPERCASE_WIDTH 360
ENDPROPERTIES
CHARS 1848
STARTCHAR char0
ENCODING 0
SWIDTH 685 0
DWIDTH 36 0
BBX 37 38 0 0
BITMAP
FE01FC03F8
FE01FC03F8
FE01FC03F8
FE01FC03F8
FE01FC03F8
FE01FC03F8
FE01FC03F8
FE01FC03F8
0000000000
0000000000
0000000000
0000000000
0000000000
0000000000
0000000000
FE000003F8
FE000003F8
FE000003F8
FE000003F8
FE000003F8
FE000003F8
FE000003F8
FE000003F8
0000000000
0000000000
0000000000
0000000000
0000000000
0000000000
0000000000
FE01FC03F8
FE01FC03F8
FE01FC03F8
FE01FC03F8
FE01FC03F8
FE01FC03F8
FE01FC03F8
FE01FC03F8
ENDCHAR
STARTCHAR space
ENCODING 32
SWIDTH 685 0
DWIDTH 36 0
BBX 1 1 37 -7
BITMAP
00
ENDCHAR
STARTCHAR exclam
ENCODING 33
SWIDTH 685 0
DWIDTH 36 0
BBX 7 45 15 0
BITMAP
FE
FE
FE
FE
FE
FE
FE
FE
FE
FE
FE
FE
FE
FE
FE
FE
FE
FE
FE
FE
FE
FE
FE
FE
FE
FE
FE
FE
FE
FE
00
00
00
00
00
00
00
FE
FE
FE
FE
FE
FE
FE
FE
ENDCHAR
STARTCHAR quotedbl
ENCODING 34
SWIDTH 685 0
DWIDTH 36 0
BBX 23 22 7 23
BITMAP
FF01FE
FF01FE
FF01FE
FF01FE
FF01FE
FF01FE
FF01FE
FF01FE
FF01FE
FF01FE
FF01FE
FF01FE
FF01FE
FF01FE
FF01FE
FF01FE
FF01FE
FF01FE
FF01FE
FF01FE
FF01FE
FF01FE
ENDCHAR
STARTCHAR numbersign
ENCODING 35
SWIDTH 685 0
DWIDTH 36 0
BBX 37 38 0 0
BITMAP
00FC01F800
01FE03FC00
01FE03FC00
01FE03FC00
01FE03FC00
01FE03FC00
01FE03FC00
01FE03FC00
FFFFFFFFF8
FFFFFFFFF8
FFFFFFFFF8
FFFFFFFFF8
FFFFFFFFF8
FFFFFFFFF8
FFFFFFFFF8
01FE03FC00
01FE03FC00
01FE03FC00
01FE03FC00
01FE03FC00
01FE03FC00
01FE03FC00
01FE03FC00
FFFFFFFFF8
FFFFFFFFF8
FFFFFFFFF8
FFFFFFFFF8
FFFFFFFFF8
FFFFFFFFF8
FFFFFFFFF8
01FE03FC00
01FE03FC00
01FE03FC00
01FE03FC00
01FE03FC00
01FE03FC00
01FE03FC00
00FC01F800
ENDCHAR
STARTCHAR dollar
ENCODING 36
SWIDTH 685 0
DWIDTH 36 0
BBX 37 38 0 0
BITMAP
00FFFFF800
01FFFFFC00
01FFFFFC00
01FFFFFC00
01FFFFFC00
01FFFFFC00
01FFFFFC00
01FFFFFC00
FE01FC0000
FE01FC0000
FE01FC0000
FE01FC0000
FE01FC0000
FE01FC0000
FE01FC0000
01FFFFFC00
01FFFFFC00
01FFFFFC00
01FFFFFC00
01FFFFFC00
01FFFFFC00
01FFFFFC00
00FFFFFC00
0001FC03F8
0001FC03F8
0001FC03F8
0001FC03F8
0001FC03F8
0001FC03F8
0001FC03F8
00FFFFFC00
01FFFFFC00
01FFFFFC00
01FFFFFC00
01FFFFFC00
01FFFFFC00
01FFFFFC00
00FFFFF800
ENDCHAR
STARTCHAR percent
ENCODING 37
SWIDTH 685 0
DWIDTH 36 0
BBX 30 45 0 0
BITMAP
FE000000
FE000000
FE000000
FE000000
FE000000
FE000000
FE000000
FE0001F8
FE0003FC
FE0003FC
FE0003FC
FE0003FC
FE0003FC
FE0003FC
FE0003FC
0001FC00
0001FC00
0001FC00
0001FC00
0001FC00
0001FC00
0001FC00
00FE0000
01FE0000
01FE0000
01FE0000
01FE0000
01FE0000
01FE0000
01FE0000
FE0003FC
FE0003FC
FE0003FC
FE0003FC
FE0003FC
FE0003FC
FE0003FC
000003FC
000003FC
000003FC
000003FC
000003FC
000003FC
000003FC
000001F8
ENDCHAR
STARTCHAR ampersand
ENCODING 38
SWIDTH 685 0
DWIDTH 36 0
BBX 30 38 0 0
BITMAP
00FC0000
01FE0000
01FE0000
01FE0000
01FE0000
01FE0000
01FE0000
01FE0000
FE01FC00
FE01FC00
FE01FC00
FE01FC00
FE01FC00
FE01FC00
FE01FC00
01FE0000
01FE0000
01FE0000
01FE0000
01FE0000
01FE0000
01FE0000
01FE0000
FE01FC00
FE01FC00
FE01FC00
FE01FC00
FE01FC00
FE01FC00
FE01FC00
01FE03FC
01FE03FC
01FE03FC
01FE03FC
01FE03FC
01FE03FC
01FE03FC
00FC01F8
ENDCHAR
STARTCHAR quotesingle
ENCODING 39
SWIDTH 685 0
DWIDTH 36 0
BBX 7 22 15 23
BITMAP
FE
FE
FE
FE
FE
FE
FE
FE
FE
FE
FE
FE
FE
FE
FE
FE
FE
FE
FE
FE
FE
FE
ENDCHAR
STARTCHAR parenleft
ENCODING 40
SWIDTH 685 0
DWIDTH 36 0
BBX 15 45 7 0
BITMAP
00FE
00FE
00FE
00FE
00FE
00FE
00FE
7F00
FF00
FF00
FF00
FF00
FF00
FF00
FF00
FF00
FF00
FF00
FF00
FF00
FF00
FF00
FF00
FF00
FF00
FF00
FF00
FF00
FF00
FF00
FF00
FF00
FF00
FF00
FF00
FF00
FF00
00FE
00FE
00FE
00FE
00FE
00FE
00FE
00FE
ENDCHAR
STARTCHAR parenright
ENCODING 41
SWIDTH 685 0
DWIDTH 36 0
BBX 15 45 7 0
BITMAP
FF00
FF00
FF00
FF00
FF00
FF00
FF00
00FE
00FE
00FE
00FE
00FE
00FE
00FE
00FE
00FE
00FE
00FE
00FE
00FE
00FE
00FE
00FE
00FE
00FE
00FE
00FE
00FE
00FE
00FE
00FE
00FE
00FE
00FE
00FE
00FE
00FE
7F00
FF00
FF00
FF00
FF00
FF00
FF00
7E00
ENDCHAR
STARTCHAR asterisk
ENCODING 42
SWIDTH 685 0
DWIDTH 36 0
BBX 23 38 7 0
BITMAP
7E00FC
FF01FE
FF01FE
FF01FE
FF01FE
FF01FE
FF01FE
7F01FE
00FE00
00FE00
00FE00
00FE00
00FE00
00FE00
00FE00
7FFFFE
FFFFFE
FFFFFE
FFFFFE
FFFFFE
FFFFFE
FFFFFE
7FFFFE
00FE00
00FE00
00FE00
00FE00
00FE00
00FE00
00FE00
7F01FE
FF01FE
FF01FE
FF01FE
FF01FE
FF01FE
FF01FE
7E00FC
ENDCHAR
STARTCHAR plus
ENCODING 43
SWIDTH 685 0
DWIDTH 36 0
BBX 37 38 0 0
BITMAP
0001FC0000
0001FC0000
0001FC0000
0001FC0000
0001FC0000
0001FC0000
0001FC0000
0001FC0000
0001FC0000
0001FC0000
0001FC0000
0001FC0000
0001FC0000
0001FC0000
0001FC0000
FFFFFFFFF8
FFFFFFFFF8
FFFFFFFFF8
FFFFFFFFF8
FFFFFFFFF8
FFFFFFFFF8
FFFFFFFFF8
FFFFFFFFF8
0001FC0000
0001FC0000
0001FC0000
0001FC0000
0001FC0000
0001FC0000
0001FC0000
0001FC0000
0001FC0000
0001FC0000
0001FC0000
0001FC0000
0001FC0000
0001FC0000
0001FC0000
ENDCHAR
STARTCHAR comma
ENCODING 44
SWIDTH 685 0
DWIDTH 36 0
BBX 23 22 7 -7
BITMAP
00FFFE
00FFFE
00FFFE
00FFFE
00FFFE
00FFFE
00FFFE
00FE00
00FE00
00FE00
00FE00
00FE00
00FE00
00FE00
00FE00
FF0000
FF0000
FF0000
FF0000
FF0000
FF0000
FF0000
ENDCHAR
STARTCHAR hyphen
ENCODING 45
SWIDTH 685 0
DWIDTH 36 0
BBX 30 8 0 15
BITMAP
FFFFFFFC
FFFFFFFC
FFFFFFFC
FFFFFFFC
FFFFFFFC
FFFFFFFC
FFFFFFFC
FFFFFFFC
ENDCHAR
STARTCHAR period
ENCODING 46
SWIDTH 685 0
DWIDTH 36 0
BBX 15 15 7 0
BITMAP
FFFE
FFFE
FFFE
FFFE
FFFE
FFFE
FFFE
FFFE
FFFE
FFFE
FFFE
FFFE
FFFE
FFFE
7FFE
ENDCHAR
STARTCHAR slash
ENCODING 47
SWIDTH 685 0
DWIDTH 36 0
BBX 30 30 0 8
BITMAP
000001F8
000003FC
000003FC
000003FC
000003FC
000003FC
000003FC
000003FC
0001FC00
0001FC00
0001FC00
0001FC00
0001FC00
0001FC00
0001FC00
00FE0000
01FE0000
01FE0000
01FE0000
01FE0000
01FE0000
01FE0000
01FE0000
FE000000
FE000000
FE000000
FE000000
FE000000
FE000000
FE000000
ENDCHAR
STARTCHAR zero
ENCODING 48
SWIDTH 685 0
DWIDTH 36 0
BBX 23 45 7 0
BITMAP
00FE00
00FE00
00FE00
00FE00
00FE00
00FE00
00FE00
7F01FC
FF01FE
FF01FE
FF01FE
FF01FE
FF01FE
FF01FE
FF01FE
FF01FE
FF01FE
FF01FE
FF01FE
FF01FE
FF01FE
FF01FE
FF01FE
FF01FE
FF01FE
FF01FE
FF01FE
FF01FE
FF01FE
FF01FE
FF01FE
FF01FE
FF01FE
FF01FE
FF01FE
FF01FE
FF01FE
00FE00
00FE00
00FE00
00FE00
00FE00
00FE00
00FE00
00FE00
ENDCHAR
STARTCHAR one
ENCODING 49
SWIDTH 685 0
DWIDTH 36 0
BBX 23 45 7 0
BITMAP
00FE00
00FE00
00FE00
00FE00
00FE00
00FE00
00FE00
7FFE00
FFFE00
FFFE00
FFFE00
FFFE00
FFFE00
FFFE00
7FFE00
00FE00
00FE00
00FE00
00FE00
00FE00
00FE00
00FE00
00FE00
00FE00
00FE00
00FE00
00FE00
00FE00
00FE00
00FE00
00FE00
00FE00
00FE00
00FE00
00FE00
00FE00
00FE00
7FFFFE
FFFFFE
FFFFFE
FFFFFE
FFFFFE
FFFFFE
FFFFFE
7FFFFC
ENDCHAR
STARTCHAR two
ENCODING 50
SWIDTH 685 0
DWIDTH 36 0
BBX 30 45 0 0
BITMAP
01FFFC00
01FFFC00
01FFFC00
01FFFC00
01FFFC00
01FFFC00
01FFFC00
FE0003F8
FE0003FC
FE0003FC
FE0003FC
FE0003FC
FE0003FC
FE0003FC
FE0003FC
000003FC
000003FC
000003FC
000003FC
000003FC
000003FC
000003FC
0001FC00
0001FC00
0001FC00
0001FC00
0001FC00
0001FC00
0001FC00
0001FC00
01FE0000
01FE0000
01FE0000
01FE0000
01FE0000
01FE0000
01FE0000
FFFFFFFC
FFFFFFFC
FFFFFFFC
FFFFFFFC
FFFFFFFC
FFFFFFFC
FFFFFFFC
FFFFFFF8
ENDCHAR
STARTCHAR three
ENCODING 51
SWIDTH 685 0
DWIDTH 36 0
BBX 30 45 0 0
BITMAP
FFFFFFFC
FFFFFFFC
FFFFFFFC
FFFFFFFC
FFFFFFFC
FFFFFFFC
FFFFFFFC
000003FC
000003FC
000003FC
000003FC
000003FC
000003FC
000003FC
000003FC
01FFFC00
01FFFC00
01FFFC00
01FFFC00
01FFFC00
01FFFC00
01FFFC00
000003FC
000003FC
000003FC
000003FC
000003FC
000003FC
000003FC
000003FC
FE0003FC
FE0003FC
FE0003FC
FE0003FC
FE0003FC
FE0003FC
FE0003FC
01FFFC00
01FFFC00
01FFFC00
01FFFC00
01FFFC00
01FFFC00
01FFFC00
00FFFC00
ENDCHAR
STARTCHAR four
ENCODING 52
SWIDTH 685 0
DWIDTH 36 0
BBX 30 45 0 0
BITMAP
0001FC00
0001FC00
0001FC00
0001FC00
0001FC00
0001FC00
0001FC00
00FFFC00
01FFFC00
01FFFC00
01FFFC00
01FFFC00
01FFFC00
01FFFC00
01FFFC00
FE01FC00
FE01FC00
FE01FC00
FE01FC00
FE01FC00
FE01FC00
FE01FC00
FFFFFFFC
FFFFFFFC
FFFFFFFC
FFFFFFFC
FFFFFFFC
FFFFFFFC
FFFFFFFC
FFFFFFFC
0001FC00
0001FC00
0001FC00
0001FC00
0001FC00
0001FC00
0001FC00
0001FC00
0001FC00
0001FC00
0001FC00
0001FC00
0001FC00
0001FC00
0001FC00
ENDCHAR
STARTCHAR five
ENCODING 53
SWIDTH 685 0
DWIDTH 36 0
BBX 30 45 0 0
BITMAP
FFFFFFFC
FFFFFFFC
FFFFFFFC
FFFFFFFC
FFFFFFFC
FFFFFFFC
FFFFFFFC
FF000000
FE000000
FE000000
FE000000
FE000000
FE000000
FE000000
FF000000
FFFFFC00
FFFFFC00
FFFFFC00
FFFFFC00
FFFFFC00
FFFFFC00
FFFFFC00
000003FC
000003FC
000003FC
000003FC
000003FC
000003FC
000003FC
000003FC
FE0003FC
FE0003FC
FE0003FC
FE0003FC
FE0003FC
FE0003FC
FE0003FC
01FFFC00
01FFFC00
01FFFC00
01FFFC00
01FFFC00
01FFFC00
01FFFC00
00FFFC00
ENDCHAR
STARTCHAR six
ENCODING 54
SWIDTH 685 0
DWIDTH 36 0
BBX 30 45 0 0
BITMAP
01FFFC00
01FFFC00
01FFFC00
01FFFC00
01FFFC00
01FFFC00
01FFFC00
FE000000
FE000000
FE000000
FE000000
FE000000
FE000000
FE000000
FF000000
FFFFFC00
FFFFFC00
FFFFFC00
FFFFFC00
FFFFFC00
FFFFFC00
FFFFFC00
FF0003FC
FE0003FC
FE0003FC
FE0003FC
FE0003FC
FE0003FC
FE0003FC
FE0003FC
FE0003FC
FE0003FC
FE0003FC
FE0003FC
FE0003FC
FE0003FC
FE0003FC
01FFFC00
01FFFC00
01FFFC00
01FFFC00
01FFFC00
01FFFC00
01FFFC00
00FFFC00
ENDCHAR
STARTCHAR seven
ENCODING 55
SWIDTH 685 0
DWIDTH 36 0
BBX 30 45 0 0
BITMAP
FFFFFFFC
FFFFFFFC
FFFFFFFC
FFFFFFFC
FFFFFFFC
FFFFFFFC
FFFFFFFC
000003FC
000003FC
000003FC
000003FC
000003FC
000003FC
000003FC
000003FC
0001FC00
0001FC00
0001FC00
0001FC00
0001FC00
0001FC00
0001FC00
0001FC00
0001FC00
0001FC00
0001FC00
0001FC00
0001FC00
0001FC00
0001FC00
01FE0000
01FE0000
01FE0000
01FE0000
01FE0000
01FE0000
01FE0000
01FE0000
01FE0000
01FE0000
01FE0000
01FE0000
01FE0000
01FE0000
00FC0000
ENDCHAR
STARTCHAR eight
ENCODING 56
SWIDTH 685 0
DWIDTH 36 0
BBX 30 45 0 0
BITMAP
01FFFC00
01FFFC00
01FFFC00
01FFFC00
01FFFC00
01FFFC00
01FFFC00
FE0003F8
FE0003FC
FE0003FC
FE0003FC
FE0003FC
FE0003FC
FE0003FC
FE0003FC
01FFFC00
01FFFC00
01FFFC00
01FFFC00
01FFFC00
01FFFC00
01FFFC00
FE0003FC
FE0003FC
FE0003FC
FE0003FC
FE0003FC
FE0003FC
FE0003FC
FE0003FC
FE0003FC
FE0003FC
FE0003FC
FE0003FC
FE0003FC
FE0003FC
FE0003FC
01FFFC00
01FFFC00
01FFFC00
01FFFC00
01FFFC00
01FFFC00
01FFFC00
00FFFC00
ENDCHAR
STARTCHAR nine
ENCODING 57
SWIDTH 685 0
DWIDTH 36 0
BBX 30 45 0 0
BITMAP
01FFFC00
01FFFC00
01FFFC00
01FFFC00
01FFFC00
01FFFC00
01FFFC00
FE0003F8
FE0003FC
FE0003FC
FE0003FC
FE0003FC
FE0003FC
FE0003FC
FE0003FC
FE0003FC
FE0003FC
FE0003FC
FE0003FC
FE0003FC
FE0003FC
FE0003FC
01FFFFFC
01FFFFFC
01FFFFFC
01FFFFFC
01FFFFFC
01FFFFFC
01FFFFFC
00FFFFFC
000003FC
000003FC
000003FC
000003FC
000003FC
000003FC
000003FC
00FFFC00
01FFFC00
01FFFC00
01FFFC00
01FFFC00
01FFFC00
01FFFC00
00FFFC00
ENDCHAR
STARTCHAR colon
ENCODING 58
SWIDTH 685 0
DWIDTH 36 0
BBX 15 38 7 0
BITMAP
7FFE
FFFE
FFFE
FFFE
FFFE
FFFE
FFFE
FFFE
FFFE
FFFE
FFFE
FFFE
FFFE
FFFE
FFFE
0000
0000
0000
0000
0000
0000
0000
0000
FFFE
FFFE
FFFE
FFFE
FFFE
FFFE
FFFE
FFFE
FFFE
FFFE
FFFE
FFFE
FFFE
FFFE
7FFE
ENDCHAR
STARTCHAR semicolon
ENCODING 59
SWIDTH 685 0
DWIDTH 36 0
BBX 22 45 0 -7
BITMAP
00FFFC
01FFFC
01FFFC
01FFFC
01FFFC
01FFFC
01FFFC
01FFFC
01FFFC
01FFFC
01FFFC
01FFFC
01FFFC
01FFFC
01FFFC
000000
000000
000000
000000
000000
000000
000000
000000
01FFFC
01FFFC
01FFFC
01FFFC
01FFFC
01FFFC
01FFFC
01FE00
01FE00
01FE00
01FE00
01FE00
01FE00
01FE00
01FC00
FE0000
FE0000
FE0000
FE0000
FE0000
FE0000
FE0000
ENDCHAR
STARTCHAR less
ENCODING 60
SWIDTH 685 0
DWIDTH 36 0
BBX 23 38 7 0
BITMAP
0000FC
0001FE
0001FE
0001FE
0001FE
0001FE
0001FE
0001FE
00FE00
00FE00
00FE00
00FE00
00FE00
00FE00
00FE00
7F0000
FF0000
FF0000
FF0000
FF0000
FF0000
FF0000
7F0000
00FE00
00FE00
00FE00
00FE00
00FE00
00FE00
00FE00
0001FE
0001FE
0001FE
0001FE
0001FE
0001FE
0001FE
0000FC
ENDCHAR
STARTCHAR equal
ENCODING 61
SWIDTH 685 0
DWIDTH 36 0
BBX 30 22 0 8
BITMAP
FFFFFFFC
FFFFFFFC
FFFFFFFC
FFFFFFFC
FFFFFFFC
FFFFFFFC
FFFFFFFC
00000000
00000000
00000000
00000000
00000000
00000000
00000000
00000000
FFFFFFFC
FFFFFFFC
FFFFFFFC
FFFFFFFC
FFFFFFFC
FFFFFFFC
FFFFFFFC
ENDCHAR
STARTCHAR greater
ENCODING 62
SWIDTH 685 0
DWIDTH 36 0
BBX 23 38 7 0
BITMAP
7E0000
FF0000
FF0000
FF0000
FF0000
FF0000
FF0000
7F0000
00FE00
00FE00
00FE00
00FE00
00FE00
00FE00
00FE00
0001FE
0001FE
0001FE
0001FE
0001FE
0001FE
0001FE
0001FE
00FE00
00FE00
00FE00
00FE00
00FE00
00FE00
00FE00
7F0000
FF0000
FF0000
FF0000
FF0000
FF0000
FF0000
7E0000
ENDCHAR
STARTCHAR question
ENCODING 63
SWIDTH 685 0
DWIDTH 36 0
BBX 23 45 7 0
BITMAP
00FE00
00FE00
00FE00
00FE00
00FE00
00FE00
00FE00
7F01FC
FF01FE
FF01FE
FF01FE
FF01FE
FF01FE
FF01FE
7F01FE
0001FE
0001FE
0001FE
0001FE
0001FE
0001FE
0001FE
00FE00
00FE00
00FE00
00FE00
00FE00
00FE00
00FE00
00FE00
000000
000000
000000
000000
000000
000000
000000
00FE00
00FE00
00FE00
00FE00
00FE00
00FE00
00FE00
00FE00
ENDCHAR
STARTCHAR at
ENCODING 64
SWIDTH 685 0
DWIDTH 36 0
BBX 30 45 0 0
BITMAP
01FFFC00
01FFFC00
01FFFC00
01FFFC00
01FFFC00
01FFFC00
01FFFC00
FE0003F8
FE0003FC
FE0003FC
FE0003FC
FE0003FC
FE0003FC
FE0003FC
FE0003FC
FE01FFFC
FE01FFFC
FE01FFFC
FE01FFFC
FE01FFFC
FE01FFFC
FE01FFFC
FE01FFFC
FE01FFFC
FE01FFFC
FE01FFFC
FE01FFFC
FE01FFFC
FE01FFFC
FE01FFFC
FE000000
FE000000
FE000000
FE000000
FE000000
FE000000
FE000000
01FFFC00
01FFFC00
01FFFC00
01FFFC00
01FFFC00
01FFFC00
01FFFC00
00FFFC00
ENDCHAR
STARTCHAR A
ENCODING 65
SWIDTH 685 0
DWIDTH 36 0
BBX 30 45 0 0
BITMAP
01FFFC00
01FFFC00
01FFFC00
01FFFC00
01FFFC00
01FFFC00
01FFFC00
FE0003F8
FE0003FC
FE0003FC
FE0003FC
FE0003FC
FE0003FC
FE0003FC
FE0003FC
FE0003FC
FE0003FC
FE0003FC
FE0003FC
FE0003FC
FE0003FC
FE0003FC
FFFFFFFC
FFFFFFFC
FFFFFFFC
FFFFFFFC
FFFFFFFC
FFFFFFFC
FFFFFFFC
FFFFFFFC
FE0003FC
FE0003FC
FE0003FC
FE0003FC
FE0003FC
FE0003FC
FE0003FC
FE0003FC
FE0003FC
FE0003FC
FE0003FC
FE0003FC
FE0003FC
FE0003FC
FE0001F8
ENDCHAR
STARTCHAR B
ENCODING 66
SWIDTH 685 0
DWIDTH 36 0
BBX 30 45 0 0
BITMAP
FFFFFC00
FFFFFC00
FFFFFC00
FFFFFC00
FFFFFC00
FFFFFC00
FFFFFC00
FF0003F8
FE0003FC
FE0003FC
FE0003FC
FE0003FC
FE0003FC
FE0003FC
FF0003FC
FFFFFC00
FFFFFC00
FFFFFC00
FFFFFC00
FFFFFC00
FFFFFC00
FFFFFC00
FF0003FC
FE0003FC
FE0003FC
FE0003FC
FE0003FC
FE0003FC
FE0003FC
FE0003FC
FE0003FC
FE0003FC
FE0003FC
FE0003FC
FE0003FC
FE0003FC
FE0003FC
FFFFFC00
FFFFFC00
FFFFFC00
FFFFFC00
FFFFFC00
FFFFFC00
FFFFFC00
FFFFFC00
ENDCHAR
STARTCHAR C
ENCODING 67
SWIDTH 685 0
DWIDTH 36 0
BBX 30 45 0 0
BITMAP
01FFFC00
01FFFC00
01FFFC00
01FFFC00
01FFFC00
01FFFC00
01FFFC00
FE0003F8
FE0003FC
FE0003FC
FE0003FC
FE0003FC
FE0003FC
FE0003FC
FE0003FC
FE000000
FE000000
FE000000
FE000000
FE000000
FE000000
FE000000
FE000000
FE000000
FE000000
FE000000
FE000000
FE000000
FE000000
FE000000
FE0003FC
FE0003FC
FE0003FC
FE0003FC
FE0003FC
FE0003FC
FE0003FC
01FFFC00
01FFFC00
01FFFC00
01FFFC00
01FFFC00
01FFFC00
01FFFC00
00FFFC00
ENDCHAR
STARTCHAR D
ENCODING 68
SWIDTH 685 0
DWIDTH 36 0
BBX 30 45 0 0
BITMAP
FFFFFC00
FFFFFC00
FFFFFC00
FFFFFC00
FFFFFC00
FFFFFC00
FFFFFC00
FF0003F8
FE0003FC
FE0003FC
FE0003FC
FE0003FC
FE0003FC
FE0003FC
FE0003FC
FE0003FC
FE0003FC
FE0003FC
FE0003FC
FE0003FC
FE0003FC
FE0003FC
FE0003FC
FE0003FC
FE0003FC
FE0003FC
FE0003FC
FE0003FC
FE0003FC
FE0003FC
FE0003FC
FE0003FC
FE0003FC
FE0003FC
FE0003FC
FE0003FC
FE0003FC
FFFFFC00
FFFFFC00
FFFFFC00
FFFFFC00
FFFFFC00
FFFFFC00
FFFFFC00
FFFFFC00
ENDCHAR
STARTCHAR E
ENCODING 69
SWIDTH 685 0
DWIDTH 36 0
BBX 30 45 0 0
BITMAP
FFFFFFFC
FFFFFFFC
FFFFFFFC
FFFFFFFC
FFFFFFFC
FFFFFFFC
FFFFFFFC
FF000000
FE000000
FE000000
FE000000
FE000000
FE000000
FE000000
FF000000
FFFFFC00
FFFFFC00
FFFFFC00
FFFFFC00
FFFFFC00
FFFFFC00
FFFFFC00
FF000000
FE000000
FE000000
FE000000
FE000000
FE000000
FE000000
FE000000
FE000000
FE000000
FE000000
FE000000
FE000000
FE000000
FE000000
FFFFFFFC
FFFFFFFC
FFFFFFFC
FFFFFFFC
FFFFFFFC
FFFFFFFC
FFFFFFFC
FFFFFFF8
ENDCHAR
STARTCHAR F
ENCODING 70
SWIDTH 685 0
DWIDTH 36 0
BBX 30 45 0 0
BITMAP
FFFFFFFC
FFFFFFFC
FFFFFFFC
FFFFFFFC
FFFFFFFC
FFFFFFFC
FFFFFFFC
FF000000
FE000000
FE000000
FE000000
FE000000
FE000000
FE000000
FF000000
FFFFFC00
FFFFFC00
FFFFFC00
FFFFFC00
FFFFFC00
FFFFFC00
FFFFFC00
FF000000
FE000000
FE000000
FE000000
FE000000
FE000000
FE000000
FE000000
FE000000
FE000000
FE000000
FE000000
FE000000
FE000000
FE000000
FE000000
FE000000
FE000000
FE000000
FE000000
FE000000
FE000000
FE000000
ENDCHAR
STARTCHAR G
ENCODING 71
SWIDTH 685 0
DWIDTH 36 0
BBX 30 45 0 0
BITMAP
01FFFC00
01FFFC00
01FFFC00
01FFFC00
01FFFC00
01FFFC00
01FFFC00
FE0003F8
FE0003FC
FE0003FC
FE0003FC
FE0003FC
FE0003FC
FE0003FC
FE0003FC
FE000000
FE000000
FE000000
FE000000
FE000000
FE000000
FE000000
FE01FFFC
FE01FFFC
FE01FFFC
FE01FFFC
FE01FFFC
FE01FFFC
FE01FFFC
FE01FFFC
FE0003FC
FE0003FC
FE0003FC
FE0003FC
FE0003FC
FE0003FC
FE0003FC
01FFFFFC
01FFFFFC
01FFFFFC
01FFFFFC
01FFFFFC
01FFFFFC
01FFFFFC
00FFFFF8
ENDCHAR
STARTCHAR H
ENCODING 72
SWIDTH 685 0
DWIDTH 36 0
BBX 30 45 0 0
BITMAP
FE0003FC
FE0003FC
FE0003FC
FE0003FC
FE0003FC
FE0003FC
FE0003FC
FE0003FC
FE0003FC
FE0003FC
FE0003FC
FE0003FC
FE0003FC
FE0003FC
FF0003FC
FFFFFFFC
FFFFFFFC
FFFFFFFC
FFFFFFFC
FFFFFFFC
FFFFFFFC
FFFFFFFC
FF0003FC
FE0003FC
FE0003FC
FE0003FC
FE0003FC
FE0003FC
FE0003FC
FE0003FC
FE0003FC
FE0003FC
FE0003FC
FE0003FC
FE0003FC
FE0003FC
FE0003FC
FE0003FC
FE0003FC
FE0003FC
FE0003FC
FE0003FC
FE0003FC
FE0003FC
FE0001F8
ENDCHAR
STARTCHAR I
ENCODING 73
SWIDTH 685 0
DWIDTH 36 0
BBX 23 45 7 0
BITMAP
FFFFFE
FFFFFE
FFFFFE
FFFFFE
FFFFFE
FFFFFE
FFFFFE
01FF00
00FE00
00FE00
00FE00
00FE00
00FE00
00FE00
00FE00
00FE00
00FE00
00FE00
00FE00
00FE00
00FE00
00FE00
00FE00
00FE00
00FE00
00FE00
00FE00
00FE00
00FE00
00FE00
00FE00
00FE00
00FE00
00FE00
00FE00
00FE00
00FE00
7FFFFE
FFFFFE
FFFFFE
FFFFFE
FFFFFE
FFFFFE
FFFFFE
7FFFFC
ENDCHAR
STARTCHAR J
ENCODING 74
SWIDTH 685 0
DWIDTH 36 0
BBX 30 45 0 0
BITMAP
000003FC
000003FC
000003FC
000003FC
000003FC
000003FC
000003FC
000003FC
000003FC
000003FC
000003FC
000003FC
000003FC
000003FC
000003FC
000003FC
000003FC
000003FC
000003FC
000003FC
000003FC
000003FC
000003FC
000003FC
000003FC
000003FC
000003FC
000003FC
000003FC
000003FC
FE0003FC
FE0003FC
FE0003FC
FE0003FC
FE0003FC
FE0003FC
FE0003FC
01FFFC00
01FFFC00
01FFFC00
01FFFC00
01FFFC00
01FFFC00
01FFFC00
00FFFC00
ENDCHAR
STARTCHAR K
ENCODING 75
SWIDTH 685 0
DWIDTH 36 0
BBX 30 45 0 0
BITMAP
FE0003FC
FE0003FC
FE0003FC
FE0003FC
FE0003FC
FE0003FC
FE0003FC
FE01FC00
FE01FC00
FE01FC00
FE01FC00
FE01FC00
FE01FC00
FE01FC00
FF01FC00
FFFE0000
FFFE0000
FFFE0000
FFFE0000
FFFE0000
FFFE0000
FFFE0000
FFFE0000
FFFE0000
FFFE0000
FFFE0000
FFFE0000
FFFE0000
FFFE0000
FFFE0000
FE01FC00
FE01FC00
FE01FC00
FE01FC00
FE01FC00
FE01FC00
FE01FC00
FE0003FC
FE0003FC
FE0003FC
FE0003FC
FE0003FC
FE0003FC
FE0003FC
FE0001F8
ENDCHAR
STARTCHAR L
ENCODING 76
SWIDTH 685 0
DWIDTH 36 0
BBX 30 45 0 0
BITMAP
FE000000
FE000000
FE000000
FE000000
FE000000
FE000000
FE000000
FE000000
FE000000
FE000000
FE000000
FE000000
FE000000
FE000000
FE000000
FE000000
FE000000
FE000000
FE000000
FE000000
FE000000
FE000000
FE000000
FE000000
FE000000
FE000000
FE000000
FE000000
FE000000
FE000000
FE000000
FE000000
FE000000
FE000000
FE000000
FE000000
FE000000
FFFFFFFC
FFFFFFFC
FFFFFFFC
FFFFFFFC
FFFFFFFC
FFFFFFFC
FFFFFFFC
FFFFFFF8
ENDCHAR
STARTCHAR M
ENCODING 77
SWIDTH 685 0
DWIDTH 36 0
BBX 30 45 0 0
BITMAP
FE0003FC
FE0003FC
FE0003FC
FE0003FC
FE0003FC
FE0003FC
FE0003FC
FFFFFFFC
FFFFFFFC
FFFFFFFC
FFFFFFFC
FFFFFFFC
FFFFFFFC
FFFFFFFC
FFFFFFFC
FFFFFFFC
FFFFFFFC
FFFFFFFC
FFFFFFFC
FFFFFFFC
FFFFFFFC
FFFFFFFC
FF0003FC
FE0003FC
FE0003FC
FE0003FC
FE0003FC
FE0003FC
FE0003FC
FE0003FC
FE0003FC
FE0003FC
FE0003FC
FE0003FC
FE0003FC
FE0003FC
FE0003FC
FE0003FC
FE0003FC
FE0003FC
FE0003FC
FE0003FC
FE0003FC
FE0003FC
FE0001F8
ENDCHAR
STARTCHAR N
ENCODING 78
SWIDTH 685 0
DWIDTH 36 0
BBX 30 45 0 0
BITMAP
FE0003FC
FE0003FC
FE0003FC
FE0003FC
FE0003FC
FE0003FC
FE0003FC
FFFC03FC
FFFE03FC
FFFE03FC
FFFE03FC
FFFE03FC
FFFE03FC
FFFE03FC
FFFE03FC
FFFE03FC
FFFE03FC
FFFE03FC
FFFE03FC
FFFE03FC
FFFE03FC
FFFE03FC
FF01FFFC
FE01FFFC
FE01FFFC
FE01FFFC
FE01FFFC
FE01FFFC
FE01FFFC
FE01FFFC
FE01FFFC
FE01FFFC
FE01FFFC
FE01FFFC
FE01FFFC
FE01FFFC
FE01FFFC
FE0003FC
FE0003FC
FE0003FC
FE0003FC
FE0003FC
FE0003FC
FE0003FC
FE0001F8
ENDCHAR
STARTCHAR O
ENCODING 79
SWIDTH 685 0
DWIDTH 36 0
BBX 30 45 0 0
BITMAP
01FFFC00
01FFFC00
01FFFC00
01FFFC00
01FFFC00
01FFFC00
01FFFC00
FE0003F8
FE0003FC
FE0003FC
FE0003FC
FE0003FC
FE0003FC
FE0003FC
FE0003FC
FE0003FC
FE0003FC
FE0003FC
FE0003FC
FE0003FC
FE0003FC
FE0003FC
FE0003FC
FE0003FC
FE0003FC
FE0003FC
FE0003FC
FE0003FC
FE0003FC
FE0003FC
FE0003FC
FE0003FC
FE0003FC
FE0003FC
FE0003FC
FE0003FC
FE0003FC
01FFFC00
01FFFC00
01FFFC00
01FFFC00
01FFFC00
01FFFC00
01FFFC00
00FFFC00
ENDCHAR
STARTCHAR P
ENCODING 80
SWIDTH 685 0
DWIDTH 36 0
BBX 30 45 0 0
BITMAP
FFFFFC00
FFFFFC00
FFFFFC00
FFFFFC00
FFFFFC00
FFFFFC00
FFFFFC00
FF0003F8
FE0003FC
FE0003FC
FE0003FC
FE0003FC
FE0003FC
FE0003FC
FE0003FC
FE0003FC
FE0003FC
FE0003FC
FE0003FC
FE0003FC
FE0003FC
FE0003FC
FFFFFC00
FFFFFC00
FFFFFC00
FFFFFC00
FFFFFC00
FFFFFC00
FFFFFC00
FFFFFC00
FE000000
FE000000
FE000000
FE000000
FE000000
FE000000
FE000000
FE000000
FE000000
FE000000
FE000000
FE000000
FE000000
FE000000
FE000000
ENDCHAR
STARTCHAR Q
ENCODING 81
SWIDTH 685 0
DWIDTH 36 0
BBX 30 52 0 -7
BITMAP
01FFFC00
01FFFC00
01FFFC00
01FFFC00
01FFFC00
01FFFC00
01FFFC00
FE0003F8
FE0003FC
FE0003FC
FE0003FC
FE0003FC
FE0003FC
FE0003FC
FE0003FC
FE0003FC
FE0003FC
FE0003FC
FE0003FC
FE0003FC
FE0003FC
FE0003FC
FE0003FC
FE0003FC
FE0003FC
FE0003FC
FE0003FC
FE0003FC
FE0003FC
FF0003FC
FFFE03FC
FFFE03FC
FFFE03FC
FFFE03FC
FFFE03FC
FFFE03FC
FFFE03FC
01FFFC00
01FFFC00
01FFFC00
01FFFC00
01FFFC00
01FFFC00
01FFFC00
00FFFC00
000003FC
000003FC
000003FC
000003FC
000003FC
000003FC
000003FC
ENDCHAR
STARTCHAR R
ENCODING 82
SWIDTH 685 0
DWIDTH 36 0
BBX 30 45 0 0
BITMAP
FFFFFC00
FFFFFC00
FFFFFC00
FFFFFC00
FFFFFC00
FFFFFC00
FFFFFC00
FF0003F8
FE0003FC
FE0003FC
FE0003FC
FE0003FC
FE0003FC
FE0003FC
FE0003FC
FE0003FC
FE0003FC
FE0003FC
FE0003FC
FE0003FC
FE0003FC
FE0003FC
FFFFFC00
FFFFFC00
FFFFFC00
FFFFFC00
FFFFFC00
FFFFFC00
FFFFFC00
FFFFFC00
FE01FC00
FE01FC00
FE01FC00
FE01FC00
FE01FC00
FE01FC00
FE01FC00
FE0003FC
FE0003FC
FE0003FC
FE0003FC
FE0003FC
FE0003FC
FE0003FC
FE0001F8
ENDCHAR
STARTCHAR S
ENCODING 83
SWIDTH 685 0
DWIDTH 36 0
BBX 30 45 0 0
BITMAP
01FFFC00
01FFFC00
01FFFC00
01FFFC00
01FFFC00
01FFFC00
01FFFC00
FE0003F8
FE0003FC
FE0003FC
FE0003FC
FE0003FC
FE0003FC
FE0003FC
FE0003FC
01FE0000
01FE0000
01FE0000
01FE0000
01FE0000
01FE0000
01FE0000
0001FC00
0001FC00
0001FC00
0001FC00
0001FC00
0001FC00
0001FC00
0001FC00
FE0003FC
FE0003FC
FE0003FC
FE0003FC
FE0003FC
FE0003FC
FE0003FC
01FFFC00
01FFFC00
01FFFC00
01FFFC00
01FFFC00
01FFFC00
01FFFC00
00FFFC00
ENDCHAR
STARTCHAR T
ENCODING 84
SWIDTH 685 0
DWIDTH 36 0
BBX 23 45 7 0
BITMAP
FFFFFE
FFFFFE
FFFFFE
FFFFFE
FFFFFE
FFFFFE
FFFFFE
01FF00
00FE00
00FE00
00FE00
00FE00
00FE00
00FE00
00FE00
00FE00
00FE00
00FE00
00FE00
00FE00
00FE00
00FE00
00FE00
00FE00
00FE00
00FE00
00FE00
00FE00
00FE00
00FE00
00FE00
00FE00
00FE00
00FE00
00FE00
00FE00
00FE00
00FE00
00FE00
00FE00
00FE00
00FE00
00FE00
00FE00
00FE00
ENDCHAR
STARTCHAR U
ENCODING 85
SWIDTH 685 0
DWIDTH 36 0
BBX 30 45 0 0
BITMAP
FE0003FC
FE0003FC
FE0003FC
FE0003FC
FE0003FC
FE0003FC
FE0003FC
FE0003FC
FE0003FC
FE0003FC
FE0003FC
FE0003FC
FE0003FC
FE0003FC
FE0003FC
FE0003FC
FE0003FC
FE0003FC
FE0003FC
FE0003FC
FE0003FC
FE0003FC
FE0003FC
FE0003FC
FE0003FC
FE0003FC
FE0003FC
FE0003FC
FE0003FC
FE0003FC
FE0003FC
FE0003FC
FE0003FC
FE0003FC
FE0003FC
FE0003FC
FE0003FC
01FFFC00
01FFFC00
01FFFC00
01FFFC00
01FFFC00
01FFFC00
01FFFC00
00FFFC00
ENDCHAR
STARTCHAR V
ENCODING 86
SWIDTH 685 0
DWIDTH 36 0
BBX 30 45 0 0
BITMAP
FE0003FC
FE0003FC
FE0003FC
FE0003FC
FE0003FC
FE0003FC
FE0003FC
FE0003FC
FE0003FC
FE0003FC
FE0003FC
FE0003FC
FE0003FC
FE0003FC
FE0003FC
FE0003FC
FE0003FC
FE0003FC
FE0003FC
FE0003FC
FE0003FC
FE0003FC
FE0003FC
FE0003FC
FE0003FC
FE0003FC
FE0003FC
FE0003FC
FE0003FC
FE0003FC
01FFFC00
01FFFC00
01FFFC00
01FFFC00
01FFFC00
01FFFC00
01FFFC00
01FFFC00
01FFFC00
01FFFC00
01FFFC00
01FFFC00
01FFFC00
01FFFC00
00FFFC00
ENDCHAR
STARTCHAR W
ENCODING 87
SWIDTH 685 0
DWIDTH 36 0
BBX 30 45 0 0
BITMAP
FE0003FC
FE0003FC
FE0003FC
FE0003FC
FE0003FC
FE0003FC
FE0003FC
FE0003FC
FE0003FC
FE0003FC
FE0003FC
FE0003FC
FE0003FC
FE0003FC
FE0003FC
FE0003FC
FE0003FC
FE0003FC
FE0003FC
FE0003FC
FE0003FC
FE0003FC
FFFFFFFC
FFFFFFFC
FFFFFFFC
FFFFFFFC
FFFFFFFC
FFFFFFFC
FFFFFFFC
FFFFFFFC
FFFFFFFC
FFFFFFFC
FFFFFFFC
FFFFFFFC
FFFFFFFC
FFFFFFFC
FFFFFFFC
FF0003FC
FE0003FC
FE0003FC
FE0003FC
FE0003FC
FE0003FC
FE0003FC
FE0001F8
ENDCHAR
STARTCHAR X
ENCODING 88
SWIDTH 685 0
DWIDTH 36 0
BBX 30 45 0 0
BITMAP
FE0003FC
FE0003FC
FE0003FC
FE0003FC
FE0003FC
FE0003FC
FE0003FC
FE0003FC
FE0003FC
FE0003FC
FE0003FC
FE0003FC
FE0003FC
FE0003FC
FE0003FC
01FFFC00
01FFFC00
01FFFC00
01FFFC00
01FFFC00
01FFFC00
01FFFC00
01FFFC00
01FFFC00
01FFFC00
01FFFC00
01FFFC00
01FFFC00
01FFFC00
01FFFC00
FE0003FC
FE0003FC
FE0003FC
FE0003FC
FE0003FC
FE0003FC
FE0003FC
FE0003FC
FE0003FC
FE0003FC
FE0003FC
FE0003FC
FE0003FC
FE0003FC
FE0001F8
ENDCHAR
STARTCHAR Y
ENCODING 89
SWIDTH 685 0
DWIDTH 36 0
BBX 23 45 7 0
BITMAP
FF01FE
FF01FE
FF01FE
FF01FE
FF01FE
FF01FE
FF01FE
FF01FE
FF01FE
FF01FE
FF01FE
FF01FE
FF01FE
FF01FE
FF01FE
FF01FE
FF01FE
FF01FE
FF01FE
FF01FE
FF01FE
FF01FE
00FE00
00FE00
00FE00
00FE00
00FE00
00FE00
00FE00
00FE00
00FE00
00FE00
00FE00
00FE00
00FE00
00FE00
00FE00
00FE00
00FE00
00FE00
00FE00
00FE00
00FE00
00FE00
00FE00
ENDCHAR
STARTCHAR Z
ENCODING 90
SWIDTH 685 0
DWIDTH 36 0
BBX 30 45 0 0
BITMAP
FFFFFFFC
FFFFFFFC
FFFFFFFC
FFFFFFFC
FFFFFFFC
FFFFFFFC
FFFFFFFC
000003FC
000003FC
000003FC
000003FC
000003FC
000003FC
000003FC
000003FC
0001FC00
0001FC00
0001FC00
0001FC00
0001FC00
0001FC00
0001FC00
00FE0000
01FE0000
01FE0000
01FE0000
01FE0000
01FE0000
01FE0000
01FE0000
FE000000
FE000000
FE000000
FE000000
FE000000
FE000000
FE000000
FFFFFFFC
FFFFFFFC
FFFFFFFC
FFFFFFFC
FFFFFFFC
FFFFFFFC
FFFFFFFC
FFFFFFF8
ENDCHAR
STARTCHAR bracketleft
ENCODING 91
SWIDTH 685 0
DWIDTH 36 0
BBX 23 45 7 0
BITMAP
FFFFFE
FFFFFE
FFFFFE
FFFFFE
FFFFFE
FFFFFE
FFFFFE
FF0000
FF0000
FF0000
FF0000
FF0000
FF0000
FF0000
FF0000
FF0000
FF0000
FF0000
FF0000
FF0000
FF0000
FF0000
FF0000
FF0000
FF0000
FF0000
FF0000
FF0000
FF0000
FF0000
FF0000
FF0000
FF0000
FF0000
FF0000
FF0000
FF0000
FFFFFE
FFFFFE
FFFFFE
FFFFFE
FFFFFE
FFFFFE
FFFFFE
7FFFFC
ENDCHAR
STARTCHAR backslash
ENCODING 92
SWIDTH 685 0
DWIDTH 36 0
BBX 30 30 0 8
BITMAP
FE000000
FE000000
FE000000
FE000000
FE000000
FE000000
FE000000
FE000000
01FE0000
01FE0000
01FE0000
01FE0000
01FE0000
01FE0000
01FE0000
0001FC00
0001FC00
0001FC00
0001FC00
0001FC00
0001FC00
0001FC00
0001FC00
000003FC
000003FC
000003FC
000003FC
000003FC
000003FC
000003FC
ENDCHAR
STARTCHAR bracketright
ENCODING 93
SWIDTH 685 0
DWIDTH 36 0
BBX 23 45 7 0
BITMAP
FFFFFE
FFFFFE
FFFFFE
FFFFFE
FFFFFE
FFFFFE
FFFFFE
0001FE
0001FE
0001FE
0001FE
0001FE
0001FE
0001FE
0001FE
0001FE
0001FE
0001FE
0001FE
0001FE
0001FE
0001FE
0001FE
0001FE
0001FE
0001FE
0001FE
0001FE
0001FE
0001FE
0001FE
0001FE
0001FE
0001FE
0001FE
0001FE
0001FE
7FFFFE
FFFFFE
FFFFFE
FFFFFE
FFFFFE
FFFFFE
FFFFFE
7FFFFC
ENDCHAR
STARTCHAR asciicircum
ENCODING 94
SWIDTH 685 0
DWIDTH 36 0
BBX 23 15 7 30
BITMAP
00FE00
00FE00
00FE00
00FE00
00FE00
00FE00
00FE00
7F01FC
FF01FE
FF01FE
FF01FE
FF01FE
FF01FE
FF01FE
7F01FE
ENDCHAR
STARTCHAR underscore
ENCODING 95
SWIDTH 685 0
DWIDTH 36 0
BBX 30 8 0 0
BITMAP
FFFFFFFC
FFFFFFFC
FFFFFFFC
FFFFFFFC
FFFFFFFC
FFFFFFFC
FFFFFFFC
FFFFFFF8
ENDCHAR
STARTCHAR grave
ENCODING 96
SWIDTH 685 0
DWIDTH 36 0
BBX 15 15 7 30
BITMAP
FF00
FF00
FF00
FF00
FF00
FF00
FF00
00FE
00FE
00FE
00FE
00FE
00FE
00FE
00FE
ENDCHAR
STARTCHAR a
ENCODING 97
SWIDTH 685 0
DWIDTH 36 0
BBX 30 30 0 0
BITMAP
01FFFFFC
01FFFFFC
01FFFFFC
01FFFFFC
01FFFFFC
01FFFFFC
01FFFFFC
FE0003FC
FE0003FC
FE0003FC
FE0003FC
FE0003FC
FE0003FC
FE0003FC
FE0003FC
FE01FFFC
FE01FFFC
FE01FFFC
FE01FFFC
FE01FFFC
FE01FFFC
FE01FFFC
01FE03FC
01FE03FC
01FE03FC
01FE03FC
01FE03FC
01FE03FC
01FE03FC
00FC01F8
ENDCHAR
STARTCHAR b
ENCODING 98
SWIDTH 685 0
DWIDTH 36 0
BBX 30 45 0 0
BITMAP
FE000000
FE000000
FE000000
FE000000
FE000000
FE000000
FE000000
FE000000
FE000000
FE000000
FE000000
FE000000
FE000000
FE000000
FF000000
FFFFFC00
FFFFFC00
FFFFFC00
FFFFFC00
FFFFFC00
FFFFFC00
FFFFFC00
FF0003FC
FE0003FC
FE0003FC
FE0003FC
FE0003FC
FE0003FC
FE0003FC
FE0003FC
FE0003FC
FE0003FC
FE0003FC
FE0003FC
FE0003FC
FE0003FC
FE0003FC
FFFFFC00
FFFFFC00
FFFFFC00
FFFFFC00
FFFFFC00
FFFFFC00
FFFFFC00
FFFFFC00
ENDCHAR
STARTCHAR c
ENCODING 99
SWIDTH 685 0
DWIDTH 36 0
BBX 22 30 0 0
BITMAP
01FFFC
01FFFC
01FFFC
01FFFC
01FFFC
01FFFC
01FFFC
FE0000
FE0000
FE0000
FE0000
FE0000
FE0000
FE0000
FE0000
FE0000
FE0000
FE0000
FE0000
FE0000
FE0000
FE0000
01FFFC
01FFFC
01FFFC
01FFFC
01FFFC
01FFFC
01FFFC
00FFFC
ENDCHAR
STARTCHAR d
ENCODING 100
SWIDTH 685 0
DWIDTH 36 0
BBX 30 45 0 0
BITMAP
000003FC
000003FC
000003FC
000003FC
000003FC
000003FC
000003FC
000003FC
000003FC
000003FC
000003FC
000003FC
000003FC
000003FC
000003FC
01FFFFFC
01FFFFFC
01FFFFFC
01FFFFFC
01FFFFFC
01FFFFFC
01FFFFFC
FE0003FC
FE0003FC
FE0003FC
FE0003FC
FE0003FC
FE0003FC
FE0003FC
FE0003FC
FE0003FC
FE0003FC
FE0003FC
FE0003FC
FE0003FC
FE0003FC
FE0003FC
01FFFFFC
01FFFFFC
01FFFFFC
01FFFFFC
01FFFFFC
01FFFFFC
01FFFFFC
00FFFFF8
ENDCHAR
STARTCHAR e
ENCODING 101
SWIDTH 685 0
DWIDTH 36 0
BBX 30 30 0 0
BITMAP
01FFFC00
01FFFC00
01FFFC00
01FFFC00
01FFFC00
01FFFC00
01FFFC00
FE01FFFC
FE01FFFC
FE01FFFC
FE01FFFC
FE01FFFC
FE01FFFC
FE01FFFC
FF01FFFC
FFFE0000
FFFE0000
FFFE0000
FFFE0000
FFFE0000
FFFE0000
FFFE0000
01FFFC00
01FFFC00
01FFFC00
01FFFC00
01FFFC00
01FFFC00
01FFFC00
00FFFC00
ENDCHAR
STARTCHAR f
ENCODING 102
SWIDTH 685 0
DWIDTH 36 0
BBX 30 45 0 0
BITMAP
0001FC00
0001FC00
0001FC00
0001FC00
0001FC00
0001FC00
0001FC00
00FE03F8
01FE03FC
01FE03FC
01FE03FC
01FE03FC
01FE03FC
01FE03FC
01FE03FC
01FE0000
01FE0000
01FE0000
01FE0000
01FE0000
01FE0000
01FE0000
FFFFFC00
FFFFFC00
FFFFFC00
FFFFFC00
FFFFFC00
FFFFFC00
FFFFFC00
FFFFFC00
01FE0000
01FE0000
01FE0000
01FE0000
01FE0000
01FE0000
01FE0000
01FE0000
01FE0000
01FE0000
01FE0000
01FE0000
01FE0000
01FE0000
00FC0000
ENDCHAR
STARTCHAR g
ENCODING 103
SWIDTH 685 0
DWIDTH 36 0
BBX 30 37 0 -7
BITMAP
01FFFFFC
01FFFFFC
01FFFFFC
01FFFFFC
01FFFFFC
01FFFFFC
01FFFFFC
FE0003FC
FE0003FC
FE0003FC
FE0003FC
FE0003FC
FE0003FC
FE0003FC
FE0003FC
01FFFC00
01FFFC00
01FFFC00
01FFFC00
01FFFC00
01FFFC00
01FFFC00
FE000000
FE000000
FE000000
FE000000
FE000000
FE000000
FE000000
FE000000
01FFFFFC
01FFFFFC
01FFFFFC
01FFFFFC
01FFFFFC
01FFFFFC
01FFFFFC
ENDCHAR
STARTCHAR h
ENCODING 104
SWIDTH 685 0
DWIDTH 36 0
BBX 30 45 0 0
BITMAP
FE000000
FE000000
FE000000
FE000000
FE000000
FE000000
FE000000
FE000000
FE000000
FE000000
FE000000
FE000000
FE000000
FE000000
FF000000
FFFFFC00
FFFFFC00
FFFFFC00
FFFFFC00
FFFFFC00
FFFFFC00
FFFFFC00
FF0003FC
FE0003FC
FE0003FC
FE0003FC
FE0003FC
FE0003FC
FE0003FC
FE0003FC
FE0003FC
FE0003FC
FE0003FC
FE0003FC
FE0003FC
FE0003FC
FE0003FC
FE0003FC
FE0003FC
FE0003FC
FE0003FC
FE0003FC
FE0003FC
FE0003FC
FE0001F8
ENDCHAR
STARTCHAR i
ENCODING 105
SWIDTH 685 0
DWIDTH 36 0
BBX 23 45 7 0
BITMAP
00FE00
00FE00
00FE00
00FE00
00FE00
00FE00
00FE00
000000
000000
000000
000000
000000
000000
000000
000000
FFFE00
FFFE00
FFFE00
FFFE00
FFFE00
FFFE00
FFFE00
00FE00
00FE00
00FE00
00FE00
00FE00
00FE00
00FE00
00FE00
00FE00
00FE00
00FE00
00FE00
00FE00
00FE00
00FE00
7FFFFE
FFFFFE
FFFFFE
FFFFFE
FFFFFE
FFFFFE
FFFFFE
7FFFFC
ENDCHAR
STARTCHAR j
ENCODING 106
SWIDTH 685 0
DWIDTH 36 0
BBX 23 52 7 -7
BITMAP
0001FE
0001FE
0001FE
0001FE
0001FE
0001FE
0001FE
000000
000000
000000
000000
000000
000000
000000
000000
0001FE
0001FE
0001FE
0001FE
0001FE
0001FE
0001FE
0001FE
0001FE
0001FE
0001FE
0001FE
0001FE
0001FE
0001FE
0001FE
0001FE
0001FE
0001FE
0001FE
0001FE
0001FE
7F01FE
FF01FE
FF01FE
FF01FE
FF01FE
FF01FE
FF01FE
7F01FC
00FE00
00FE00
00FE00
00FE00
00FE00
00FE00
00FE00
ENDCHAR
STARTCHAR k
ENCODING 107
SWIDTH 685 0
DWIDTH 36 0
BBX 30 45 0 0
BITMAP
FE000000
FE000000
FE000000
FE000000
FE000000
FE000000
FE000000
FE000000
FE000000
FE000000
FE000000
FE000000
FE000000
FE000000
FE000000
FE01FC00
FE01FC00
FE01FC00
FE01FC00
FE01FC00
FE01FC00
FE01FC00
FFFE0000
FFFE0000
FFFE0000
FFFE0000
FFFE0000
FFFE0000
FFFE0000
FFFE0000
FE01FC00
FE01FC00
FE01FC00
FE01FC00
FE01FC00
FE01FC00
FE01FC00
FE0003FC
FE0003FC
FE0003FC
FE0003FC
FE0003FC
FE0003FC
FE0003FC
FE0001F8
ENDCHAR
STARTCHAR l
ENCODING 108
SWIDTH 685 0
DWIDTH 36 0
BBX 23 45 7 0
BITMAP
FFFE00
FFFE00
FFFE00
FFFE00
FFFE00
FFFE00
FFFE00
01FE00
00FE00
00FE00
00FE00
00FE00
00FE00
00FE00
00FE00
00FE00
00FE00
00FE00
00FE00
00FE00
00FE00
00FE00
00FE00
00FE00
00FE00
00FE00
00FE00
00FE00
00FE00
00FE00
00FE00
00FE00
00FE00
00FE00
00FE00
00FE00
00FE00
7FFFFE
FFFFFE
FFFFFE
FFFFFE
FFFFFE
FFFFFE
FFFFFE
7FFFFC
ENDCHAR
STARTCHAR m
ENCODING 109
SWIDTH 685 0
DWIDTH 36 0
BBX 30 30 0 0
BITMAP
FE01FC00
FE01FC00
FE01FC00
FE01FC00
FE01FC00
FE01FC00
FE01FC00
FFFFFFFC
FFFFFFFC
FFFFFFFC
FFFFFFFC
FFFFFFFC
FFFFFFFC
FFFFFFFC
FFFFFFFC
FE0003FC
FE0003FC
FE0003FC
FE0003FC
FE0003FC
FE0003FC
FE0003FC
FE0003FC
FE0003FC
FE0003FC
FE0003FC
FE0003FC
FE0003FC
FE0003FC
FE0001F8
ENDCHAR
STARTCHAR n
ENCODING 110
SWIDTH 685 0
DWIDTH 36 0
BBX 30 30 0 0
BITMAP
FFFFFC00
FFFFFC00
FFFFFC00
FFFFFC00
FFFFFC00
FFFFFC00
FFFFFC00
FF0003FC
FE0003FC
FE0003FC
FE0003FC
FE0003FC
FE0003FC
FE0003FC
FE0003FC
FE0003FC
FE0003FC
FE0003FC
FE0003FC
FE0003FC
FE0003FC
FE0003FC
FE0003FC
FE0003FC
FE0003FC
FE0003FC
FE0003FC
FE0003FC
FE0003FC
FE0001F8
ENDCHAR
STARTCHAR o
ENCODING 111
SWIDTH 685 0
DWIDTH 36 0
BBX 30 30 0 0
BITMAP
01FFFC00
01FFFC00
01FFFC00
01FFFC00
01FFFC00
01FFFC00
01FFFC00
FE0003FC
FE0003FC
FE0003FC
FE0003FC
FE0003FC
FE0003FC
FE0003FC
FE0003FC
FE0003FC
FE0003FC
FE0003FC
FE0003FC
FE0003FC
FE0003FC
FE0003FC
01FFFC00
01FFFC00
01FFFC00
01FFFC00
01FFFC00
01FFFC00
01FFFC00
00FFFC00
ENDCHAR
STARTCHAR p
ENCODING 112
SWIDTH 685 0
DWIDTH 36 0
BBX 30 37 0 -7
BITMAP
FFFFFC00
FFFFFC00
FFFFFC00
FFFFFC00
FFFFFC00
FFFFFC00
FFFFFC00
FF0003FC
FE0003FC
FE0003FC
FE0003FC
FE0003FC
FE0003FC
FE0003FC
FE0003FC
FE0003FC
FE0003FC
FE0003FC
FE0003FC
FE0003FC
FE0003FC
FE0003FC
FFFFFC00
FFFFFC00
FFFFFC00
FFFFFC00
FFFFFC00
FFFFFC00
FFFFFC00
FFFFFC00
FE000000
FE000000
FE000000
FE000000
FE000000
FE000000
FE000000
ENDCHAR
STARTCHAR q
ENCODING 113
SWIDTH 685 0
DWIDTH 36 0
BBX 30 37 0 -7
BITMAP
01FFFFFC
01FFFFFC
01FFFFFC
01FFFFFC
01FFFFFC
01FFFFFC
01FFFFFC
FE0003FC
FE0003FC
FE0003FC
FE0003FC
FE0003FC
FE0003FC
FE0003FC
FE0003FC
FE0003FC
FE0003FC
FE0003FC
FE0003FC
FE0003FC
FE0003FC
FE0003FC
01FFFFFC
01FFFFFC
01FFFFFC
01FFFFFC
01FFFFFC
01FFFFFC
01FFFFFC
00FFFFFC
000003FC
000003FC
000003FC
000003FC
000003FC
000003FC
000003FC
ENDCHAR
STARTCHAR r
ENCODING 114
SWIDTH 685 0
DWIDTH 36 0
BBX 30 30 0 0
BITMAP
FFFFFC00
FFFFFC00
FFFFFC00
FFFFFC00
FFFFFC00
FFFFFC00
FFFFFC00
FF0003FC
FE0003FC
FE0003FC
FE0003FC
FE0003FC
FE0003FC
FE0003FC
FE0003FC
FE000000
FE000000
FE000000
FE000000
FE000000
FE000000
FE000000
FE000000
FE000000
FE000000
FE000000
FE000000
FE000000
FE000000
FE000000
ENDCHAR
STARTCHAR s
ENCODING 115
SWIDTH 685 0
DWIDTH 36 0
BBX 30 30 0 0
BITMAP
01FFFFFC
01FFFFFC
01FFFFFC
01FFFFFC
01FFFFFC
01FFFFFC
01FFFFFC
FFFE0000
FFFE0000
FFFE0000
FFFE0000
FFFE0000
FFFE0000
FFFE0000
FFFE0000
0001FFFC
0001FFFC
0001FFFC
0001FFFC
0001FFFC
0001FFFC
0001FFFC
FFFFFC00
FFFFFC00
FFFFFC00
FFFFFC00
FFFFFC00
FFFFFC00
FFFFFC00
FFFFFC00
ENDCHAR
STARTCHAR t
ENCODING 116
SWIDTH 685 0
DWIDTH 36 0
BBX 30 45 0 0
BITMAP
01FE0000
01FE0000
01FE0000
01FE0000
01FE0000
01FE0000
01FE0000
01FE0000
01FE0000
01FE0000
01FE0000
01FE0000
01FE0000
01FE0000
01FE0000
FFFFFC00
FFFFFC00
FFFFFC00
FFFFFC00
FFFFFC00
FFFFFC00
FFFFFC00
01FE0000
01FE0000
01FE0000
01FE0000
01FE0000
01FE0000
01FE0000
01FE0000
01FE0000
01FE0000
01FE0000
01FE0000
01FE0000
01FE0000
01FE0000
0001FFFC
0001FFFC
0001FFFC
0001FFFC
0001FFFC
0001FFFC
0001FFFC
0001FFF8
ENDCHAR
STARTCHAR u
ENCODING 117
SWIDTH 685 0
DWIDTH 36 0
BBX 30 30 0 0
BITMAP
FE0003FC
FE0003FC
FE0003FC
FE0003FC
FE0003FC
FE0003FC
FE0003FC
FE0003FC
FE0003FC
FE0003FC
FE0003FC
FE0003FC
FE0003FC
FE0003FC
FE0003FC
FE0003FC
FE0003FC
FE0003FC
FE0003FC
FE0003FC
FE0003FC
FE0003FC
01FFFFFC
01FFFFFC
01FFFFFC
01FFFFFC
01FFFFFC
01FFFFFC
01FFFFFC
00FFFFF8
ENDCHAR
STARTCHAR v
ENCODING 118
SWIDTH 685 0
DWIDTH 36 0
BBX 23 30 7 0
BITMAP
FF01FE
FF01FE
FF01FE
FF01FE
FF01FE
FF01FE
FF01FE
FF01FE
FF01FE
FF01FE
FF01FE
FF01FE
FF01FE
FF01FE
FF01FE
FF01FE
FF01FE
FF01FE
FF01FE
FF01FE
FF01FE
FF01FE
00FE00
00FE00
00FE00
00FE00
00FE00
00FE00
00FE00
00FE00
ENDCHAR
STARTCHAR w
ENCODING 119
SWIDTH 685 0
DWIDTH 36 0
BBX 30 30 0 0
BITMAP
FE0003FC
FE0003FC
FE0003FC
FE0003FC
FE0003FC
FE0003FC
FE0003FC
FE0003FC
FE0003FC
FE0003FC
FE0003FC
FE0003FC
FE0003FC
FE0003FC
FF0003FC
FFFFFFFC
FFFFFFFC
FFFFFFFC
FFFFFFFC
FFFFFFFC
FFFFFFFC
FFFFFFFC
FFFFFFFC
FFFFFFFC
FFFFFFFC
FFFFFFFC
FFFFFFFC
FFFFFFFC
FFFFFFFC
FFFFFFF8
ENDCHAR
STARTCHAR x
ENCODING 120
SWIDTH 685 0
DWIDTH 36 0
BBX 30 30 0 0
BITMAP
FE0003FC
FE0003FC
FE0003FC
FE0003FC
FE0003FC
FE0003FC
FE0003FC
01FFFC00
01FFFC00
01FFFC00
01FFFC00
01FFFC00
01FFFC00
01FFFC00
01FFFC00
01FFFC00
01FFFC00
01FFFC00
01FFFC00
01FFFC00
01FFFC00
01FFFC00
FE0003FC
FE0003FC
FE0003FC
FE0003FC
FE0003FC
FE0003FC
FE0003FC
FE0001F8
ENDCHAR
STARTCHAR y
ENCODING 121
SWIDTH 685 0
DWIDTH 36 0
BBX 30 37 0 -7
BITMAP
FE0003FC
FE0003FC
FE0003FC
FE0003FC
FE0003FC
FE0003FC
FE0003FC
FE0003FC
FE0003FC
FE0003FC
FE0003FC
FE0003FC
FE0003FC
FE0003FC
FE0003FC
01FE03FC
01FE03FC
01FE03FC
01FE03FC
01FE03FC
01FE03FC
01FE03FC
0001FC00
0001FC00
0001FC00
0001FC00
0001FC00
0001FC00
0001FC00
0001FC00
01FE0000
01FE0000
01FE0000
01FE0000
01FE0000
01FE0000
01FE0000
ENDCHAR
STARTCHAR z
ENCODING 122
SWIDTH 685 0
DWIDTH 36 0
BBX 30 30 0 0
BITMAP
FFFFFFFC
FFFFFFFC
FFFFFFFC
FFFFFFFC
FFFFFFFC
FFFFFFFC
FFFFFFFC
0001FC00
0001FC00
0001FC00
0001FC00
0001FC00
0001FC00
0001FC00
0001FC00
01FE0000
01FE0000
01FE0000
01FE0000
01FE0000
01FE0000
01FE0000
FFFFFFFC
FFFFFFFC
FFFFFFFC
FFFFFFFC
FFFFFFFC
FFFFFFFC
FFFFFFFC
FFFFFFF8
ENDCHAR
STARTCHAR braceleft
ENCODING 123
SWIDTH 685 0
DWIDTH 36 0
BBX 23 45 7 0
BITMAP
0001FE
0001FE
0001FE
0001FE
0001FE
0001FE
0001FE
00FE00
00FE00
00FE00
00FE00
00FE00
00FE00
00FE00
00FE00
FFFE00
FFFE00
FFFE00
FFFE00
FFFE00
FFFE00
FFFE00
00FE00
00FE00
00FE00
00FE00
00FE00
00FE00
00FE00
00FE00
00FE00
00FE00
00FE00
00FE00
00FE00
00FE00
00FE00
0001FE
0001FE
0001FE
0001FE
0001FE
0001FE
0001FE
0000FC
ENDCHAR
STARTCHAR bar
ENCODING 124
SWIDTH 685 0
DWIDTH 36 0
BBX 7 45 15 0
BITMAP
FE
FE
FE
FE
FE
FE
FE
FE
FE
FE
FE
FE
FE
FE
FE
FE
FE
FE
FE
FE
FE
FE
FE
FE
FE
FE
FE
FE
FE
FE
FE
FE
FE
FE
FE
FE
FE
FE
FE
FE
FE
FE
FE
FE
FE
ENDCHAR
STARTCHAR braceright
ENCODING 125
SWIDTH 685 0
DWIDTH 36 0
BBX 23 45 7 0
BITMAP
FF0000
FF0000
FF0000
FF0000
FF0000
FF0000
FF0000
00FE00
00FE00
00FE00
00FE00
00FE00
00FE00
00FE00
00FE00
00FFFE
00FFFE
00FFFE
00FFFE
00FFFE
00FFFE
00FFFE
00FE00
00FE00
00FE00
00FE00
00FE00
00FE00
00FE00
00FE00
00FE00
00FE00
00FE00
00FE00
00FE00
00FE00
00FE00
7F0000
FF0000
FF0000
FF0000
FF0000
FF0000
FF0000
7E0000
ENDCHAR
STARTCHAR asciitilde
ENCODING 126
SWIDTH 685 0
DWIDTH 36 0
BBX 30 15 0 30
BITMAP
01FE03FC
01FE03FC
01FE03FC
01FE03FC
01FE03FC
01FE03FC
01FE03FC
FE01FC00
FE01FC00
FE01FC00
FE01FC00
FE01FC00
FE01FC00
FE01FC00
FE01FC00
ENDCHAR
STARTCHAR space
ENCODING 160
SWIDTH 685 0
DWIDTH 36 0
BBX 1 1 37 -7
BITMAP
00
ENDCHAR
STARTCHAR exclamdown
ENCODING 161
SWIDTH 685 0
DWIDTH 36 0
BBX 7 45 15 0
BITMAP
FE
FE
FE
FE
FE
FE
FE
00
00
00
00
00
00
00
00
FE
FE
FE
FE
FE
FE
FE
FE
FE
FE
FE
FE
FE
FE
FE
FE
FE
FE
FE
FE
FE
FE
FE
FE
FE
FE
FE
FE
FE
FE
ENDCHAR
STARTCHAR cent
ENCODING 162
SWIDTH 685 0
DWIDTH 36 0
BBX 30 45 0 -7
BITMAP
0001FC00
0001FC00
0001FC00
0001FC00
0001FC00
0001FC00
0001FC00
0001FC00
01FFFFFC
01FFFFFC
01FFFFFC
01FFFFFC
01FFFFFC
01FFFFFC
01FFFFFC
FE01FC00
FE01FC00
FE01FC00
FE01FC00
FE01FC00
FE01FC00
FE01FC00
FE01FC00
FE01FC00
FE01FC00
FE01FC00
FE01FC00
FE01FC00
FE01FC00
FE01FC00
01FFFFFC
01FFFFFC
01FFFFFC
01FFFFFC
01FFFFFC
01FFFFFC
01FFFFFC
00FFFFF8
0001FC00
0001FC00
0001FC00
0001FC00
0001FC00
0001FC00
0001FC00
ENDCHAR
STARTCHAR sterling
ENCODING 163
SWIDTH 685 0
DWIDTH 36 0
BBX 30 38 0 0
BITMAP
0001FFF8
0001FFFC
0001FFFC
0001FFFC
0001FFFC
0001FFFC
0001FFFC
0001FFFC
01FE0000
01FE0000
01FE0000
01FE0000
01FE0000
01FE0000
01FE0000
FFFFFC00
FFFFFC00
FFFFFC00
FFFFFC00
FFFFFC00
FFFFFC00
FFFFFC00
FFFFFC00
01FE0000
01FE0000
01FE0000
01FE0000
01FE0000
01FE0000
01FE0000
FE01FFFC
FE01FFFC
FE01FFFC
FE01FFFC
FE01FFFC
FE01FFFC
FE01FFFC
FE01FFF8
ENDCHAR
STARTCHAR currency
ENCODING 164
SWIDTH 685 0
DWIDTH 36 0
BBX 37 38 0 0
BITMAP
FE000003F8
FE000003F8
FE000003F8
FE000003F8
FE000003F8
FE000003F8
FE000003F8
FE000003F8
01FFFFFC00
01FFFFFC00
01FFFFFC00
01FFFFFC00
01FFFFFC00
01FFFFFC00
01FFFFFC00
01FE03FC00
01FE03FC00
01FE03FC00
01FE03FC00
01FE03FC00
01FE03FC00
01FE03FC00
01FE03FC00
01FFFFFC00
01FFFFFC00
01FFFFFC00
01FFFFFC00
01FFFFFC00
01FFFFFC00
01FFFFFC00
FE000003F8
FE000003F8
FE000003F8
FE000003F8
FE000003F8
FE000003F8
FE000003F8
FE000003F8
ENDCHAR
STARTCHAR yen
ENCODING 165
SWIDTH 685 0
DWIDTH 36 0
BBX 23 45 7 0
BITMAP
FF01FE
FF01FE
FF01FE
FF01FE
FF01FE
FF01FE
FF01FE
FF01FE
FF01FE
FF01FE
FF01FE
FF01FE
FF01FE
FF01FE
7F01FE
00FE00
00FE00
00FE00
00FE00
00FE00
00FE00
00FE00
7FFFFE
FFFFFE
FFFFFE
FFFFFE
FFFFFE
FFFFFE
FFFFFE
7FFFFE
00FE00
00FE00
00FE00
00FE00
00FE00
00FE00
00FE00
00FE00
00FE00
00FE00
00FE00
00FE00
00FE00
00FE00
00FE00
ENDCHAR
STARTCHAR brokenbar
ENCODING 166
SWIDTH 685 0
DWIDTH 36 0
BBX 7 38 15 0
BITMAP
FE
FE
FE
FE
FE
FE
FE
FE
FE
FE
FE
FE
FE
FE
FE
00
00
00
00
00
00
00
00
FE
FE
FE
FE
FE
FE
FE
FE
FE
FE
FE
FE
FE
FE
FE
ENDCHAR
STARTCHAR section
ENCODING 167
SWIDTH 685 0
DWIDTH 36 0
BBX 23 52 7 -7
BITMAP
00FFFE
00FFFE
00FFFE
00FFFE
00FFFE
00FFFE
00FFFE
7F0000
FF0000
FF0000
FF0000
FF0000
FF0000
FF0000
FF0000
FFFE00
FFFE00
FFFE00
FFFE00
FFFE00
FFFE00
FFFE00
FF01FE
FF01FE
FF01FE
FF01FE
FF01FE
FF01FE
FF01FE
7F01FE
00FFFE
00FFFE
00FFFE
00FFFE
00FFFE
00FFFE
00FFFE
0001FE
0001FE
0001FE
0001FE
0001FE
0001FE
0001FE
0001FC
FFFE00
FFFE00
FFFE00
FFFE00
FFFE00
FFFE00
FFFE00
ENDCHAR
STARTCHAR dieresis
ENCODING 168
SWIDTH 685 0
DWIDTH 36 0
BBX 23 7 7 38
BITMAP
FF01FE
FF01FE
FF01FE
FF01FE
FF01FE
FF01FE
FF01FE
ENDCHAR
STARTCHAR copyright
ENCODING 169
SWIDTH 685 0
DWIDTH 36 0
BBX 37 52 0 -7
BITMAP
01FFFFFC00
01FFFFFC00
01FFFFFC00
01FFFFFC00
01FFFFFC00
01FFFFFC00
01FFFFFC00
FE000003F8
FE000003F8
FE000003F8
FE000003F8
FE000003F8
FE000003F8
FE000003F8
FE000003F8
FE01FC03F8
FE01FC03F8
FE01FC03F8
FE01FC03F8
FE01FC03F8
FE01FC03F8
FE01FC03F8
FFFE0003F8
FFFE0003F8
FFFE0003F8
FFFE0003F8
FFFE0003F8
FFFE0003F8
FFFE0003F8
FFFE0003F8
FE01FC03F8
FE01FC03F8
FE01FC03F8
FE01FC03F8
FE01FC03F8
FE01FC03F8
FE01FC03F8
FE000003F8
FE000003F8
FE000003F8
FE000003F8
FE000003F8
FE000003F8
FE000003F8
FE000003F8
01FFFFFC00
01FFFFFC00
01FFFFFC00
01FFFFFC00
01FFFFFC00
01FFFFFC00
01FFFFFC00
ENDCHAR
STARTCHAR ordfeminine
ENCODING 170
SWIDTH 685 0
DWIDTH 36 0
BBX 22 22 0 23
BITMAP
01FFFC
01FFFC
01FFFC
01FFFC
01FFFC
01FFFC
01FFFC
FE03FC
FE01FC
FE01FC
FE01FC
FE01FC
FE01FC
FE01FC
FE01FC
01FFFC
01FFFC
01FFFC
01FFFC
01FFFC
01FFFC
01FFFC
ENDCHAR
STARTCHAR guillemotleft
ENCODING 171
SWIDTH 685 0
DWIDTH 36 0
BBX 37 22 0 8
BITMAP
01FE0003F8
01FE0003F8
01FE0003F8
01FE0003F8
01FE0003F8
01FE0003F8
01FE0003F8
FE0003FC00
FE0003FC00
FE0003FC00
FE0003FC00
FE0003FC00
FE0003FC00
FE0003FC00
FE0003FC00
01FE0003F8
01FE0003F8
01FE0003F8
01FE0003F8
01FE0003F8
01FE0003F8
01FE0003F8
ENDCHAR
STARTCHAR logicalnot
ENCODING 172
SWIDTH 685 0
DWIDTH 36 0
BBX 30 15 0 8
BITMAP
FFFFFFFC
FFFFFFFC
FFFFFFFC
FFFFFFFC
FFFFFFFC
FFFFFFFC
FFFFFFFC
FFFFFFFC
000003FC
000003FC
000003FC
000003FC
000003FC
000003FC
000003FC
ENDCHAR
STARTCHAR hyphen
ENCODING 173
SWIDTH 685 0
DWIDTH 36 0
BBX 23 8 7 15
BITMAP
7FFFFE
FFFFFE
FFFFFE
FFFFFE
FFFFFE
FFFFFE
FFFFFE
7FFFFE
ENDCHAR
STARTCHAR registered
ENCODING 174
SWIDTH 685 0
DWIDTH 36 0
BBX 37 52 0 -7
BITMAP
01FFFFFC00
01FFFFFC00
01FFFFFC00
01FFFFFC00
01FFFFFC00
01FFFFFC00
01FFFFFC00
FE000003F8
FE000003F8
FE000003F8
FE000003F8
FE000003F8
FE000003F8
FE000003F8
FF000003F8
FFFFFC03F8
FFFFFC03F8
FFFFFC03F8
FFFFFC03F8
FFFFFC03F8
FFFFFC03F8
FFFFFC03F8
FFFE0003F8
FFFE0003F8
FFFE0003F8
FFFE0003F8
FFFE0003F8
FFFE0003F8
FFFE0003F8
FFFE0003F8
FFFE0003F8
FFFE0003F8
FFFE0003F8
FFFE0003F8
FFFE0003F8
FFFE0003F8
FFFE0003F8
FF000003F8
FE000003F8
FE000003F8
FE000003F8
FE000003F8
FE000003F8
FE000003F8
FE000003F8
01FFFFFC00
01FFFFFC00
01FFFFFC00
01FFFFFC00
01FFFFFC00
01FFFFFC00
01FFFFFC00
ENDCHAR
STARTCHAR macron
ENCODING 175
SWIDTH 685 0
DWIDTH 36 0
BBX 30 7 0 38
BITMAP
FFFFFFFC
FFFFFFFC
FFFFFFFC
FFFFFFFC
FFFFFFFC
FFFFFFFC
FFFFFFFC
ENDCHAR
STARTCHAR degree
ENCODING 176
SWIDTH 685 0
DWIDTH 36 0
BBX 23 22 7 23
BITMAP
00FE00
00FE00
00FE00
00FE00
00FE00
00FE00
00FE00
7F01FC
FF01FE
FF01FE
FF01FE
FF01FE
FF01FE
FF01FE
7F01FE
00FE00
00FE00
00FE00
00FE00
00FE00
00FE00
00FE00
ENDCHAR
STARTCHAR plusminus
ENCODING 177
SWIDTH 685 0
DWIDTH 36 0
BBX 37 45 0 0
BITMAP
0001FC0000
0001FC0000
0001FC0000
0001FC0000
0001FC0000
0001FC0000
0001FC0000
0001FC0000
0001FC0000
0001FC0000
0001FC0000
0001FC0000
0001FC0000
0001FC0000
0001FC0000
FFFFFFFFF8
FFFFFFFFF8
FFFFFFFFF8
FFFFFFFFF8
FFFFFFFFF8
FFFFFFFFF8
FFFFFFFFF8
0001FC0000
0001FC0000
0001FC0000
0001FC0000
0001FC0000
0001FC0000
0001FC0000
0001FC0000
0001FC0000
0001FC0000
0001FC0000
0001FC0000
0001FC0000
0001FC0000
0001FC0000
FFFFFFFFF8
FFFFFFFFF8
FFFFFFFFF8
FFFFFFFFF8
FFFFFFFFF8
FFFFFFFFF8
FFFFFFFFF8
FFFFFFFFF8
ENDCHAR
STARTCHAR twosuperior
ENCODING 178
SWIDTH 685 0
DWIDTH 36 0
BBX 15 30 7 15
BITMAP
FFFE
FFFE
FFFE
FFFE
FFFE
FFFE
FFFE
01FE
00FE
00FE
00FE
00FE
00FE
00FE
00FE
FF00
FF00
FF00
FF00
FF00
FF00
FF00
FFFE
FFFE
FFFE
FFFE
FFFE
FFFE
FFFE
7FFE
ENDCHAR
STARTCHAR threesuperior
ENCODING 179
SWIDTH 685 0
DWIDTH 36 0
BBX 15 30 7 15
BITMAP
FFFE
FFFE
FFFE
FFFE
FFFE
FFFE
FFFE
FFFE
FFFE
FFFE
FFFE
FFFE
FFFE
FFFE
7FFE
00FE
00FE
00FE
00FE
00FE
00FE
00FE
7FFE
FFFE
FFFE
FFFE
FFFE
FFFE
FFFE
7FFE
ENDCHAR
STARTCHAR acute
ENCODING 180
SWIDTH 685 0
DWIDTH 36 0
BBX 15 15 7 30
BITMAP
00FE
00FE
00FE
00FE
00FE
00FE
00FE
7F00
FF00
FF00
FF00
FF00
FF00
FF00
7F00
ENDCHAR
STARTCHAR mu
ENCODING 181
SWIDTH 685 0
DWIDTH 36 0
BBX 30 37 0 -7
BITMAP
FE0003FC
FE0003FC
FE0003FC
FE0003FC
FE0003FC
FE0003FC
FE0003FC
FE0003FC
FE0003FC
FE0003FC
FE0003FC
FE0003FC
FE0003FC
FE0003FC
FE0003FC
FE0003FC
FE0003FC
FE0003FC
FE0003FC
FE0003FC
FE0003FC
FE0003FC
FFFFFC00
FFFFFC00
FFFFFC00
FFFFFC00
FFFFFC00
FFFFFC00
FFFFFC00
FFFFFC00
FE000000
FE000000
FE000000
FE000000
FE000000
FE000000
FE000000
ENDCHAR
STARTCHAR paragraph
ENCODING 182
SWIDTH 685 0
DWIDTH 36 0
BBX 30 45 0 0
BITMAP
01FFFFFC
01FFFFFC
01FFFFFC
01FFFFFC
01FFFFFC
01FFFFFC
01FFFFFC
FFFE03FC
FFFE03FC
FFFE03FC
FFFE03FC
FFFE03FC
FFFE03FC
FFFE03FC
FFFE03FC
FFFE03FC
FFFE03FC
FFFE03FC
FFFE03FC
FFFE03FC
FFFE03FC
FFFE03FC
01FE03FC
01FE03FC
01FE03FC
01FE03FC
01FE03FC
01FE03FC
01FE03FC
01FE03FC
01FE03FC
01FE03FC
01FE03FC
01FE03FC
01FE03FC
01FE03FC
01FE03FC
01FE03FC
01FE03FC
01FE03FC
01FE03FC
01FE03FC
01FE03FC
01FE03FC
00FC01F8
ENDCHAR
STARTCHAR periodcentered
ENCODING 183
SWIDTH 685 0
DWIDTH 36 0
BBX 15 15 7 15
BITMAP
FFFE
FFFE
FFFE
FFFE
FFFE
FFFE
FFFE
FFFE
FFFE
FFFE
FFFE
FFFE
FFFE
FFFE
7FFE
ENDCHAR
STARTCHAR cedilla
ENCODING 184
SWIDTH 685 0
DWIDTH 36 0
BBX 15 15 7 -7
BITMAP
00FE
00FE
00FE
00FE
00FE
00FE
00FE
00FE
FF00
FF00
FF00
FF00
FF00
FF00
FF00
ENDCHAR
STARTCHAR onesuperior
ENCODING 185
SWIDTH 685 0
DWIDTH 36 0
BBX 23 30 7 15
BITMAP
00FE00
00FE00
00FE00
00FE00
00FE00
00FE00
00FE00
7FFE00
FFFE00
FFFE00
FFFE00
FFFE00
FFFE00
FFFE00
7FFE00
00FE00
00FE00
00FE00
00FE00
00FE00
00FE00
00FE00
7FFFFE
FFFFFE
FFFFFE
FFFFFE
FFFFFE
FFFFFE
FFFFFE
7FFFFE
ENDCHAR
STARTCHAR ordmasculine
ENCODING 186
SWIDTH 685 0
DWIDTH 36 0
BBX 22 22 0 23
BITMAP
01FE00
01FE00
01FE00
01FE00
01FE00
01FE00
01FE00
FE01FC
FE01FC
FE01FC
FE01FC
FE01FC
FE01FC
FE01FC
FE01FC
01FE00
01FE00
01FE00
01FE00
01FE00
01FE00
01FE00
ENDCHAR
STARTCHAR guillemotright
ENCODING 187
SWIDTH 685 0
DWIDTH 36 0
BBX 37 22 0 8
BITMAP
FE0003FC00
FE0003FC00
FE0003FC00
FE0003FC00
FE0003FC00
FE0003FC00
FE0003FC00
01FE0003F8
01FE0003F8
01FE0003F8
01FE0003F8
01FE0003F8
01FE0003F8
01FE0003F8
01FE0003F8
FE0003FC00
FE0003FC00
FE0003FC00
FE0003FC00
FE0003FC00
FE0003FC00
FE0003FC00
ENDCHAR
STARTCHAR onequarter
ENCODING 188
SWIDTH 685 0
DWIDTH 36 0
BBX 30 52 0 -7
BITMAP
FE000000
FE000000
FE000000
FE000000
FE000000
FE000000
FE000000
FE000000
FE000000
FE000000
FE000000
FE000000
FE000000
FE000000
FE000000
FE000000
FE000000
FE000000
FE000000
FE000000
FE000000
FE000000
FE0003FC
FE0003FC
FE0003FC
FE0003FC
FE0003FC
FE0003FC
FE0003FC
FE0003FC
0001FFFC
0001FFFC
0001FFFC
0001FFFC
0001FFFC
0001FFFC
0001FFFC
00FFFFFC
01FFFFFC
01FFFFFC
01FFFFFC
01FFFFFC
01FFFFFC
01FFFFFC
00FFFFFC
000003FC
000003FC
000003FC
000003FC
000003FC
000003FC
000003FC
ENDCHAR
STARTCHAR onehalf
ENCODING 189
SWIDTH 685 0
DWIDTH 36 0
BBX 30 52 0 -7
BITMAP
FE000000
FE000000
FE000000
FE000000
FE000000
FE000000
FE000000
FE000000
FE000000
FE000000
FE000000
FE000000
FE000000
FE000000
FE000000
FE000000
FE000000
FE000000
FE000000
FE000000
FE000000
FE000000
FE01FFFC
FE01FFFC
FE01FFFC
FE01FFFC
FE01FFFC
FE01FFFC
FE01FFFC
FE01FFFC
000003FC
000003FC
000003FC
000003FC
000003FC
000003FC
000003FC
0001FC00
0001FC00
0001FC00
0001FC00
0001FC00
0001FC00
0001FC00
0001FE00
0001FFFC
0001FFFC
0001FFFC
0001FFFC
0001FFFC
0001FFFC
0001FFFC
ENDCHAR
STARTCHAR threequarters
ENCODING 190
SWIDTH 685 0
DWIDTH 36 0
BBX 30 52 0 -7
BITMAP
FFFE0000
FFFE0000
FFFE0000
FFFE0000
FFFE0000
FFFE0000
FFFE0000
FFFE0000
FFFE0000
FFFE0000
FFFE0000
FFFE0000
FFFE0000
FFFE0000
FFFE0000
01FE0000
01FE0000
01FE0000
01FE0000
01FE0000
01FE0000
01FE0000
FFFE03FC
FFFE03FC
FFFE03FC
FFFE03FC
FFFE03FC
FFFE03FC
FFFE03FC
FFFE03FC
0001FFFC
0001FFFC
0001FFFC
0001FFFC
0001FFFC
0001FFFC
0001FFFC
00FFFFFC
01FFFFFC
01FFFFFC
01FFFFFC
01FFFFFC
01FFFFFC
01FFFFFC
00FFFFFC
000003FC
000003FC
000003FC
000003FC
000003FC
000003FC
000003FC
ENDCHAR
STARTCHAR questiondown
ENCODING 191
SWIDTH 685 0
DWIDTH 36 0
BBX 23 45 7 0
BITMAP
00FE00
00FE00
00FE00
00FE00
00FE00
00FE00
00FE00
000000
000000
000000
000000
000000
000000
000000
000000
00FE00
00FE00
00FE00
00FE00
00FE00
00FE00
00FE00
7F0000
FF0000
FF0000
FF0000
FF0000
FF0000
FF0000
FF0000
FF01FE
FF01FE
FF01FE
FF01FE
FF01FE
FF01FE
FF01FE
00FE00
00FE00
00FE00
00FE00
00FE00
00FE00
00FE00
00FE00
ENDCHAR
STARTCHAR Agrave
ENCODING 192
SWIDTH 685 0
DWIDTH 36 0
BBX 30 45 0 0
BITMAP
01FFFC00
01FFFC00
01FFFC00
01FFFC00
01FFFC00
01FFFC00
01FFFC00
FE0003F8
FE0003FC
FE0003FC
FE0003FC
FE0003FC
FE0003FC
FE0003FC
FE0003FC
FE0003FC
FE0003FC
FE0003FC
FE0003FC
FE0003FC
FE0003FC
FE0003FC
FFFFFFFC
FFFFFFFC
FFFFFFFC
FFFFFFFC
FFFFFFFC
FFFFFFFC
FFFFFFFC
FFFFFFFC
FE0003FC
FE0003FC
FE0003FC
FE0003FC
FE0003FC
FE0003FC
FE0003FC
FE0003FC
FE0003FC
FE0003FC
FE0003FC
FE0003FC
FE0003FC
FE0003FC
FE0001F8
ENDCHAR
STARTCHAR Aacute
ENCODING 193
SWIDTH 685 0
DWIDTH 36 0
BBX 30 45 0 0
BITMAP
01FFFC00
01FFFC00
01FFFC00
01FFFC00
01FFFC00
01FFFC00
01FFFC00
FE0003F8
FE0003FC
FE0003FC
FE0003FC
FE0003FC
FE0003FC
FE0003FC
FE0003FC
FE0003FC
FE0003FC
FE0003FC
FE0003FC
FE0003FC
FE0003FC
FE0003FC
FFFFFFFC
FFFFFFFC
FFFFFFFC
FFFFFFFC
FFFFFFFC
FFFFFFFC
FFFFFFFC
FFFFFFFC
FE0003FC
FE0003FC
FE0003FC
FE0003FC
FE0003FC
FE0003FC
FE0003FC
FE0003FC
FE0003FC
FE0003FC
FE0003FC
FE0003FC
FE0003FC
FE0003FC
FE0001F8
ENDCHAR
STARTCHAR Acircumflex
ENCODING 194
SWIDTH 685 0
DWIDTH 36 0
BBX 30 45 0 0
BITMAP
01FFFC00
01FFFC00
01FFFC00
01FFFC00
01FFFC00
01FFFC00
01FFFC00
FE0003F8
FE0003FC
FE0003FC
FE0003FC
FE0003FC
FE0003FC
FE0003FC
FE0003FC
FE0003FC
FE0003FC
FE0003FC
FE0003FC
FE0003FC
FE0003FC
FE0003FC
FFFFFFFC
FFFFFFFC
FFFFFFFC
FFFFFFFC
FFFFFFFC
FFFFFFFC
FFFFFFFC
FFFFFFFC
FE0003FC
FE0003FC
FE0003FC
FE0003FC
FE0003FC
FE0003FC
FE0003FC
FE0003FC
FE0003FC
FE0003FC
FE0003FC
FE0003FC
FE0003FC
FE0003FC
FE0001F8
ENDCHAR
STARTCHAR Atilde
ENCODING 195
SWIDTH 685 0
DWIDTH 36 0
BBX 30 45 0 0
BITMAP
01FFFC00
01FFFC00
01FFFC00
01FFFC00
01FFFC00
01FFFC00
01FFFC00
FE0003F8
FE0003FC
FE0003FC
FE0003FC
FE0003FC
FE0003FC
FE0003FC
FE0003FC
FE0003FC
FE0003FC
FE0003FC
FE0003FC
FE0003FC
FE0003FC
FE0003FC
FFFFFFFC
FFFFFFFC
FFFFFFFC
FFFFFFFC
FFFFFFFC
FFFFFFFC
FFFFFFFC
FFFFFFFC
FE0003FC
FE0003FC
FE0003FC
FE0003FC
FE0003FC
FE0003FC
FE0003FC
FE0003FC
FE0003FC
FE0003FC
FE0003FC
FE0003FC
FE0003FC
FE0003FC
FE0001F8
ENDCHAR
STARTCHAR Adieresis
ENCODING 196
SWIDTH 685 0
DWIDTH 36 0
BBX 30 45 0 0
BITMAP
FE0003FC
FE0003FC
FE0003FC
FE0003FC
FE0003FC
FE0003FC
FE0003FC
01FFFC00
01FFFC00
01FFFC00
01FFFC00
01FFFC00
01FFFC00
01FFFC00
01FFFC00
FE0003FC
FE0003FC
FE0003FC
FE0003FC
FE0003FC
FE0003FC
FE0003FC
FFFFFFFC
FFFFFFFC
FFFFFFFC
FFFFFFFC
FFFFFFFC
FFFFFFFC
FFFFFFFC
FFFFFFFC
FE0003FC
FE0003FC
FE0003FC
FE0003FC
FE0003FC
FE0003FC
FE0003FC
FE0003FC
FE0003FC
FE0003FC
FE0003FC
FE0003FC
FE0003FC
FE0003FC
FE0001F8
ENDCHAR
STARTCHAR Aring
ENCODING 197
SWIDTH 685 0
DWIDTH 36 0
BBX 30 45 0 0
BITMAP
01FFFC00
01FFFC00
01FFFC00
01FFFC00
01FFFC00
01FFFC00
01FFFC00
01FFFC00
01FFFC00
01FFFC00
01FFFC00
01FFFC00
01FFFC00
01FFFC00
01FFFC00
FE0003FC
FE0003FC
FE0003FC
FE0003FC
FE0003FC
FE0003FC
FE0003FC
FFFFFFFC
FFFFFFFC
FFFFFFFC
FFFFFFFC
FFFFFFFC
FFFFFFFC
FFFFFFFC
FFFFFFFC
FE0003FC
FE0003FC
FE0003FC
FE0003FC
FE0003FC
FE0003FC
FE0003FC
FE0003FC
FE0003FC
FE0003FC
FE0003FC
FE0003FC
FE0003FC
FE0003FC
FE0001F8
ENDCHAR
STARTCHAR AE
ENCODING 198
SWIDTH 685 0
DWIDTH 36 0
BBX 30 45 0 0
BITMAP
01FFFFFC
01FFFFFC
01FFFFFC
01FFFFFC
01FFFFFC
01FFFFFC
01FFFFFC
FE03FE00
FE01FC00
FE01FC00
FE01FC00
FE01FC00
FE01FC00
FE01FC00
FE01FC00
FE01FFFC
FE01FFFC
FE01FFFC
FE01FFFC
FE01FFFC
FE01FFFC
FE01FFFC
FFFFFC00
FFFFFC00
FFFFFC00
FFFFFC00
FFFFFC00
FFFFFC00
FFFFFC00
FFFFFC00
FE01FC00
FE01FC00
FE01FC00
FE01FC00
FE01FC00
FE01FC00
FE01FC00
FE01FFFC
FE01FFFC
FE01FFFC
FE01FFFC
FE01FFFC
FE01FFFC
FE01FFFC
FE01FFF8
ENDCHAR
STARTCHAR Ccedilla
ENCODING 199
SWIDTH 685 0
DWIDTH 36 0
BBX 30 52 0 -7
BITMAP
01FFFC00
01FFFC00
01FFFC00
01FFFC00
01FFFC00
01FFFC00
01FFFC00
FE0003F8
FE0003FC
FE0003FC
FE0003FC
FE0003FC
FE0003FC
FE0003FC
FE0003FC
FE000000
FE000000
FE000000
FE000000
FE000000
FE000000
FE000000
FE000000
FE000000
FE000000
FE000000
FE000000
FE000000
FE000000
FE000000
FE0003FC
FE0003FC
FE0003FC
FE0003FC
FE0003FC
FE0003FC
FE0003FC
01FFFC00
01FFFC00
01FFFC00
01FFFC00
01FFFC00
01FFFC00
01FFFC00
01FFFC00
01FE0000
01FE0000
01FE0000
01FE0000
01FE0000
01FE0000
01FE0000
ENDCHAR
STARTCHAR Egrave
ENCODING 200
SWIDTH 685 0
DWIDTH 36 0
BBX 30 45 0 0
BITMAP
FFFFFFFC
FFFFFFFC
FFFFFFFC
FFFFFFFC
FFFFFFFC
FFFFFFFC
FFFFFFFC
FF000000
FE000000
FE000000
FE000000
FE000000
FE000000
FE000000
FF000000
FFFFFC00
FFFFFC00
FFFFFC00
FFFFFC00
FFFFFC00
FFFFFC00
FFFFFC00
FF000000
FE000000
FE000000
FE000000
FE000000
FE000000
FE000000
FE000000
FE000000
FE000000
FE000000
FE000000
FE000000
FE000000
FE000000
FFFFFFFC
FFFFFFFC
FFFFFFFC
FFFFFFFC
FFFFFFFC
FFFFFFFC
FFFFFFFC
FFFFFFF8
ENDCHAR
STARTCHAR Eacute
ENCODING 201
SWIDTH 685 0
DWIDTH 36 0
BBX 30 45 0 0
BITMAP
FFFFFFFC
FFFFFFFC
FFFFFFFC
FFFFFFFC
FFFFFFFC
FFFFFFFC
FFFFFFFC
FF000000
FE000000
FE000000
FE000000
FE000000
FE000000
FE000000
FF000000
FFFFFC00
FFFFFC00
FFFFFC00
FFFFFC00
FFFFFC00
FFFFFC00
FFFFFC00
FF000000
FE000000
FE000000
FE000000
FE000000
FE000000
FE000000
FE000000
FE000000
FE000000
FE000000
FE000000
FE000000
FE000000
FE000000
FFFFFFFC
FFFFFFFC
FFFFFFFC
FFFFFFFC
FFFFFFFC
FFFFFFFC
FFFFFFFC
FFFFFFF8
ENDCHAR
STARTCHAR Ecircumflex
ENCODING 202
SWIDTH 685 0
DWIDTH 36 0
BBX 30 45 0 0
BITMAP
FFFFFFFC
FFFFFFFC
FFFFFFFC
FFFFFFFC
FFFFFFFC
FFFFFFFC
FFFFFFFC
FF000000
FE000000
FE000000
FE000000
FE000000
FE000000
FE000000
FF000000
FFFFFC00
FFFFFC00
FFFFFC00
FFFFFC00
FFFFFC00
FFFFFC00
FFFFFC00
FF000000
FE000000
FE000000
FE000000
FE000000
FE000000
FE000000
FE000000
FE000000
FE000000
FE000000
FE000000
FE000000
FE000000
FE000000
FFFFFFFC
FFFFFFFC
FFFFFFFC
FFFFFFFC
FFFFFFFC
FFFFFFFC
FFFFFFFC
FFFFFFF8
ENDCHAR
STARTCHAR Edieresis
ENCODING 203
SWIDTH 685 0
DWIDTH 36 0
BBX 30 45 0 0
BITMAP
FFFFFFFC
FFFFFFFC
FFFFFFFC
FFFFFFFC
FFFFFFFC
FFFFFFFC
FFFFFFFC
FF000000
FE000000
FE000000
FE000000
FE000000
FE000000
FE000000
FF000000
FFFFFC00
FFFFFC00
FFFFFC00
FFFFFC00
FFFFFC00
FFFFFC00
FFFFFC00
FF000000
FE000000
FE000000
FE000000
FE000000
FE000000
FE000000
FE000000
FE000000
FE000000
FE000000
FE000000
FE000000
FE000000
FE000000
FFFFFFFC
FFFFFFFC
FFFFFFFC
FFFFFFFC
FFFFFFFC
FFFFFFFC
FFFFFFFC
FFFFFFF8
ENDCHAR
STARTCHAR Igrave
ENCODING 204
SWIDTH 685 0
DWIDTH 36 0
BBX 23 45 7 0
BITMAP
FFFFFE
FFFFFE
FFFFFE
FFFFFE
FFFFFE
FFFFFE
FFFFFE
01FF00
00FE00
00FE00
00FE00
00FE00
00FE00
00FE00
00FE00
00FE00
00FE00
00FE00
00FE00
00FE00
00FE00
00FE00
00FE00
00FE00
00FE00
00FE00
00FE00
00FE00
00FE00
00FE00
00FE00
00FE00
00FE00
00FE00
00FE00
00FE00
00FE00
7FFFFE
FFFFFE
FFFFFE
FFFFFE
FFFFFE
FFFFFE
FFFFFE
7FFFFC
ENDCHAR
STARTCHAR Iacute
ENCODING 205
SWIDTH 685 0
DWIDTH 36 0
BBX 23 45 7 0
BITMAP
FFFFFE
FFFFFE
FFFFFE
FFFFFE
FFFFFE
FFFFFE
FFFFFE
01FF00
00FE00
00FE00
00FE00
00FE00
00FE00
00FE00
00FE00
00FE00
00FE00
00FE00
00FE00
00FE00
00FE00
00FE00
00FE00
00FE00
00FE00
00FE00
00FE00
00FE00
00FE00
00FE00
00FE00
00FE00
00FE00
00FE00
00FE00
00FE00
00FE00
7FFFFE
FFFFFE
FFFFFE
FFFFFE
FFFFFE
FFFFFE
FFFFFE
7FFFFC
ENDCHAR
STARTCHAR Icircumflex
ENCODING 206
SWIDTH 685 0
DWIDTH 36 0
BBX 23 45 7 0
BITMAP
FFFFFE
FFFFFE
FFFFFE
FFFFFE
FFFFFE
FFFFFE
FFFFFE
01FF00
00FE00
00FE00
00FE00
00FE00
00FE00
00FE00
00FE00
00FE00
00FE00
00FE00
00FE00
00FE00
00FE00
00FE00
00FE00
00FE00
00FE00
00FE00
00FE00
00FE00
00FE00
00FE00
00FE00
00FE00
00FE00
00FE00
00FE00
00FE00
00FE00
7FFFFE
FFFFFE
FFFFFE
FFFFFE
FFFFFE
FFFFFE
FFFFFE
7FFFFC
ENDCHAR
STARTCHAR Idieresis
ENCODING 207
SWIDTH 685 0
DWIDTH 36 0
BBX 23 45 7 0
BITMAP
FFFFFE
FFFFFE
FFFFFE
FFFFFE
FFFFFE
FFFFFE
FFFFFE
01FF00
00FE00
00FE00
00FE00
00FE00
00FE00
00FE00
00FE00
00FE00
00FE00
00FE00
00FE00
00FE00
00FE00
00FE00
00FE00
00FE00
00FE00
00FE00
00FE00
00FE00
00FE00
00FE00
00FE00
00FE00
00FE00
00FE00
00FE00
00FE00
00FE00
7FFFFE
FFFFFE
FFFFFE
FFFFFE
FFFFFE
FFFFFE
FFFFFE
7FFFFC
ENDCHAR
STARTCHAR Eth
ENCODING 208
SWIDTH 685 0
DWIDTH 36 0
BBX 30 45 0 0
BITMAP
FFFFFC00
FFFFFC00
FFFFFC00
FFFFFC00
FFFFFC00
FFFFFC00
FFFFFC00
01FE03F8
01FE03FC
01FE03FC
01FE03FC
01FE03FC
01FE03FC
01FE03FC
01FE03FC
FFFE03FC
FFFE03FC
FFFE03FC
FFFE03FC
FFFE03FC
FFFE03FC
FFFE03FC
01FE03FC
01FE03FC
01FE03FC
01FE03FC
01FE03FC
01FE03FC
01FE03FC
01FE03FC
01FE03FC
01FE03FC
01FE03FC
01FE03FC
01FE03FC
01FE03FC
01FE03FC
FFFFFC00
FFFFFC00
FFFFFC00
FFFFFC00
FFFFFC00
FFFFFC00
FFFFFC00
FFFFFC00
ENDCHAR
STARTCHAR Ntilde
ENCODING 209
SWIDTH 685 0
DWIDTH 36 0
BBX 30 45 0 0
BITMAP
FE01FFFC
FE01FFFC
FE01FFFC
FE01FFFC
FE01FFFC
FE01FFFC
FE01FFFC
FE0003FC
FE0003FC
FE0003FC
FE0003FC
FE0003FC
FE0003FC
FE0003FC
FF0003FC
FFFE03FC
FFFE03FC
FFFE03FC
FFFE03FC
FFFE03FC
FFFE03FC
FFFE03FC
FF01FFFC
FE01FFFC
FE01FFFC
FE01FFFC
FE01FFFC
FE01FFFC
FE01FFFC
FE01FFFC
FE01FFFC
FE01FFFC
FE01FFFC
FE01FFFC
FE01FFFC
FE01FFFC
FE01FFFC
FE0003FC
FE0003FC
FE0003FC
FE0003FC
FE0003FC
FE0003FC
FE0003FC
FE0001F8
ENDCHAR
STARTCHAR Ograve
ENCODING 210
SWIDTH 685 0
DWIDTH 36 0
BBX 30 45 0 0
BITMAP
01FFFC00
01FFFC00
01FFFC00
01FFFC00
01FFFC00
01FFFC00
01FFFC00
FE0003F8
FE0003FC
FE0003FC
FE0003FC
FE0003FC
FE0003FC
FE0003FC
FE0003FC
FE0003FC
FE0003FC
FE0003FC
FE0003FC
FE0003FC
FE0003FC
FE0003FC
FE0003FC
FE0003FC
FE0003FC
FE0003FC
FE0003FC
FE0003FC
FE0003FC
FE0003FC
FE0003FC
FE0003FC
FE0003FC
FE0003FC
FE0003FC
FE0003FC
FE0003FC
01FFFC00
01FFFC00
01FFFC00
01FFFC00
01FFFC00
01FFFC00
01FFFC00
00FFFC00
ENDCHAR
STARTCHAR Oacute
ENCODING 211
SWIDTH 685 0
DWIDTH 36 0
BBX 30 45 0 0
BITMAP
01FFFC00
01FFFC00
01FFFC00
01FFFC00
01FFFC00
01FFFC00
01FFFC00
FE0003F8
FE0003FC
FE0003FC
FE0003FC
FE0003FC
FE0003FC
FE0003FC
FE0003FC
FE0003FC
FE0003FC
FE0003FC
FE0003FC
FE0003FC
FE0003FC
FE0003FC
FE0003FC
FE0003FC
FE0003FC
FE0003FC
FE0003FC
FE0003FC
FE0003FC
FE0003FC
FE0003FC
FE0003FC
FE0003FC
FE0003FC
FE0003FC
FE0003FC
FE0003FC
01FFFC00
01FFFC00
01FFFC00
01FFFC00
01FFFC00
01FFFC00
01FFFC00
00FFFC00
ENDCHAR
STARTCHAR Ocircumflex
ENCODING 212
SWIDTH 685 0
DWIDTH 36 0
BBX 30 45 0 0
BITMAP
01FFFC00
01FFFC00
01FFFC00
01FFFC00
01FFFC00
01FFFC00
01FFFC00
FE0003F8
FE0003FC
FE0003FC
FE0003FC
FE0003FC
FE0003FC
FE0003FC
FE0003FC
FE0003FC
FE0003FC
FE0003FC
FE0003FC
FE0003FC
FE0003FC
FE0003FC
FE0003FC
FE0003FC
FE0003FC
FE0003FC
FE0003FC
FE0003FC
FE0003FC
FE0003FC
FE0003FC
FE0003FC
FE0003FC
FE0003FC
FE0003FC
FE0003FC
FE0003FC
01FFFC00
01FFFC00
01FFFC00
01FFFC00
01FFFC00
01FFFC00
01FFFC00
00FFFC00
ENDCHAR
STARTCHAR Otilde
ENCODING 213
SWIDTH 685 0
DWIDTH 36 0
BBX 30 45 0 0
BITMAP
01FFFC00
01FFFC00
01FFFC00
01FFFC00
01FFFC00
01FFFC00
01FFFC00
FE0003F8
FE0003FC
FE0003FC
FE0003FC
FE0003FC
FE0003FC
FE0003FC
FE0003FC
FE0003FC
FE0003FC
FE0003FC
FE0003FC
FE0003FC
FE0003FC
FE0003FC
FE0003FC
FE0003FC
FE0003FC
FE0003FC
FE0003FC
FE0003FC
FE0003FC
FE0003FC
FE0003FC
FE0003FC
FE0003FC
FE0003FC
FE0003FC
FE0003FC
FE0003FC
01FFFC00
01FFFC00
01FFFC00
01FFFC00
01FFFC00
01FFFC00
01FFFC00
00FFFC00
ENDCHAR
STARTCHAR Odieresis
ENCODING 214
SWIDTH 685 0
DWIDTH 36 0
BBX 30 45 0 0
BITMAP
FE0003FC
FE0003FC
FE0003FC
FE0003FC
FE0003FC
FE0003FC
FE0003FC
01FFFC00
01FFFC00
01FFFC00
01FFFC00
01FFFC00
01FFFC00
01FFFC00
01FFFC00
FE0003FC
FE0003FC
FE0003FC
FE0003FC
FE0003FC
FE0003FC
FE0003FC
FE0003FC
FE0003FC
FE0003FC
FE0003FC
FE0003FC
FE0003FC
FE0003FC
FE0003FC
FE0003FC
FE0003FC
FE0003FC
FE0003FC
FE0003FC
FE0003FC
FE0003FC
01FFFC00
01FFFC00
01FFFC00
01FFFC00
01FFFC00
01FFFC00
01FFFC00
00FFFC00
ENDCHAR
STARTCHAR multiply
ENCODING 215
SWIDTH 685 0
DWIDTH 36 0
BBX 30 30 0 0
BITMAP
FE0003FC
FE0003FC
FE0003FC
FE0003FC
FE0003FC
FE0003FC
FE0003FC
01FFFC00
01FFFC00
01FFFC00
01FFFC00
01FFFC00
01FFFC00
01FFFC00
01FFFC00
01FFFC00
01FFFC00
01FFFC00
01FFFC00
01FFFC00
01FFFC00
01FFFC00
FE0003FC
FE0003FC
FE0003FC
FE0003FC
FE0003FC
FE0003FC
FE0003FC
FE0001F8
ENDCHAR
STARTCHAR Oslash
ENCODING 216
SWIDTH 685 0
DWIDTH 36 0
BBX 30 45 0 0
BITMAP
01FFFFFC
01FFFFFC
01FFFFFC
01FFFFFC
01FFFFFC
01FFFFFC
01FFFFFC
FE03FFFC
FE01FFFC
FE01FFFC
FE01FFFC
FE01FFFC
FE01FFFC
FE01FFFC
FE01FFFC
FE01FFFC
FE01FFFC
FE01FFFC
FE01FFFC
FE01FFFC
FE01FFFC
FE01FFFC
FFFE03FC
FFFE03FC
FFFE03FC
FFFE03FC
FFFE03FC
FFFE03FC
FFFE03FC
FFFE03FC
FFFE03FC
FFFE03FC
FFFE03FC
FFFE03FC
FFFE03FC
FFFE03FC
FFFE03FC
FFFFFC00
FFFFFC00
FFFFFC00
FFFFFC00
FFFFFC00
FFFFFC00
FFFFFC00
FFFFFC00
ENDCHAR
STARTCHAR Ugrave
ENCODING 217
SWIDTH 685 0
DWIDTH 36 0
BBX 30 45 0 0
BITMAP
FE0003FC
FE0003FC
FE0003FC
FE0003FC
FE0003FC
FE0003FC
FE0003FC
FE0003FC
FE0003FC
FE0003FC
FE0003FC
FE0003FC
FE0003FC
FE0003FC
FE0003FC
FE0003FC
FE0003FC
FE0003FC
FE0003FC
FE0003FC
FE0003FC
FE0003FC
FE0003FC
FE0003FC
FE0003FC
FE0003FC
FE0003FC
FE0003FC
FE0003FC
FE0003FC
FE0003FC
FE0003FC
FE0003FC
FE0003FC
FE0003FC
FE0003FC
FE0003FC
01FFFC00
01FFFC00
01FFFC00
01FFFC00
01FFFC00
01FFFC00
01FFFC00
00FFFC00
ENDCHAR
STARTCHAR Uacute
ENCODING 218
SWIDTH 685 0
DWIDTH 36 0
BBX 30 45 0 0
BITMAP
FE0003FC
FE0003FC
FE0003FC
FE0003FC
FE0003FC
FE0003FC
FE0003FC
FE0003FC
FE0003FC
FE0003FC
FE0003FC
FE0003FC
FE0003FC
FE0003FC
FE0003FC
FE0003FC
FE0003FC
FE0003FC
FE0003FC
FE0003FC
FE0003FC
FE0003FC
FE0003FC
FE0003FC
FE0003FC
FE0003FC
FE0003FC
FE0003FC
FE0003FC
FE0003FC
FE0003FC
FE0003FC
FE0003FC
FE0003FC
FE0003FC
FE0003FC
FE0003FC
01FFFC00
01FFFC00
01FFFC00
01FFFC00
01FFFC00
01FFFC00
01FFFC00
00FFFC00
ENDCHAR
STARTCHAR Ucircumflex
ENCODING 219
SWIDTH 685 0
DWIDTH 36 0
BBX 30 45 0 0
BITMAP
FE0003FC
FE0003FC
FE0003FC
FE0003FC
FE0003FC
FE0003FC
FE0003FC
FE0003FC
FE0003FC
FE0003FC
FE0003FC
FE0003FC
FE0003FC
FE0003FC
FE0003FC
FE0003FC
FE0003FC
FE0003FC
FE0003FC
FE0003FC
FE0003FC
FE0003FC
FE0003FC
FE0003FC
FE0003FC
FE0003FC
FE0003FC
FE0003FC
FE0003FC
FE0003FC
FE0003FC
FE0003FC
FE0003FC
FE0003FC
FE0003FC
FE0003FC
FE0003FC
01FFFC00
01FFFC00
01FFFC00
01FFFC00
01FFFC00
01FFFC00
01FFFC00
00FFFC00
ENDCHAR
STARTCHAR Udieresis
ENCODING 220
SWIDTH 685 0
DWIDTH 36 0
BBX 30 45 0 0
BITMAP
FE0003FC
FE0003FC
FE0003FC
FE0003FC
FE0003FC
FE0003FC
FE0003FC
00000000
00000000
00000000
00000000
00000000
00000000
00000000
00000000
FE0003FC
FE0003FC
FE0003FC
FE0003FC
FE0003FC
FE0003FC
FE0003FC
FE0003FC
FE0003FC
FE0003FC
FE0003FC
FE0003FC
FE0003FC
FE0003FC
FE0003FC
FE0003FC
FE0003FC
FE0003FC
FE0003FC
FE0003FC
FE0003FC
FE0003FC
01FFFC00
01FFFC00
01FFFC00
01FFFC00
01FFFC00
01FFFC00
01FFFC00
00FFFC00
ENDCHAR
STARTCHAR Yacute
ENCODING 221
SWIDTH 685 0
DWIDTH 36 0
BBX 23 45 7 0
BITMAP
FF01FE
FF01FE
FF01FE
FF01FE
FF01FE
FF01FE
FF01FE
FF01FE
FF01FE
FF01FE
FF01FE
FF01FE
FF01FE
FF01FE
FF01FE
FF01FE
FF01FE
FF01FE
FF01FE
FF01FE
FF01FE
FF01FE
00FE00
00FE00
00FE00
00FE00
00FE00
00FE00
00FE00
00FE00
00FE00
00FE00
00FE00
00FE00
00FE00
00FE00
00FE00
00FE00
00FE00
00FE00
00FE00
00FE00
00FE00
00FE00
00FE00
ENDCHAR
STARTCHAR Thorn
ENCODING 222
SWIDTH 685 0
DWIDTH 36 0
BBX 30 45 0 0
BITMAP
FE000000
FE000000
FE000000
FE000000
FE000000
FE000000
FE000000
FFFFFC00
FFFFFC00
FFFFFC00
FFFFFC00
FFFFFC00
FFFFFC00
FFFFFC00
FFFFFC00
FE0003FC
FE0003FC
FE0003FC
FE0003FC
FE0003FC
FE0003FC
FE0003FC
FFFFFC00
FFFFFC00
FFFFFC00
FFFFFC00
FFFFFC00
FFFFFC00
FFFFFC00
FFFFFC00
FE000000
FE000000
FE000000
FE000000
FE000000
FE000000
FE000000
FE000000
FE000000
FE000000
FE000000
FE000000
FE000000
FE000000
FE000000
ENDCHAR
STARTCHAR germandbls
ENCODING 223
SWIDTH 685 0
DWIDTH 36 0
BBX 30 45 0 0
BITMAP
01FFFC00
01FFFC00
01FFFC00
01FFFC00
01FFFC00
01FFFC00
01FFFC00
FE0003F8
FE0003FC
FE0003FC
FE0003FC
FE0003FC
FE0003FC
FE0003FC
FE0003FC
FE01FC00
FE01FC00
FE01FC00
FE01FC00
FE01FC00
FE01FC00
FE01FC00
FE0003FC
FE0003FC
FE0003FC
FE0003FC
FE0003FC
FE0003FC
FE0003FC
FE0003FC
FE0003FC
FE0003FC
FE0003FC
FE0003FC
FE0003FC
FE0003FC
FE0003FC
FE01FC00
FE01FC00
FE01FC00
FE01FC00
FE01FC00
FE01FC00
FE01FC00
FE01FC00
ENDCHAR
STARTCHAR agrave
ENCODING 224
SWIDTH 685 0
DWIDTH 36 0
BBX 30 45 0 0
BITMAP
01FE0000
01FE0000
01FE0000
01FE0000
01FE0000
01FE0000
01FE0000
0001FC00
0001FC00
0001FC00
0001FC00
0001FC00
0001FC00
0001FC00
0001FC00
01FFFFFC
01FFFFFC
01FFFFFC
01FFFFFC
01FFFFFC
01FFFFFC
01FFFFFC
FE0003FC
FE0003FC
FE0003FC
FE0003FC
FE0003FC
FE0003FC
FE0003FC
FE0003FC
FE01FFFC
FE01FFFC
FE01FFFC
FE01FFFC
FE01FFFC
FE01FFFC
FE01FFFC
01FE03FC
01FE03FC
01FE03FC
01FE03FC
01FE03FC
01FE03FC
01FE03FC
00FC01F8
ENDCHAR
STARTCHAR aacute
ENCODING 225
SWIDTH 685 0
DWIDTH 36 0
BBX 30 45 0 0
BITMAP
0001FC00
0001FC00
0001FC00
0001FC00
0001FC00
0001FC00
0001FC00
00FE0000
01FE0000
01FE0000
01FE0000
01FE0000
01FE0000
01FE0000
01FE0000
01FFFFFC
01FFFFFC
01FFFFFC
01FFFFFC
01FFFFFC
01FFFFFC
01FFFFFC
FE0003FC
FE0003FC
FE0003FC
FE0003FC
FE0003FC
FE0003FC
FE0003FC
FE0003FC
FE01FFFC
FE01FFFC
FE01FFFC
FE01FFFC
FE01FFFC
FE01FFFC
FE01FFFC
01FE03FC
01FE03FC
01FE03FC
01FE03FC
01FE03FC
01FE03FC
01FE03FC
00FC01F8
ENDCHAR
STARTCHAR acircumflex
ENCODING 226
SWIDTH 685 0
DWIDTH 36 0
BBX 30 45 0 0
BITMAP
0001FC00
0001FC00
0001FC00
0001FC00
0001FC00
0001FC00
0001FC00
00FE03F8
01FE03FC
01FE03FC
01FE03FC
01FE03FC
01FE03FC
01FE03FC
01FE03FC
01FFFFFC
01FFFFFC
01FFFFFC
01FFFFFC
01FFFFFC
01FFFFFC
01FFFFFC
FE0003FC
FE0003FC
FE0003FC
FE0003FC
FE0003FC
FE0003FC
FE0003FC
FE0003FC
FE01FFFC
FE01FFFC
FE01FFFC
FE01FFFC
FE01FFFC
FE01FFFC
FE01FFFC
01FE03FC
01FE03FC
01FE03FC
01FE03FC
01FE03FC
01FE03FC
01FE03FC
00FC01F8
ENDCHAR
STARTCHAR atilde
ENCODING 227
SWIDTH 685 0
DWIDTH 36 0
BBX 30 45 0 0
BITMAP
01FE03FC
01FE03FC
01FE03FC
01FE03FC
01FE03FC
01FE03FC
01FE03FC
FE01FC00
FE01FC00
FE01FC00
FE01FC00
FE01FC00
FE01FC00
FE01FC00
FE01FC00
01FFFFFC
01FFFFFC
01FFFFFC
01FFFFFC
01FFFFFC
01FFFFFC
01FFFFFC
FE0003FC
FE0003FC
FE0003FC
FE0003FC
FE0003FC
FE0003FC
FE0003FC
FE0003FC
FE01FFFC
FE01FFFC
FE01FFFC
FE01FFFC
FE01FFFC
FE01FFFC
FE01FFFC
01FE03FC
01FE03FC
01FE03FC
01FE03FC
01FE03FC
01FE03FC
01FE03FC
00FC01F8
ENDCHAR
STARTCHAR adieresis
ENCODING 228
SWIDTH 685 0
DWIDTH 36 0
BBX 30 45 0 0
BITMAP
01FE03FC
01FE03FC
01FE03FC
01FE03FC
01FE03FC
01FE03FC
01FE03FC
00000000
00000000
00000000
00000000
00000000
00000000
00000000
00000000
01FFFFFC
01FFFFFC
01FFFFFC
01FFFFFC
01FFFFFC
01FFFFFC
01FFFFFC
FE0003FC
FE0003FC
FE0003FC
FE0003FC
FE0003FC
FE0003FC
FE0003FC
FE0003FC
FE01FFFC
FE01FFFC
FE01FFFC
FE01FFFC
FE01FFFC
FE01FFFC
FE01FFFC
01FE03FC
01FE03FC
01FE03FC
01FE03FC
01FE03FC
01FE03FC
01FE03FC
00FC01F8
ENDCHAR
STARTCHAR aring
ENCODING 229
SWIDTH 685 0
DWIDTH 36 0
BBX 30 45 0 0
BITMAP
01FFFC00
01FFFC00
01FFFC00
01FFFC00
01FFFC00
01FFFC00
01FFFC00
01FFFC00
01FFFC00
01FFFC00
01FFFC00
01FFFC00
01FFFC00
01FFFC00
01FFFC00
01FFFFFC
01FFFFFC
01FFFFFC
01FFFFFC
01FFFFFC
01FFFFFC
01FFFFFC
FE0003FC
FE0003FC
FE0003FC
FE0003FC
FE0003FC
FE0003FC
FE0003FC
FE0003FC
FE01FFFC
FE01FFFC
FE01FFFC
FE01FFFC
FE01FFFC
FE01FFFC
FE01FFFC
01FE03FC
01FE03FC
01FE03FC
01FE03FC
01FE03FC
01FE03FC
01FE03FC
00FC01F8
ENDCHAR
STARTCHAR ae
ENCODING 230
SWIDTH 685 0
DWIDTH 36 0
BBX 30 30 0 0
BITMAP
01FFFFFC
01FFFFFC
01FFFFFC
01FFFFFC
01FFFFFC
01FFFFFC
01FFFFFC
FE01FFFC
FE01FFFC
FE01FFFC
FE01FFFC
FE01FFFC
FE01FFFC
FE01FFFC
FE01FFFC
FE01FC00
FE01FC00
FE01FC00
FE01FC00
FE01FC00
FE01FC00
FE01FC00
01FFFFFC
01FFFFFC
01FFFFFC
01FFFFFC
01FFFFFC
01FFFFFC
01FFFFFC
00FFFFF8
ENDCHAR
STARTCHAR ccedilla
ENCODING 231
SWIDTH 685 0
DWIDTH 36 0
BBX 23 37 7 -7
BITMAP
00FFFE
00FFFE
00FFFE
00FFFE
00FFFE
00FFFE
00FFFE
7F0000
FF0000
FF0000
FF0000
FF0000
FF0000
FF0000
FF0000
FF0000
FF0000
FF0000
FF0000
FF0000
FF0000
FF0000
00FFFE
00FFFE
00FFFE
00FFFE
00FFFE
00FFFE
00FFFE
00FFFC
00FE00
00FE00
00FE00
00FE00
00FE00
00FE00
00FE00
ENDCHAR
STARTCHAR egrave
ENCODING 232
SWIDTH 685 0
DWIDTH 36 0
BBX 30 45 0 0
BITMAP
01FE0000
01FE0000
01FE0000
01FE0000
01FE0000
01FE0000
01FE0000
0001FC00
0001FC00
0001FC00
0001FC00
0001FC00
0001FC00
0001FC00
0001FC00
01FFFC00
01FFFC00
01FFFC00
01FFFC00
01FFFC00
01FFFC00
01FFFC00
FE01FFFC
FE01FFFC
FE01FFFC
FE01FFFC
FE01FFFC
FE01FFFC
FE01FFFC
FF01FFFC
FFFE0000
FFFE0000
FFFE0000
FFFE0000
FFFE0000
FFFE0000
FFFE0000
01FFFC00
01FFFC00
01FFFC00
01FFFC00
01FFFC00
01FFFC00
01FFFC00
00FFFC00
ENDCHAR
STARTCHAR eacute
ENCODING 233
SWIDTH 685 0
DWIDTH 36 0
BBX 30 45 0 0
BITMAP
0001FC00
0001FC00
0001FC00
0001FC00
0001FC00
0001FC00
0001FC00
00FE0000
01FE0000
01FE0000
01FE0000
01FE0000
01FE0000
01FE0000
01FE0000
01FFFC00
01FFFC00
01FFFC00
01FFFC00
01FFFC00
01FFFC00
01FFFC00
FE01FFFC
FE01FFFC
FE01FFFC
FE01FFFC
FE01FFFC
FE01FFFC
FE01FFFC
FF01FFFC
FFFE0000
FFFE0000
FFFE0000
FFFE0000
FFFE0000
FFFE0000
FFFE0000
01FFFC00
01FFFC00
01FFFC00
01FFFC00
01FFFC00
01FFFC00
01FFFC00
00FFFC00
ENDCHAR
STARTCHAR ecircumflex
ENCODING 234
SWIDTH 685 0
DWIDTH 36 0
BBX 30 45 0 0
BITMAP
01FE0000
01FE0000
01FE0000
01FE0000
01FE0000
01FE0000
01FE0000
FE01FC00
FE01FC00
FE01FC00
FE01FC00
FE01FC00
FE01FC00
FE01FC00
FE01FC00
01FFFC00
01FFFC00
01FFFC00
01FFFC00
01FFFC00
01FFFC00
01FFFC00
FE01FFFC
FE01FFFC
FE01FFFC
FE01FFFC
FE01FFFC
FE01FFFC
FE01FFFC
FF01FFFC
FFFE0000
FFFE0000
FFFE0000
FFFE0000
FFFE0000
FFFE0000
FFFE0000
01FFFC00
01FFFC00
01FFFC00
01FFFC00
01FFFC00
01FFFC00
01FFFC00
00FFFC00
ENDCHAR
STARTCHAR edieresis
ENCODING 235
SWIDTH 685 0
DWIDTH 36 0
BBX 30 45 0 0
BITMAP
FE01FC00
FE01FC00
FE01FC00
FE01FC00
FE01FC00
FE01FC00
FE01FC00
00000000
00000000
00000000
00000000
00000000
00000000
00000000
00000000
01FFFC00
01FFFC00
01FFFC00
01FFFC00
01FFFC00
01FFFC00
01FFFC00
FE01FFFC
FE01FFFC
FE01FFFC
FE01FFFC
FE01FFFC
FE01FFFC
FE01FFFC
FF01FFFC
FFFE0000
FFFE0000
FFFE0000
FFFE0000
FFFE0000
FFFE0000
FFFE0000
01FFFC00
01FFFC00
01FFFC00
01FFFC00
01FFFC00
01FFFC00
01FFFC00
00FFFC00
ENDCHAR
STARTCHAR igrave
ENCODING 236
SWIDTH 685 0
DWIDTH 36 0
BBX 23 45 7 0
BITMAP
FF0000
FF0000
FF0000
FF0000
FF0000
FF0000
FF0000
00FE00
00FE00
00FE00
00FE00
00FE00
00FE00
00FE00
00FE00
FFFE00
FFFE00
FFFE00
FFFE00
FFFE00
FFFE00
FFFE00
00FE00
00FE00
00FE00
00FE00
00FE00
00FE00
00FE00
00FE00
00FE00
00FE00
00FE00
00FE00
00FE00
00FE00
00FE00
7FFFFE
FFFFFE
FFFFFE
FFFFFE
FFFFFE
FFFFFE
FFFFFE
7FFFFC
ENDCHAR
STARTCHAR iacute
ENCODING 237
SWIDTH 685 0
DWIDTH 36 0
BBX 23 45 7 0
BITMAP
00FE00
00FE00
00FE00
00FE00
00FE00
00FE00
00FE00
7F0000
FF0000
FF0000
FF0000
FF0000
FF0000
FF0000
FF0000
FFFE00
FFFE00
FFFE00
FFFE00
FFFE00
FFFE00
FFFE00
00FE00
00FE00
00FE00
00FE00
00FE00
00FE00
00FE00
00FE00
00FE00
00FE00
00FE00
00FE00
00FE00
00FE00
00FE00
7FFFFE
FFFFFE
FFFFFE
FFFFFE
FFFFFE
FFFFFE
FFFFFE
7FFFFC
ENDCHAR
STARTCHAR icircumflex
ENCODING 238
SWIDTH 685 0
DWIDTH 36 0
BBX 23 45 7 0
BITMAP
00FE00
00FE00
00FE00
00FE00
00FE00
00FE00
00FE00
7F01FC
FF01FE
FF01FE
FF01FE
FF01FE
FF01FE
FF01FE
FF01FE
FFFE00
FFFE00
FFFE00
FFFE00
FFFE00
FFFE00
FFFE00
00FE00
00FE00
00FE00
00FE00
00FE00
00FE00
00FE00
00FE00
00FE00
00FE00
00FE00
00FE00
00FE00
00FE00
00FE00
7FFFFE
FFFFFE
FFFFFE
FFFFFE
FFFFFE
FFFFFE
FFFFFE
7FFFFC
ENDCHAR
STARTCHAR idieresis
ENCODING 239
SWIDTH 685 0
DWIDTH 36 0
BBX 23 45 7 0
BITMAP
FF01FE
FF01FE
FF01FE
FF01FE
FF01FE
FF01FE
FF01FE
000000
000000
000000
000000
000000
000000
000000
000000
FFFE00
FFFE00
FFFE00
FFFE00
FFFE00
FFFE00
FFFE00
00FE00
00FE00
00FE00
00FE00
00FE00
00FE00
00FE00
00FE00
00FE00
00FE00
00FE00
00FE00
00FE00
00FE00
00FE00
7FFFFE
FFFFFE
FFFFFE
FFFFFE
FFFFFE
FFFFFE
FFFFFE
7FFFFC
ENDCHAR
STARTCHAR eth
ENCODING 240
SWIDTH 685 0
DWIDTH 36 0
BBX 30 45 0 0
BITMAP
01FE0000
01FE0000
01FE0000
01FE0000
01FE0000
01FE0000
01FE0000
0001FFF8
0001FFFC
0001FFFC
0001FFFC
0001FFFC
0001FFFC
0001FFFC
0001FFFC
01FFFC00
01FFFC00
01FFFC00
01FFFC00
01FFFC00
01FFFC00
01FFFC00
FE0003FC
FE0003FC
FE0003FC
FE0003FC
FE0003FC
FE0003FC
FE0003FC
FE0003FC
FE0003FC
FE0003FC
FE0003FC
FE0003FC
FE0003FC
FE0003FC
FE0003FC
01FFFC00
01FFFC00
01FFFC00
01FFFC00
01FFFC00
01FFFC00
01FFFC00
00FFFC00
ENDCHAR
STARTCHAR ntilde
ENCODING 241
SWIDTH 685 0
DWIDTH 36 0
BBX 30 45 0 0
BITMAP
01FE03FC
01FE03FC
01FE03FC
01FE03FC
01FE03FC
01FE03FC
01FE03FC
FE01FC00
FE01FC00
FE01FC00
FE01FC00
FE01FC00
FE01FC00
FE01FC00
FF01FC00
FFFFFC00
FFFFFC00
FFFFFC00
FFFFFC00
FFFFFC00
FFFFFC00
FFFFFC00
FF0003FC
FE0003FC
FE0003FC
FE0003FC
FE0003FC
FE0003FC
FE0003FC
FE0003FC
FE0003FC
FE0003FC
FE0003FC
FE0003FC
FE0003FC
FE0003FC
FE0003FC
FE0003FC
FE0003FC
FE0003FC
FE0003FC
FE0003FC
FE0003FC
FE0003FC
FE0001F8
ENDCHAR
STARTCHAR ograve
ENCODING 242
SWIDTH 685 0
DWIDTH 36 0
BBX 30 45 0 0
BITMAP
01FE0000
01FE0000
01FE0000
01FE0000
01FE0000
01FE0000
01FE0000
0001FC00
0001FC00
0001FC00
0001FC00
0001FC00
0001FC00
0001FC00
0001FC00
01FFFC00
01FFFC00
01FFFC00
01FFFC00
01FFFC00
01FFFC00
01FFFC00
FE0003FC
FE0003FC
FE0003FC
FE0003FC
FE0003FC
FE0003FC
FE0003FC
FE0003FC
FE0003FC
FE0003FC
FE0003FC
FE0003FC
FE0003FC
FE0003FC
FE0003FC
01FFFC00
01FFFC00
01FFFC00
01FFFC00
01FFFC00
01FFFC00
01FFFC00
00FFFC00
ENDCHAR
STARTCHAR oacute
ENCODING 243
SWIDTH 685 0
DWIDTH 36 0
BBX 30 45 0 0
BITMAP
0001FC00
0001FC00
0001FC00
0001FC00
0001FC00
0001FC00
0001FC00
00FE0000
01FE0000
01FE0000
01FE0000
01FE0000
01FE0000
01FE0000
01FE0000
01FFFC00
01FFFC00
01FFFC00
01FFFC00
01FFFC00
01FFFC00
01FFFC00
FE0003FC
FE0003FC
FE0003FC
FE0003FC
FE0003FC
FE0003FC
FE0003FC
FE0003FC
FE0003FC
FE0003FC
FE0003FC
FE0003FC
FE0003FC
FE0003FC
FE0003FC
01FFFC00
01FFFC00
01FFFC00
01FFFC00
01FFFC00
01FFFC00
01FFFC00
00FFFC00
ENDCHAR
STARTCHAR ocircumflex
ENCODING 244
SWIDTH 685 0
DWIDTH 36 0
BBX 30 45 0 0
BITMAP
01FFFC00
01FFFC00
01FFFC00
01FFFC00
01FFFC00
01FFFC00
01FFFC00
00000000
00000000
00000000
00000000
00000000
00000000
00000000
00000000
01FFFC00
01FFFC00
01FFFC00
01FFFC00
01FFFC00
01FFFC00
01FFFC00
FE0003FC
FE0003FC
FE0003FC
FE0003FC
FE0003FC
FE0003FC
FE0003FC
FE0003FC
FE0003FC
FE0003FC
FE0003FC
FE0003FC
FE0003FC
FE0003FC
FE0003FC
01FFFC00
01FFFC00
01FFFC00
01FFFC00
01FFFC00
01FFFC00
01FFFC00
00FFFC00
ENDCHAR
STARTCHAR otilde
ENCODING 245
SWIDTH 685 0
DWIDTH 36 0
BBX 30 45 0 0
BITMAP
01FE03FC
01FE03FC
01FE03FC
01FE03FC
01FE03FC
01FE03FC
01FE03FC
FE01FC00
FE01FC00
FE01FC00
FE01FC00
FE01FC00
FE01FC00
FE01FC00
FE01FC00
01FFFC00
01FFFC00
01FFFC00
01FFFC00
01FFFC00
01FFFC00
01FFFC00
FE0003FC
FE0003FC
FE0003FC
FE0003FC
FE0003FC
FE0003FC
FE0003FC
FE0003FC
FE0003FC
FE0003FC
FE0003FC
FE0003FC
FE0003FC
FE0003FC
FE0003FC
01FFFC00
01FFFC00
01FFFC00
01FFFC00
01FFFC00
01FFFC00
01FFFC00
00FFFC00
ENDCHAR
STARTCHAR odieresis
ENCODING 246
SWIDTH 685 0
DWIDTH 36 0
BBX 30 45 0 0
BITMAP
01FE03FC
01FE03FC
01FE03FC
01FE03FC
01FE03FC
01FE03FC
01FE03FC
00000000
00000000
00000000
00000000
00000000
00000000
00000000
00000000
01FFFC00
01FFFC00
01FFFC00
01FFFC00
01FFFC00
01FFFC00
01FFFC00
FE0003FC
FE0003FC
FE0003FC
FE0003FC
FE0003FC
FE0003FC
FE0003FC
FE0003FC
FE0003FC
FE0003FC
FE0003FC
FE0003FC
FE0003FC
FE0003FC
FE0003FC
01FFFC00
01FFFC00
01FFFC00
01FFFC00
01FFFC00
01FFFC00
01FFFC00
00FFFC00
ENDCHAR
STARTCHAR divide
ENCODING 247
SWIDTH 685 0
DWIDTH 36 0
BBX 30 38 0 0
BITMAP
00FFFC00
01FFFC00
01FFFC00
01FFFC00
01FFFC00
01FFFC00
01FFFC00
00FFFC00
00000000
00000000
00000000
00000000
00000000
00000000
00000000
FFFFFFFC
FFFFFFFC
FFFFFFFC
FFFFFFFC
FFFFFFFC
FFFFFFFC
FFFFFFFC
FFFFFFFC
00000000
00000000
00000000
00000000
00000000
00000000
00000000
00FFFC00
01FFFC00
01FFFC00
01FFFC00
01FFFC00
01FFFC00
01FFFC00
00FFFC00
ENDCHAR
STARTCHAR oslash
ENCODING 248
SWIDTH 685 0
DWIDTH 36 0
BBX 30 30 0 0
BITMAP
01FFFFFC
01FFFFFC
01FFFFFC
01FFFFFC
01FFFFFC
01FFFFFC
01FFFFFC
FE01FFFC
FE01FFFC
FE01FFFC
FE01FFFC
FE01FFFC
FE01FFFC
FE01FFFC
FF01FFFC
FFFE03FC
FFFE03FC
FFFE03FC
FFFE03FC
FFFE03FC
FFFE03FC
FFFE03FC
FFFFFC00
FFFFFC00
FFFFFC00
FFFFFC00
FFFFFC00
FFFFFC00
FFFFFC00
FFFFFC00
ENDCHAR
STARTCHAR ugrave
ENCODING 249
SWIDTH 685 0
DWIDTH 36 0
BBX 30 45 0 0
BITMAP
01FE0000
01FE0000
01FE0000
01FE0000
01FE0000
01FE0000
01FE0000
0001FC00
0001FC00
0001FC00
0001FC00
0001FC00
0001FC00
0001FC00
0001FC00
FE0003FC
FE0003FC
FE0003FC
FE0003FC
FE0003FC
FE0003FC
FE0003FC
FE0003FC
FE0003FC
FE0003FC
FE0003FC
FE0003FC
FE0003FC
FE0003FC
FE0003FC
FE0003FC
FE0003FC
FE0003FC
FE0003FC
FE0003FC
FE0003FC
FE0003FC
01FFFFFC
01FFFFFC
01FFFFFC
01FFFFFC
01FFFFFC
01FFFFFC
01FFFFFC
00FFFFF8
ENDCHAR
STARTCHAR uacute
ENCODING 250
SWIDTH 685 0
DWIDTH 36 0
BBX 30 45 0 0
BITMAP
0001FC00
0001FC00
0001FC00
0001FC00
0001FC00
0001FC00
0001FC00
00FE0000
01FE0000
01FE0000
01FE0000
01FE0000
01FE0000
01FE0000
01FE0000
FE0003FC
FE0003FC
FE0003FC
FE0003FC
FE0003FC
FE0003FC
FE0003FC
FE0003FC
FE0003FC
FE0003FC
FE0003FC
FE0003FC
FE0003FC
FE0003FC
FE0003FC
FE0003FC
FE0003FC
FE0003FC
FE0003FC
FE0003FC
FE0003FC
FE0003FC
01FFFFFC
01FFFFFC
01FFFFFC
01FFFFFC
01FFFFFC
01FFFFFC
01FFFFFC
00FFFFF8
ENDCHAR
STARTCHAR ucircumflex
ENCODING 251
SWIDTH 685 0
DWIDTH 36 0
BBX 30 45 0 0
BITMAP
01FFFC00
01FFFC00
01FFFC00
01FFFC00
01FFFC00
01FFFC00
01FFFC00
00000000
00000000
00000000
00000000
00000000
00000000
00000000
00000000
FE0003FC
FE0003FC
FE0003FC
FE0003FC
FE0003FC
FE0003FC
FE0003FC
FE0003FC
FE0003FC
FE0003FC
FE0003FC
FE0003FC
FE0003FC
FE0003FC
FE0003FC
FE0003FC
FE0003FC
FE0003FC
FE0003FC
FE0003FC
FE0003FC
FE0003FC
01FFFFFC
01FFFFFC
01FFFFFC
01FFFFFC
01FFFFFC
01FFFFFC
01FFFFFC
00FFFFF8
ENDCHAR
STARTCHAR udieresis
ENCODING 252
SWIDTH 685 0
DWIDTH 36 0
BBX 30 45 0 0
BITMAP
01FE03FC
01FE03FC
01FE03FC
01FE03FC
01FE03FC
01FE03FC
01FE03FC
00000000
00000000
00000000
00000000
00000000
00000000
00000000
00000000
FE0003FC
FE0003FC
FE0003FC
FE0003FC
FE0003FC
FE0003FC
FE0003FC
FE0003FC
FE0003FC
FE0003FC
FE0003FC
FE0003FC
FE0003FC
FE0003FC
FE0003FC
FE0003FC
FE0003FC
FE0003FC
FE0003FC
FE0003FC
FE0003FC
FE0003FC
01FFFFFC
01FFFFFC
01FFFFFC
01FFFFFC
01FFFFFC
01FFFFFC
01FFFFFC
00FFFFF8
ENDCHAR
STARTCHAR yacute
ENCODING 253
SWIDTH 685 0
DWIDTH 36 0
BBX 30 52 0 -7
BITMAP
0001FC00
0001FC00
0001FC00
0001FC00
0001FC00
0001FC00
0001FC00
00FE0000
01FE0000
01FE0000
01FE0000
01FE0000
01FE0000
01FE0000
01FE0000
FE0003FC
FE0003FC
FE0003FC
FE0003FC
FE0003FC
FE0003FC
FE0003FC
FE0003FC
FE0003FC
FE0003FC
FE0003FC
FE0003FC
FE0003FC
FE0003FC
FE0003FC
01FE03FC
01FE03FC
01FE03FC
01FE03FC
01FE03FC
01FE03FC
01FE03FC
0001FC00
0001FC00
0001FC00
0001FC00
0001FC00
0001FC00
0001FC00
0001FC00
01FE0000
01FE0000
01FE0000
01FE0000
01FE0000
01FE0000
01FE0000
ENDCHAR
STARTCHAR thorn
ENCODING 254
SWIDTH 685 0
DWIDTH 36 0
BBX 30 45 0 -7
BITMAP
FE000000
FE000000
FE000000
FE000000
FE000000
FE000000
FE000000
FF000000
FFFFFC00
FFFFFC00
FFFFFC00
FFFFFC00
FFFFFC00
FFFFFC00
FFFFFC00
FF0003FC
FE0003FC
FE0003FC
FE0003FC
FE0003FC
FE0003FC
FE0003FC
FE0003FC
FE0003FC
FE0003FC
FE0003FC
FE0003FC
FE0003FC
FE0003FC
FE0003FC
FFFFFC00
FFFFFC00
FFFFFC00
FFFFFC00
FFFFFC00
FFFFFC00
FFFFFC00
FFFFFC00
FE000000
FE000000
FE000000
FE000000
FE000000
FE000000
FE000000
ENDCHAR
STARTCHAR ydieresis
ENCODING 255
SWIDTH 685 0
DWIDTH 36 0
BBX 30 52 0 -7
BITMAP
01FE03FC
01FE03FC
01FE03FC
01FE03FC
01FE03FC
01FE03FC
01FE03FC
00000000
00000000
00000000
00000000
00000000
00000000
00000000
00000000
FE0003FC
FE0003FC
FE0003FC
FE0003FC
FE0003FC
FE0003FC
FE0003FC
FE0003FC
FE0003FC
FE0003FC
FE0003FC
FE0003FC
FE0003FC
FE0003FC
FE0003FC
01FE03FC
01FE03FC
01FE03FC
01FE03FC
01FE03FC
01FE03FC
01FE03FC
0001FC00
0001FC00
0001FC00
0001FC00
0001FC00
0001FC00
0001FC00
0001FC00
01FE0000
01FE0000
01FE0000
01FE0000
01FE0000
01FE0000
01FE0000
ENDCHAR
STARTCHAR Amacron
ENCODING 256
SWIDTH 685 0
DWIDTH 36 0
BBX 30 45 0 0
BITMAP
01FFFC00
01FFFC00
01FFFC00
01FFFC00
01FFFC00
01FFFC00
01FFFC00
FE0003F8
FE0003FC
FE0003FC
FE0003FC
FE0003FC
FE0003FC
FE0003FC
FE0003FC
FE0003FC
FE0003FC
FE0003FC
FE0003FC
FE0003FC
FE0003FC
FE0003FC
FFFFFFFC
FFFFFFFC
FFFFFFFC
FFFFFFFC
FFFFFFFC
FFFFFFFC
FFFFFFFC
FFFFFFFC
FE0003FC
FE0003FC
FE0003FC
FE0003FC
FE0003FC
FE0003FC
FE0003FC
FE0003FC
FE0003FC
FE0003FC
FE0003FC
FE0003FC
FE0003FC
FE0003FC
FE0001F8
ENDCHAR
STARTCHAR amacron
ENCODING 257
SWIDTH 685 0
DWIDTH 36 0
BBX 30 45 0 0
BITMAP
01FFFFFC
01FFFFFC
01FFFFFC
01FFFFFC
01FFFFFC
01FFFFFC
01FFFFFC
00000000
00000000
00000000
00000000
00000000
00000000
00000000
00000000
01FFFFFC
01FFFFFC
01FFFFFC
01FFFFFC
01FFFFFC
01FFFFFC
01FFFFFC
FE0003FC
FE0003FC
FE0003FC
FE0003FC
FE0003FC
FE0003FC
FE0003FC
FE0003FC
FE01FFFC
FE01FFFC
FE01FFFC
FE01FFFC
FE01FFFC
FE01FFFC
FE01FFFC
01FE03FC
01FE03FC
01FE03FC
01FE03FC
01FE03FC
01FE03FC
01FE03FC
00FC01F8
ENDCHAR
STARTCHAR Abreve
ENCODING 258
SWIDTH 685 0
DWIDTH 36 0
BBX 30 45 0 0
BITMAP
01FFFC00
01FFFC00
01FFFC00
01FFFC00
01FFFC00
01FFFC00
01FFFC00
FE0003F8
FE0003FC
FE0003FC
FE0003FC
FE0003FC
FE0003FC
FE0003FC
FE0003FC
FE0003FC
FE0003FC
FE0003FC
FE0003FC
FE0003FC
FE0003FC
FE0003FC
FFFFFFFC
FFFFFFFC
FFFFFFFC
FFFFFFFC
FFFFFFFC
FFFFFFFC
FFFFFFFC
FFFFFFFC
FE0003FC
FE0003FC
FE0003FC
FE0003FC
FE0003FC
FE0003FC
FE0003FC
FE0003FC
FE0003FC
FE0003FC
FE0003FC
FE0003FC
FE0003FC
FE0003FC
FE0001F8
ENDCHAR
STARTCHAR abreve
ENCODING 259
SWIDTH 685 0
DWIDTH 36 0
BBX 30 45 0 0
BITMAP
FE0003FC
FE0003FC
FE0003FC
FE0003FC
FE0003FC
FE0003FC
FE0003FC
01FFFC00
01FFFC00
01FFFC00
01FFFC00
01FFFC00
01FFFC00
01FFFC00
01FFFC00
01FFFFFC
01FFFFFC
01FFFFFC
01FFFFFC
01FFFFFC
01FFFFFC
01FFFFFC
FE0003FC
FE0003FC
FE0003FC
FE0003FC
FE0003FC
FE0003FC
FE0003FC
FE0003FC
FE01FFFC
FE01FFFC
FE01FFFC
FE01FFFC
FE01FFFC
FE01FFFC
FE01FFFC
01FE03FC
01FE03FC
01FE03FC
01FE03FC
01FE03FC
01FE03FC
01FE03FC
00FC01F8
ENDCHAR
STARTCHAR Aogonek
ENCODING 260
SWIDTH 685 0
DWIDTH 36 0
BBX 30 52 0 -7
BITMAP
01FFFC00
01FFFC00
01FFFC00
01FFFC00
01FFFC00
01FFFC00
01FFFC00
FE0003F8
FE0003FC
FE0003FC
FE0003FC
FE0003FC
FE0003FC
FE0003FC
FE0003FC
FE0003FC
FE0003FC
FE0003FC
FE0003FC
FE0003FC
FE0003FC
FE0003FC
FFFFFFFC
FFFFFFFC
FFFFFFFC
FFFFFFFC
FFFFFFFC
FFFFFFFC
FFFFFFFC
FFFFFFFC
FE0003FC
FE0003FC
FE0003FC
FE0003FC
FE0003FC
FE0003FC
FE0003FC
FE0003FC
FE0003FC
FE0003FC
FE0003FC
FE0003FC
FE0003FC
FE0003FC
FE0003FC
000003FC
000003FC
000003FC
000003FC
000003FC
000003FC
000003FC
ENDCHAR
STARTCHAR aogonek
ENCODING 261
SWIDTH 685 0
DWIDTH 36 0
BBX 37 37 0 -7
BITMAP
01FFFFFC00
01FFFFFC00
01FFFFFC00
01FFFFFC00
01FFFFFC00
01FFFFFC00
01FFFFFC00
FE0003FC00
FE0003FC00
FE0003FC00
FE0003FC00
FE0003FC00
FE0003FC00
FE0003FC00
FE0003FC00
FE01FFFC00
FE01FFFC00
FE01FFFC00
FE01FFFC00
FE01FFFC00
FE01FFFC00
FE01FFFC00
01FE03FC00
01FE03FC00
01FE03FC00
01FE03FC00
01FE03FC00
01FE03FC00
01FE03FC00
00FC01FC00
00000003F8
00000003F8
00000003F8
00000003F8
00000003F8
00000003F8
00000003F8
ENDCHAR
STARTCHAR Cacute
ENCODING 262
SWIDTH 685 0
DWIDTH 36 0
BBX 30 45 0 0
BITMAP
01FFFC00
01FFFC00
01FFFC00
01FFFC00
01FFFC00
01FFFC00
01FFFC00
FE0003F8
FE0003FC
FE0003FC
FE0003FC
FE0003FC
FE0003FC
FE0003FC
FE0003FC
FE000000
FE000000
FE000000
FE000000
FE000000
FE000000
FE000000
FE000000
FE000000
FE000000
FE000000
FE000000
FE000000
FE000000
FE000000
FE0003FC
FE0003FC
FE0003FC
FE0003FC
FE0003FC
FE0003FC
FE0003FC
01FFFC00
01FFFC00
01FFFC00
01FFFC00
01FFFC00
01FFFC00
01FFFC00
00FFFC00
ENDCHAR
STARTCHAR cacute
ENCODING 263
SWIDTH 685 0
DWIDTH 36 0
BBX 23 45 7 0
BITMAP
0001FE
0001FE
0001FE
0001FE
0001FE
0001FE
0001FE
00FE00
00FE00
00FE00
00FE00
00FE00
00FE00
00FE00
00FE00
00FFFE
00FFFE
00FFFE
00FFFE
00FFFE
00FFFE
00FFFE
7F0000
FF0000
FF0000
FF0000
FF0000
FF0000
FF0000
FF0000
FF0000
FF0000
FF0000
FF0000
FF0000
FF0000
FF0000
00FFFE
00FFFE
00FFFE
00FFFE
00FFFE
00FFFE
00FFFE
00FFFC
ENDCHAR
STARTCHAR Ccircumflex
ENCODING 264
SWIDTH 685 0
DWIDTH 36 0
BBX 30 45 0 0
BITMAP
01FFFC00
01FFFC00
01FFFC00
01FFFC00
01FFFC00
01FFFC00
01FFFC00
FE0003F8
FE0003FC
FE0003FC
FE0003FC
FE0003FC
FE0003FC
FE0003FC
FE0003FC
FE000000
FE000000
FE000000
FE000000
FE000000
FE000000
FE000000
FE000000
FE000000
FE000000
FE000000
FE000000
FE000000
FE000000
FE000000
FE0003FC
FE0003FC
FE0003FC
FE0003FC
FE0003FC
FE0003FC
FE0003FC
01FFFC00
01FFFC00
01FFFC00
01FFFC00
01FFFC00
01FFFC00
01FFFC00
00FFFC00
ENDCHAR
STARTCHAR ccircumflex
ENCODING 265
SWIDTH 685 0
DWIDTH 36 0
BBX 22 45 0 0
BITMAP
01FFFC
01FFFC
01FFFC
01FFFC
01FFFC
01FFFC
01FFFC
000000
000000
000000
000000
000000
000000
000000
000000
01FFFC
01FFFC
01FFFC
01FFFC
01FFFC
01FFFC
01FFFC
FE0000
FE0000
FE0000
FE0000
FE0000
FE0000
FE0000
FE0000
FE0000
FE0000
FE0000
FE0000
FE0000
FE0000
FE0000
01FFFC
01FFFC
01FFFC
01FFFC
01FFFC
01FFFC
01FFFC
00FFFC
ENDCHAR
STARTCHAR Cdotaccent
ENCODING 266
SWIDTH 685 0
DWIDTH 36 0
BBX 30 45 0 0
BITMAP
01FFFC00
01FFFC00
01FFFC00
01FFFC00
01FFFC00
01FFFC00
01FFFC00
FE0003F8
FE0003FC
FE0003FC
FE0003FC
FE0003FC
FE0003FC
FE0003FC
FE0003FC
FE000000
FE000000
FE000000
FE000000
FE000000
FE000000
FE000000
FE000000
FE000000
FE000000
FE000000
FE000000
FE000000
FE000000
FE000000
FE0003FC
FE0003FC
FE0003FC
FE0003FC
FE0003FC
FE0003FC
FE0003FC
01FFFC00
01FFFC00
01FFFC00
01FFFC00
01FFFC00
01FFFC00
01FFFC00
00FFFC00
ENDCHAR
STARTCHAR cdotaccent
ENCODING 267
SWIDTH 685 0
DWIDTH 36 0
BBX 22 45 0 0
BITMAP
01FE00
01FE00
01FE00
01FE00
01FE00
01FE00
01FE00
000000
000000
000000
000000
000000
000000
000000
000000
01FFFC
01FFFC
01FFFC
01FFFC
01FFFC
01FFFC
01FFFC
FE0000
FE0000
FE0000
FE0000
FE0000
FE0000
FE0000
FE0000
FE0000
FE0000
FE0000
FE0000
FE0000
FE0000
FE0000
01FFFC
01FFFC
01FFFC
01FFFC
01FFFC
01FFFC
01FFFC
00FFFC
ENDCHAR
STARTCHAR Ccaron
ENCODING 268
SWIDTH 685 0
DWIDTH 36 0
BBX 30 45 0 0
BITMAP
01FFFC00
01FFFC00
01FFFC00
01FFFC00
01FFFC00
01FFFC00
01FFFC00
FE0003F8
FE0003FC
FE0003FC
FE0003FC
FE0003FC
FE0003FC
FE0003FC
FE0003FC
FE000000
FE000000
FE000000
FE000000
FE000000
FE000000
FE000000
FE000000
FE000000
FE000000
FE000000
FE000000
FE000000
FE000000
FE000000
FE0003FC
FE0003FC
FE0003FC
FE0003FC
FE0003FC
FE0003FC
FE0003FC
01FFFC00
01FFFC00
01FFFC00
01FFFC00
01FFFC00
01FFFC00
01FFFC00
00FFFC00
ENDCHAR
STARTCHAR ccaron
ENCODING 269
SWIDTH 685 0
DWIDTH 36 0
BBX 22 45 0 0
BITMAP
FE01FC
FE01FC
FE01FC
FE01FC
FE01FC
FE01FC
FE01FC
01FE00
01FE00
01FE00
01FE00
01FE00
01FE00
01FE00
01FE00
01FFFC
01FFFC
01FFFC
01FFFC
01FFFC
01FFFC
01FFFC
FE0000
FE0000
FE0000
FE0000
FE0000
FE0000
FE0000
FE0000
FE0000
FE0000
FE0000
FE0000
FE0000
FE0000
FE0000
01FFFC
01FFFC
01FFFC
01FFFC
01FFFC
01FFFC
01FFFC
00FFFC
ENDCHAR
STARTCHAR Dcaron
ENCODING 270
SWIDTH 685 0
DWIDTH 36 0
BBX 30 45 0 0
BITMAP
FFFFFC00
FFFFFC00
FFFFFC00
FFFFFC00
FFFFFC00
FFFFFC00
FFFFFC00
FF0003F8
FE0003FC
FE0003FC
FE0003FC
FE0003FC
FE0003FC
FE0003FC
FE0003FC
FE0003FC
FE0003FC
FE0003FC
FE0003FC
FE0003FC
FE0003FC
FE0003FC
FE0003FC
FE0003FC
FE0003FC
FE0003FC
FE0003FC
FE0003FC
FE0003FC
FE0003FC
FE0003FC
FE0003FC
FE0003FC
FE0003FC
FE0003FC
FE0003FC
FE0003FC
FFFFFC00
FFFFFC00
FFFFFC00
FFFFFC00
FFFFFC00
FFFFFC00
FFFFFC00
FFFFFC00
ENDCHAR
STARTCHAR dcaron
ENCODING 271
SWIDTH 685 0
DWIDTH 36 0
BBX 30 45 0 0
BITMAP
FE01FC00
FE01FC00
FE01FC00
FE01FC00
FE01FC00
FE01FC00
FE01FC00
01FE03F8
01FE03FC
01FE03FC
01FE03FC
01FE03FC
01FE03FC
01FE03FC
00FE03FC
000003FC
000003FC
000003FC
000003FC
000003FC
000003FC
000003FC
00FFFFFC
01FFFFFC
01FFFFFC
01FFFFFC
01FFFFFC
01FFFFFC
01FFFFFC
01FFFFFC
FE0003FC
FE0003FC
FE0003FC
FE0003FC
FE0003FC
FE0003FC
FE0003FC
01FFFFFC
01FFFFFC
01FFFFFC
01FFFFFC
01FFFFFC
01FFFFFC
01FFFFFC
00FFFFF8
ENDCHAR
STARTCHAR Dcroat
ENCODING 272
SWIDTH 685 0
DWIDTH 36 0
BBX 30 45 0 0
BITMAP
FFFFFC00
FFFFFC00
FFFFFC00
FFFFFC00
FFFFFC00
FFFFFC00
FFFFFC00
FF0003F8
FE0003FC
FE0003FC
FE0003FC
FE0003FC
FE0003FC
FE0003FC
FF0003FC
FFFE03FC
FFFE03FC
FFFE03FC
FFFE03FC
FFFE03FC
FFFE03FC
FFFE03FC
FF0003FC
FE0003FC
FE0003FC
FE0003FC
FE0003FC
FE0003FC
FE0003FC
FE0003FC
FE0003FC
FE0003FC
FE0003FC
FE0003FC
FE0003FC
FE0003FC
FE0003FC
FFFFFC00
FFFFFC00
FFFFFC00
FFFFFC00
FFFFFC00
FFFFFC00
FFFFFC00
FFFFFC00
ENDCHAR
STARTCHAR dcroat
ENCODING 273
SWIDTH 685 0
DWIDTH 36 0
BBX 37 45 0 0
BITMAP
000003FC00
000003FC00
000003FC00
000003FC00
000003FC00
000003FC00
000003FC00
0001FFFFF8
0001FFFFF8
0001FFFFF8
0001FFFFF8
0001FFFFF8
0001FFFFF8
0001FFFFF8
0001FFFFF8
000003FC00
000003FC00
000003FC00
000003FC00
000003FC00
000003FC00
000003FC00
00FFFFFC00
01FFFFFC00
01FFFFFC00
01FFFFFC00
01FFFFFC00
01FFFFFC00
01FFFFFC00
01FFFFFC00
FE0003FC00
FE0003FC00
FE0003FC00
FE0003FC00
FE0003FC00
FE0003FC00
FE0003FC00
01FFFFFC00
01FFFFFC00
01FFFFFC00
01FFFFFC00
01FFFFFC00
01FFFFFC00
01FFFFFC00
00FFFFF800
ENDCHAR
STARTCHAR Emacron
ENCODING 274
SWIDTH 685 0
DWIDTH 36 0
BBX 30 45 0 0
BITMAP
FFFFFFFC
FFFFFFFC
FFFFFFFC
FFFFFFFC
FFFFFFFC
FFFFFFFC
FFFFFFFC
FF000000
FE000000
FE000000
FE000000
FE000000
FE000000
FE000000
FF000000
FFFFFC00
FFFFFC00
FFFFFC00
FFFFFC00
FFFFFC00
FFFFFC00
FFFFFC00
FF000000
FE000000
FE000000
FE000000
FE000000
FE000000
FE000000
FE000000
FE000000
FE000000
FE000000
FE000000
FE000000
FE000000
FE000000
FFFFFFFC
FFFFFFFC
FFFFFFFC
FFFFFFFC
FFFFFFFC
FFFFFFFC
FFFFFFFC
FFFFFFF8
ENDCHAR
STARTCHAR emacron
ENCODING 275
SWIDTH 685 0
DWIDTH 36 0
BBX 30 45 0 0
BITMAP
FFFFFC00
FFFFFC00
FFFFFC00
FFFFFC00
FFFFFC00
FFFFFC00
FFFFFC00
00000000
00000000
00000000
00000000
00000000
00000000
00000000
00000000
01FFFC00
01FFFC00
01FFFC00
01FFFC00
01FFFC00
01FFFC00
01FFFC00
FE01FFFC
FE01FFFC
FE01FFFC
FE01FFFC
FE01FFFC
FE01FFFC
FE01FFFC
FF01FFFC
FFFE0000
FFFE0000
FFFE0000
FFFE0000
FFFE0000
FFFE0000
FFFE0000
01FFFC00
01FFFC00
01FFFC00
01FFFC00
01FFFC00
01FFFC00
01FFFC00
00FFFC00
ENDCHAR
STARTCHAR Ebreve
ENCODING 276
SWIDTH 685 0
DWIDTH 36 0
BBX 30 45 0 0
BITMAP
FFFFFFFC
FFFFFFFC
FFFFFFFC
FFFFFFFC
FFFFFFFC
FFFFFFFC
FFFFFFFC
FF000000
FE000000
FE000000
FE000000
FE000000
FE000000
FE000000
FF000000
FFFFFC00
FFFFFC00
FFFFFC00
FFFFFC00
FFFFFC00
FFFFFC00
FFFFFC00
FF000000
FE000000
FE000000
FE000000
FE000000
FE000000
FE000000
FE000000
FE000000
FE000000
FE000000
FE000000
FE000000
FE000000
FE000000
FFFFFFFC
FFFFFFFC
FFFFFFFC
FFFFFFFC
FFFFFFFC
FFFFFFFC
FFFFFFFC
FFFFFFF8
ENDCHAR
STARTCHAR ebreve
ENCODING 277
SWIDTH 685 0
DWIDTH 36 0
BBX 30 45 0 0
BITMAP
FE0003FC
FE0003FC
FE0003FC
FE0003FC
FE0003FC
FE0003FC
FE0003FC
01FFFC00
01FFFC00
01FFFC00
01FFFC00
01FFFC00
01FFFC00
01FFFC00
01FFFC00
01FFFC00
01FFFC00
01FFFC00
01FFFC00
01FFFC00
01FFFC00
01FFFC00
FE01FFFC
FE01FFFC
FE01FFFC
FE01FFFC
FE01FFFC
FE01FFFC
FE01FFFC
FF01FFFC
FFFE0000
FFFE0000
FFFE0000
FFFE0000
FFFE0000
FFFE0000
FFFE0000
01FFFC00
01FFFC00
01FFFC00
01FFFC00
01FFFC00
01FFFC00
01FFFC00
00FFFC00
ENDCHAR
STARTCHAR Edotaccent
ENCODING 278
SWIDTH 685 0
DWIDTH 36 0
BBX 30 45 0 0
BITMAP
FFFFFFFC
FFFFFFFC
FFFFFFFC
FFFFFFFC
FFFFFFFC
FFFFFFFC
FFFFFFFC
FF000000
FE000000
FE000000
FE000000
FE000000
FE000000
FE000000
FF000000
FFFFFC00
FFFFFC00
FFFFFC00
FFFFFC00
FFFFFC00
FFFFFC00
FFFFFC00
FF000000
FE000000
FE000000
FE000000
FE000000
FE000000
FE000000
FE000000
FE000000
FE000000
FE000000
FE000000
FE000000
FE000000
FE000000
FFFFFFFC
FFFFFFFC
FFFFFFFC
FFFFFFFC
FFFFFFFC
FFFFFFFC
FFFFFFFC
FFFFFFF8
ENDCHAR
STARTCHAR edotaccent
ENCODING 279
SWIDTH 685 0
DWIDTH 36 0
BBX 30 45 0 0
BITMAP
01FE0000
01FE0000
01FE0000
01FE0000
01FE0000
01FE0000
01FE0000
00000000
00000000
00000000
00000000
00000000
00000000
00000000
00000000
01FFFC00
01FFFC00
01FFFC00
01FFFC00
01FFFC00
01FFFC00
01FFFC00
FE01FFFC
FE01FFFC
FE01FFFC
FE01FFFC
FE01FFFC
FE01FFFC
FE01FFFC
FF01FFFC
FFFE0000
FFFE0000
FFFE0000
FFFE0000
FFFE0000
FFFE0000
FFFE0000
01FFFC00
01FFFC00
01FFFC00
01FFFC00
01FFFC00
01FFFC00
01FFFC00
00FFFC00
ENDCHAR
STARTCHAR Eogonek
ENCODING 280
SWIDTH 685 0
DWIDTH 36 0
BBX 30 52 0 -7
BITMAP
FFFFFFFC
FFFFFFFC
FFFFFFFC
FFFFFFFC
FFFFFFFC
FFFFFFFC
FFFFFFFC
FF000000
FE000000
FE000000
FE000000
FE000000
FE000000
FE000000
FF000000
FFFFFC00
FFFFFC00
FFFFFC00
FFFFFC00
FFFFFC00
FFFFFC00
FFFFFC00
FF000000
FE000000
FE000000
FE000000
FE000000
FE000000
FE000000
FE000000
FE000000
FE000000
FE000000
FE000000
FE000000
FE000000
FE000000
FFFFFFFC
FFFFFFFC
FFFFFFFC
FFFFFFFC
FFFFFFFC
FFFFFFFC
FFFFFFFC
FFFFFFF8
01FE0000
01FE0000
01FE0000
01FE0000
01FE0000
01FE0000
01FE0000
ENDCHAR
STARTCHAR eogonek
ENCODING 281
SWIDTH 685 0
DWIDTH 36 0
BBX 30 37 0 -7
BITMAP
01FFFC00
01FFFC00
01FFFC00
01FFFC00
01FFFC00
01FFFC00
01FFFC00
FE01FFFC
FE01FFFC
FE01FFFC
FE01FFFC
FE01FFFC
FE01FFFC
FE01FFFC
FF01FFFC
FFFE0000
FFFE0000
FFFE0000
FFFE0000
FFFE0000
FFFE0000
FFFE0000
01FFFC00
01FFFC00
01FFFC00
01FFFC00
01FFFC00
01FFFC00
01FFFC00
01FFFC00
01FE0000
01FE0000
01FE0000
01FE0000
01FE0000
01FE0000
01FE0000
ENDCHAR
STARTCHAR Ecaron
ENCODING 282
SWIDTH 685 0
DWIDTH 36 0
BBX 30 45 0 0
BITMAP
FFFFFFFC
FFFFFFFC
FFFFFFFC
FFFFFFFC
FFFFFFFC
FFFFFFFC
FFFFFFFC
FF000000
FE000000
FE000000
FE000000
FE000000
FE000000
FE000000
FF000000
FFFFFC00
FFFFFC00
FFFFFC00
FFFFFC00
FFFFFC00
FFFFFC00
FFFFFC00
FF000000
FE000000
FE000000
FE000000
FE000000
FE000000
FE000000
FE000000
FE000000
FE000000
FE000000
FE000000
FE000000
FE000000
FE000000
FFFFFFFC
FFFFFFFC
FFFFFFFC
FFFFFFFC
FFFFFFFC
FFFFFFFC
FFFFFFFC
FFFFFFF8
ENDCHAR
STARTCHAR ecaron
ENCODING 283
SWIDTH 685 0
DWIDTH 36 0
BBX 30 45 0 0
BITMAP
FE01FC00
FE01FC00
FE01FC00
FE01FC00
FE01FC00
FE01FC00
FE01FC00
01FE0000
01FE0000
01FE0000
01FE0000
01FE0000
01FE0000
01FE0000
01FE0000
01FFFC00
01FFFC00
01FFFC00
01FFFC00
01FFFC00
01FFFC00
01FFFC00
FE01FFFC
FE01FFFC
FE01FFFC
FE01FFFC
FE01FFFC
FE01FFFC
FE01FFFC
FF01FFFC
FFFE0000
FFFE0000
FFFE0000
FFFE0000
FFFE0000
FFFE0000
FFFE0000
01FFFC00
01FFFC00
01FFFC00
01FFFC00
01FFFC00
01FFFC00
01FFFC00
00FFFC00
ENDCHAR
STARTCHAR Gcircumflex
ENCODING 284
SWIDTH 685 0
DWIDTH 36 0
BBX 30 45 0 0
BITMAP
01FFFC00
01FFFC00
01FFFC00
01FFFC00
01FFFC00
01FFFC00
01FFFC00
FE0003F8
FE0003FC
FE0003FC
FE0003FC
FE0003FC
FE0003FC
FE0003FC
FE0003FC
FE000000
FE000000
FE000000
FE000000
FE000000
FE000000
FE000000
FE01FFFC
FE01FFFC
FE01FFFC
FE01FFFC
FE01FFFC
FE01FFFC
FE01FFFC
FE01FFFC
FE0003FC
FE0003FC
FE0003FC
FE0003FC
FE0003FC
FE0003FC
FE0003FC
01FFFFFC
01FFFFFC
01FFFFFC
01FFFFFC
01FFFFFC
01FFFFFC
01FFFFFC
00FFFFF8
ENDCHAR
STARTCHAR gcircumflex
ENCODING 285
SWIDTH 685 0
DWIDTH 36 0
BBX 30 52 0 -7
BITMAP
01FFFC00
01FFFC00
01FFFC00
01FFFC00
01FFFC00
01FFFC00
01FFFC00
00000000
00000000
00000000
00000000
00000000
00000000
00000000
00000000
01FFFFFC
01FFFFFC
01FFFFFC
01FFFFFC
01FFFFFC
01FFFFFC
01FFFFFC
FE0003FC
FE0003FC
FE0003FC
FE0003FC
FE0003FC
FE0003FC
FE0003FC
FE0003FC
01FFFC00
01FFFC00
01FFFC00
01FFFC00
01FFFC00
01FFFC00
01FFFC00
FE000000
FE000000
FE000000
FE000000
FE000000
FE000000
FE000000
FE000000
01FFFFFC
01FFFFFC
01FFFFFC
01FFFFFC
01FFFFFC
01FFFFFC
01FFFFFC
ENDCHAR
STARTCHAR Gbreve
ENCODING 286
SWIDTH 685 0
DWIDTH 36 0
BBX 30 45 0 0
BITMAP
01FFFC00
01FFFC00
01FFFC00
01FFFC00
01FFFC00
01FFFC00
01FFFC00
FE0003F8
FE0003FC
FE0003FC
FE0003FC
FE0003FC
FE0003FC
FE0003FC
FE0003FC
FE000000
FE000000
FE000000
FE000000
FE000000
FE000000
FE000000
FE01FFFC
FE01FFFC
FE01FFFC
FE01FFFC
FE01FFFC
FE01FFFC
FE01FFFC
FE01FFFC
FE0003FC
FE0003FC
FE0003FC
FE0003FC
FE0003FC
FE0003FC
FE0003FC
01FFFFFC
01FFFFFC
01FFFFFC
01FFFFFC
01FFFFFC
01FFFFFC
01FFFFFC
00FFFFF8
ENDCHAR
STARTCHAR gbreve
ENCODING 287
SWIDTH 685 0
DWIDTH 36 0
BBX 30 52 0 -7
BITMAP
01FE03FC
01FE03FC
01FE03FC
01FE03FC
01FE03FC
01FE03FC
01FE03FC
0001FC00
0001FC00
0001FC00
0001FC00
0001FC00
0001FC00
0001FC00
0001FC00
01FFFFFC
01FFFFFC
01FFFFFC
01FFFFFC
01FFFFFC
01FFFFFC
01FFFFFC
FE0003FC
FE0003FC
FE0003FC
FE0003FC
FE0003FC
FE0003FC
FE0003FC
FE0003FC
01FFFC00
01FFFC00
01FFFC00
01FFFC00
01FFFC00
01FFFC00
01FFFC00
FE000000
FE000000
FE000000
FE000000
FE000000
FE000000
FE000000
FE000000
01FFFFFC
01FFFFFC
01FFFFFC
01FFFFFC
01FFFFFC
01FFFFFC
01FFFFFC
ENDCHAR
STARTCHAR Gdotaccent
ENCODING 288
SWIDTH 685 0
DWIDTH 36 0
BBX 30 45 0 0
BITMAP
01FFFC00
01FFFC00
01FFFC00
01FFFC00
01FFFC00
01FFFC00
01FFFC00
FE0003F8
FE0003FC
FE0003FC
FE0003FC
FE0003FC
FE0003FC
FE0003FC
FE0003FC
FE000000
FE000000
FE000000
FE000000
FE000000
FE000000
FE000000
FE01FFFC
FE01FFFC
FE01FFFC
FE01FFFC
FE01FFFC
FE01FFFC
FE01FFFC
FE01FFFC
FE0003FC
FE0003FC
FE0003FC
FE0003FC
FE0003FC
FE0003FC
FE0003FC
01FFFFFC
01FFFFFC
01FFFFFC
01FFFFFC
01FFFFFC
01FFFFFC
01FFFFFC
00FFFFF8
ENDCHAR
STARTCHAR gdotaccent
ENCODING 289
SWIDTH 685 0
DWIDTH 36 0
BBX 30 52 0 -7
BITMAP
0001FC00
0001FC00
0001FC00
0001FC00
0001FC00
0001FC00
0001FC00
00000000
00000000
00000000
00000000
00000000
00000000
00000000
00000000
01FFFFFC
01FFFFFC
01FFFFFC
01FFFFFC
01FFFFFC
01FFFFFC
01FFFFFC
FE0003FC
FE0003FC
FE0003FC
FE0003FC
FE0003FC
FE0003FC
FE0003FC
FE0003FC
01FFFC00
01FFFC00
01FFFC00
01FFFC00
01FFFC00
01FFFC00
01FFFC00
FE000000
FE000000
FE000000
FE000000
FE000000
FE000000
FE000000
FE000000
01FFFFFC
01FFFFFC
01FFFFFC
01FFFFFC
01FFFFFC
01FFFFFC
01FFFFFC
ENDCHAR
STARTCHAR Gcommaaccent
ENCODING 290
SWIDTH 685 0
DWIDTH 36 0
BBX 30 52 0 -7
BITMAP
01FFFC00
01FFFC00
01FFFC00
01FFFC00
01FFFC00
01FFFC00
01FFFC00
FE0003F8
FE0003FC
FE0003FC
FE0003FC
FE0003FC
FE0003FC
FE0003FC
FE0003FC
FE000000
FE000000
FE000000
FE000000
FE000000
FE000000
FE000000
FE01FFFC
FE01FFFC
FE01FFFC
FE01FFFC
FE01FFFC
FE01FFFC
FE01FFFC
FE01FFFC
FE0003FC
FE0003FC
FE0003FC
FE0003FC
FE0003FC
FE0003FC
FE0003FC
01FFFFFC
01FFFFFC
01FFFFFC
01FFFFFC
01FFFFFC
01FFFFFC
01FFFFFC
01FFFFF8
01FE0000
01FE0000
01FE0000
01FE0000
01FE0000
01FE0000
01FE0000
ENDCHAR
STARTCHAR gcommaaccent
ENCODING 291
SWIDTH 685 0
DWIDTH 36 0
BBX 30 52 0 -7
BITMAP
01FFFC00
01FFFC00
01FFFC00
01FFFC00
01FFFC00
01FFFC00
01FFFC00
0003FC00
0001FC00
0001FC00
0001FC00
0001FC00
0001FC00
0001FC00
0001FC00
01FFFFFC
01FFFFFC
01FFFFFC
01FFFFFC
01FFFFFC
01FFFFFC
01FFFFFC
FE0003FC
FE0003FC
FE0003FC
FE0003FC
FE0003FC
FE0003FC
FE0003FC
FE0003FC
01FFFC00
01FFFC00
01FFFC00
01FFFC00
01FFFC00
01FFFC00
01FFFC00
FE000000
FE000000
FE000000
FE000000
FE000000
FE000000
FE000000
FE000000
01FFFFFC
01FFFFFC
01FFFFFC
01FFFFFC
01FFFFFC
01FFFFFC
01FFFFFC
ENDCHAR
STARTCHAR Hcircumflex
ENCODING 292
SWIDTH 685 0
DWIDTH 36 0
BBX 30 45 0 0
BITMAP
FE0003FC
FE0003FC
FE0003FC
FE0003FC
FE0003FC
FE0003FC
FE0003FC
FE0003FC
FE0003FC
FE0003FC
FE0003FC
FE0003FC
FE0003FC
FE0003FC
FF0003FC
FFFFFFFC
FFFFFFFC
FFFFFFFC
FFFFFFFC
FFFFFFFC
FFFFFFFC
FFFFFFFC
FF0003FC
FE0003FC
FE0003FC
FE0003FC
FE0003FC
FE0003FC
FE0003FC
FE0003FC
FE0003FC
FE0003FC
FE0003FC
FE0003FC
FE0003FC
FE0003FC
FE0003FC
FE0003FC
FE0003FC
FE0003FC
FE0003FC
FE0003FC
FE0003FC
FE0003FC
FE0001F8
ENDCHAR
STARTCHAR hcircumflex
ENCODING 293
SWIDTH 685 0
DWIDTH 36 0
BBX 30 45 0 0
BITMAP
01FE0000
01FE0000
01FE0000
01FE0000
01FE0000
01FE0000
01FE0000
FE01FC00
FE01FC00
FE01FC00
FE01FC00
FE01FC00
FE01FC00
FE01FC00
FE01FC00
FE000000
FE000000
FE000000
FE000000
FE000000
FE000000
FE000000
FFFFFC00
FFFFFC00
FFFFFC00
FFFFFC00
FFFFFC00
FFFFFC00
FFFFFC00
FFFFFC00
FE0003FC
FE0003FC
FE0003FC
FE0003FC
FE0003FC
FE0003FC
FE0003FC
FE0003FC
FE0003FC
FE0003FC
FE0003FC
FE0003FC
FE0003FC
FE0003FC
FE0001F8
ENDCHAR
STARTCHAR Hbar
ENCODING 294
SWIDTH 685 0
DWIDTH 36 0
BBX 37 45 0 0
BITMAP
FE0003FC00
FE0003FC00
FE0003FC00
FE0003FC00
FE0003FC00
FE0003FC00
FE0003FC00
FFFFFFFFF8
FFFFFFFFF8
FFFFFFFFF8
FFFFFFFFF8
FFFFFFFFF8
FFFFFFFFF8
FFFFFFFFF8
FFFFFFFFF8
FE0003FC00
FE0003FC00
FE0003FC00
FE0003FC00
FE0003FC00
FE0003FC00
FE0003FC00
FFFFFFFC00
FFFFFFFC00
FFFFFFFC00
FFFFFFFC00
FFFFFFFC00
FFFFFFFC00
FFFFFFFC00
FFFFFFFC00
FE0003FC00
FE0003FC00
FE0003FC00
FE0003FC00
FE0003FC00
FE0003FC00
FE0003FC00
FE0003FC00
FE0003FC00
FE0003FC00
FE0003FC00
FE0003FC00
FE0003FC00
FE0003FC00
FE0001F800
ENDCHAR
STARTCHAR hbar
ENCODING 295
SWIDTH 685 0
DWIDTH 36 0
BBX 30 45 0 0
BITMAP
FE000000
FE000000
FE000000
FE000000
FE000000
FE000000
FE000000
FFFC0000
FFFE0000
FFFE0000
FFFE0000
FFFE0000
FFFE0000
FFFE0000
FFFE0000
FE000000
FE000000
FE000000
FE000000
FE000000
FE000000
FE000000
FFFFFC00
FFFFFC00
FFFFFC00
FFFFFC00
FFFFFC00
FFFFFC00
FFFFFC00
FFFFFC00
FE0003FC
FE0003FC
FE0003FC
FE0003FC
FE0003FC
FE0003FC
FE0003FC
FE0003FC
FE0003FC
FE0003FC
FE0003FC
FE0003FC
FE0003FC
FE0003FC
FE0001F8
ENDCHAR
STARTCHAR Itilde
ENCODING 296
SWIDTH 685 0
DWIDTH 36 0
BBX 23 45 7 0
BITMAP
FFFFFE
FFFFFE
FFFFFE
FFFFFE
FFFFFE
FFFFFE
FFFFFE
01FF00
00FE00
00FE00
00FE00
00FE00
00FE00
00FE00
00FE00
00FE00
00FE00
00FE00
00FE00
00FE00
00FE00
00FE00
00FE00
00FE00
00FE00
00FE00
00FE00
00FE00
00FE00
00FE00
00FE00
00FE00
00FE00
00FE00
00FE00
00FE00
00FE00
7FFFFE
FFFFFE
FFFFFE
FFFFFE
FFFFFE
FFFFFE
FFFFFE
7FFFFC
ENDCHAR
STARTCHAR itilde
ENCODING 297
SWIDTH 685 0
DWIDTH 36 0
BBX 30 45 0 0
BITMAP
01FE03FC
01FE03FC
01FE03FC
01FE03FC
01FE03FC
01FE03FC
01FE03FC
FE01FC00
FE01FC00
FE01FC00
FE01FC00
FE01FC00
FE01FC00
FE01FC00
FE01FC00
01FFFC00
01FFFC00
01FFFC00
01FFFC00
01FFFC00
01FFFC00
01FFFC00
0001FC00
0001FC00
0001FC00
0001FC00
0001FC00
0001FC00
0001FC00
0001FC00
0001FC00
0001FC00
0001FC00
0001FC00
0001FC00
0001FC00
0001FC00
00FFFFFC
01FFFFFC
01FFFFFC
01FFFFFC
01FFFFFC
01FFFFFC
01FFFFFC
00FFFFF8
ENDCHAR
STARTCHAR Imacron
ENCODING 298
SWIDTH 685 0
DWIDTH 36 0
BBX 23 45 7 0
BITMAP
FFFFFE
FFFFFE
FFFFFE
FFFFFE
FFFFFE
FFFFFE
FFFFFE
01FF00
00FE00
00FE00
00FE00
00FE00
00FE00
00FE00
00FE00
00FE00
00FE00
00FE00
00FE00
00FE00
00FE00
00FE00
00FE00
00FE00
00FE00
00FE00
00FE00
00FE00
00FE00
00FE00
00FE00
00FE00
00FE00
00FE00
00FE00
00FE00
00FE00
7FFFFE
FFFFFE
FFFFFE
FFFFFE
FFFFFE
FFFFFE
FFFFFE
7FFFFC
ENDCHAR
STARTCHAR imacron
ENCODING 299
SWIDTH 685 0
DWIDTH 36 0
BBX 23 45 7 0
BITMAP
FFFFFE
FFFFFE
FFFFFE
FFFFFE
FFFFFE
FFFFFE
FFFFFE
000000
000000
000000
000000
000000
000000
000000
000000
FFFE00
FFFE00
FFFE00
FFFE00
FFFE00
FFFE00
FFFE00
00FE00
00FE00
00FE00
00FE00
00FE00
00FE00
00FE00
00FE00
00FE00
00FE00
00FE00
00FE00
00FE00
00FE00
00FE00
7FFFFE
FFFFFE
FFFFFE
FFFFFE
FFFFFE
FFFFFE
FFFFFE
7FFFFC
ENDCHAR
STARTCHAR Ibreve
ENCODING 300
SWIDTH 685 0
DWIDTH 36 0
BBX 23 45 7 0
BITMAP
FFFFFE
FFFFFE
FFFFFE
FFFFFE
FFFFFE
FFFFFE
FFFFFE
01FF00
00FE00
00FE00
00FE00
00FE00
00FE00
00FE00
00FE00
00FE00
00FE00
00FE00
00FE00
00FE00
00FE00
00FE00
00FE00
00FE00
00FE00
00FE00
00FE00
00FE00
00FE00
00FE00
00FE00
00FE00
00FE00
00FE00
00FE00
00FE00
00FE00
7FFFFE
FFFFFE
FFFFFE
FFFFFE
FFFFFE
FFFFFE
FFFFFE
7FFFFC
ENDCHAR
STARTCHAR ibreve
ENCODING 301
SWIDTH 685 0
DWIDTH 36 0
BBX 30 45 0 0
BITMAP
FE0003FC
FE0003FC
FE0003FC
FE0003FC
FE0003FC
FE0003FC
FE0003FC
01FFFC00
01FFFC00
01FFFC00
01FFFC00
01FFFC00
01FFFC00
01FFFC00
01FFFC00
01FFFC00
01FFFC00
01FFFC00
01FFFC00
01FFFC00
01FFFC00
01FFFC00
0001FC00
0001FC00
0001FC00
0001FC00
0001FC00
0001FC00
0001FC00
0001FC00
0001FC00
0001FC00
0001FC00
0001FC00
0001FC00
0001FC00
0001FC00
00FFFFFC
01FFFFFC
01FFFFFC
01FFFFFC
01FFFFFC
01FFFFFC
01FFFFFC
00FFFFF8
ENDCHAR
STARTCHAR Iogonek
ENCODING 302
SWIDTH 685 0
DWIDTH 36 0
BBX 23 52 7 -7
BITMAP
FFFFFE
FFFFFE
FFFFFE
FFFFFE
FFFFFE
FFFFFE
FFFFFE
01FF00
00FE00
00FE00
00FE00
00FE00
00FE00
00FE00
00FE00
00FE00
00FE00
00FE00
00FE00
00FE00
00FE00
00FE00
00FE00
00FE00
00FE00
00FE00
00FE00
00FE00
00FE00
00FE00
00FE00
00FE00
00FE00
00FE00
00FE00
00FE00
00FE00
7FFFFE
FFFFFE
FFFFFE
FFFFFE
FFFFFE
FFFFFE
FFFFFE
FFFFFC
FF0000
FF0000
FF0000
FF0000
FF0000
FF0000
FF0000
ENDCHAR
STARTCHAR iogonek
ENCODING 303
SWIDTH 685 0
DWIDTH 36 0
BBX 23 52 7 -7
BITMAP
00FE00
00FE00
00FE00
00FE00
00FE00
00FE00
00FE00
000000
000000
000000
000000
000000
000000
000000
000000
FFFE00
FFFE00
FFFE00
FFFE00
FFFE00
FFFE00
FFFE00
00FE00
00FE00
00FE00
00FE00
00FE00
00FE00
00FE00
00FE00
00FE00
00FE00
00FE00
00FE00
00FE00
00FE00
00FE00
7FFFFE
FFFFFE
FFFFFE
FFFFFE
FFFFFE
FFFFFE
FFFFFE
FFFFFC
FF0000
FF0000
FF0000
FF0000
FF0000
FF0000
FF0000
ENDCHAR
STARTCHAR Idotaccent
ENCODING 304
SWIDTH 685 0
DWIDTH 36 0
BBX 23 45 7 0
BITMAP
FFFFFE
FFFFFE
FFFFFE
FFFFFE
FFFFFE
FFFFFE
FFFFFE
01FF00
00FE00
00FE00
00FE00
00FE00
00FE00
00FE00
00FE00
00FE00
00FE00
00FE00
00FE00
00FE00
00FE00
00FE00
00FE00
00FE00
00FE00
00FE00
00FE00
00FE00
00FE00
00FE00
00FE00
00FE00
00FE00
00FE00
00FE00
00FE00
00FE00
7FFFFE
FFFFFE
FFFFFE
FFFFFE
FFFFFE
FFFFFE
FFFFFE
7FFFFC
ENDCHAR
STARTCHAR dotlessi
ENCODING 305
SWIDTH 685 0
DWIDTH 36 0
BBX 23 30 7 0
BITMAP
FFFE00
FFFE00
FFFE00
FFFE00
FFFE00
FFFE00
FFFE00
00FE00
00FE00
00FE00
00FE00
00FE00
00FE00
00FE00
00FE00
00FE00
00FE00
00FE00
00FE00
00FE00
00FE00
00FE00
7FFFFE
FFFFFE
FFFFFE
FFFFFE
FFFFFE
FFFFFE
FFFFFE
7FFFFC
ENDCHAR
STARTCHAR IJ
ENCODING 306
SWIDTH 685 0
DWIDTH 36 0
BBX 30 45 0 0
BITMAP
FE0003FC
FE0003FC
FE0003FC
FE0003FC
FE0003FC
FE0003FC
FE0003FC
FE0003FC
FE0003FC
FE0003FC
FE0003FC
FE0003FC
FE0003FC
FE0003FC
FE0003FC
FE0003FC
FE0003FC
FE0003FC
FE0003FC
FE0003FC
FE0003FC
FE0003FC
FE0003FC
FE0003FC
FE0003FC
FE0003FC
FE0003FC
FE0003FC
FE0003FC
FF0003FC
FFFE03FC
FFFE03FC
FFFE03FC
FFFE03FC
FFFE03FC
FFFE03FC
FFFE03FC
FF01FC00
FE01FC00
FE01FC00
FE01FC00
FE01FC00
FE01FC00
FE01FC00
FE01FC00
ENDCHAR
STARTCHAR ij
ENCODING 307
SWIDTH 685 0
DWIDTH 36 0
BBX 30 52 0 -7
BITMAP
FE0003FC
FE0003FC
FE0003FC
FE0003FC
FE0003FC
FE0003FC
FE0003FC
00000000
00000000
00000000
00000000
00000000
00000000
00000000
00000000
FE0003FC
FE0003FC
FE0003FC
FE0003FC
FE0003FC
FE0003FC
FE0003FC
FE0003FC
FE0003FC
FE0003FC
FE0003FC
FE0003FC
FE0003FC
FE0003FC
FE0003FC
FE0003FC
FE0003FC
FE0003FC
FE0003FC
FE0003FC
FE0003FC
FE0003FC
FFFE03FC
FFFE03FC
FFFE03FC
FFFE03FC
FFFE03FC
FFFE03FC
FFFE03FC
FFFE03F8
0001FC00
0001FC00
0001FC00
0001FC00
0001FC00
0001FC00
0001FC00
ENDCHAR
STARTCHAR Jcircumflex
ENCODING 308
SWIDTH 685 0
DWIDTH 36 0
BBX 30 45 0 0
BITMAP
000003FC
000003FC
000003FC
000003FC
000003FC
000003FC
000003FC
000003FC
000003FC
000003FC
000003FC
000003FC
000003FC
000003FC
000003FC
000003FC
000003FC
000003FC
000003FC
000003FC
000003FC
000003FC
000003FC
000003FC
000003FC
000003FC
000003FC
000003FC
000003FC
000003FC
FE0003FC
FE0003FC
FE0003FC
FE0003FC
FE0003FC
FE0003FC
FE0003FC
01FFFC00
01FFFC00
01FFFC00
01FFFC00
01FFFC00
01FFFC00
01FFFC00
00FFFC00
ENDCHAR
STARTCHAR jcircumflex
ENCODING 309
SWIDTH 685 0
DWIDTH 36 0
BBX 30 52 0 -7
BITMAP
0001FC00
0001FC00
0001FC00
0001FC00
0001FC00
0001FC00
0001FC00
00FE03F8
01FE03FC
01FE03FC
01FE03FC
01FE03FC
01FE03FC
01FE03FC
00FE03FC
00000000
00000000
00000000
00000000
00000000
00000000
00000000
0001FC00
0001FC00
0001FC00
0001FC00
0001FC00
0001FC00
0001FC00
0001FC00
0001FC00
0001FC00
0001FC00
0001FC00
0001FC00
0001FC00
0001FC00
FE01FC00
FE01FC00
FE01FC00
FE01FC00
FE01FC00
FE01FC00
FE01FC00
FE01FC00
01FE0000
01FE0000
01FE0000
01FE0000
01FE0000
01FE0000
01FE0000
ENDCHAR
STARTCHAR Kcommaaccent
ENCODING 310
SWIDTH 685 0
DWIDTH 36 0
BBX 30 52 0 -7
BITMAP
FE0003FC
FE0003FC
FE0003FC
FE0003FC
FE0003FC
FE0003FC
FE0003FC
FE01FC00
FE01FC00
FE01FC00
FE01FC00
FE01FC00
FE01FC00
FE01FC00
FF01FC00
FFFE0000
FFFE0000
FFFE0000
FFFE0000
FFFE0000
FFFE0000
FFFE0000
FFFE0000
FFFE0000
FFFE0000
FFFE0000
FFFE0000
FFFE0000
FFFE0000
FFFE0000
FE01FC00
FE01FC00
FE01FC00
FE01FC00
FE01FC00
FE01FC00
FE01FC00
FE0003FC
FE0003FC
FE0003FC
FE0003FC
FE0003FC
FE0003FC
FE0003FC
FE0001F8
FE000000
FE000000
FE000000
FE000000
FE000000
FE000000
FE000000
ENDCHAR
STARTCHAR kcommaaccent
ENCODING 311
SWIDTH 685 0
DWIDTH 36 0
BBX 30 52 0 -7
BITMAP
FE000000
FE000000
FE000000
FE000000
FE000000
FE000000
FE000000
FE000000
FE000000
FE000000
FE000000
FE000000
FE000000
FE000000
FE000000
FE01FC00
FE01FC00
FE01FC00
FE01FC00
FE01FC00
FE01FC00
FE01FC00
FFFE0000
FFFE0000
FFFE0000
FFFE0000
FFFE0000
FFFE0000
FFFE0000
FFFE0000
FE01FC00
FE01FC00
FE01FC00
FE01FC00
FE01FC00
FE01FC00
FE01FC00
FE0003FC
FE0003FC
FE0003FC
FE0003FC
FE0003FC
FE0003FC
FE0003FC
FE0001F8
FE000000
FE000000
FE000000
FE000000
FE000000
FE000000
FE000000
ENDCHAR
STARTCHAR kgreenlandic
ENCODING 312
SWIDTH 685 0
DWIDTH 36 0
BBX 30 30 0 0
BITMAP
FE0003FC
FE0003FC
FE0003FC
FE0003FC
FE0003FC
FE0003FC
FE0003FC
FFFFFC00
FFFFFC00
FFFFFC00
FFFFFC00
FFFFFC00
FFFFFC00
FFFFFC00
FFFFFC00
FE0003FC
FE0003FC
FE0003FC
FE0003FC
FE0003FC
FE0003FC
FE0003FC
FE0003FC
FE0003FC
FE0003FC
FE0003FC
FE0003FC
FE0003FC
FE0003FC
FE0001F8
ENDCHAR
STARTCHAR Lacute
ENCODING 313
SWIDTH 685 0
DWIDTH 36 0
BBX 30 45 0 0
BITMAP
FE0003FC
FE0003FC
FE0003FC
FE0003FC
FE0003FC
FE0003FC
FE0003FC
FE01FC00
FE01FC00
FE01FC00
FE01FC00
FE01FC00
FE01FC00
FE01FC00
FE01FC00
FE000000
FE000000
FE000000
FE000000
FE000000
FE000000
FE000000
FE000000
FE000000
FE000000
FE000000
FE000000
FE000000
FE000000
FE000000
FE000000
FE000000
FE000000
FE000000
FE000000
FE000000
FE000000
FFFFFFFC
FFFFFFFC
FFFFFFFC
FFFFFFFC
FFFFFFFC
FFFFFFFC
FFFFFFFC
FFFFFFF8
ENDCHAR
STARTCHAR lacute
ENCODING 314
SWIDTH 685 0
DWIDTH 36 0
BBX 37 45 0 0
BITMAP
FFFE0003F8
FFFE0003F8
FFFE0003F8
FFFE0003F8
FFFE0003F8
FFFE0003F8
FFFE0003F8
01FE01FC00
01FE03FC00
01FE03FC00
01FE03FC00
01FE03FC00
01FE03FC00
01FE03FC00
01FE03FC00
01FE000000
01FE000000
01FE000000
01FE000000
01FE000000
01FE000000
01FE000000
01FE000000
01FE000000
01FE000000
01FE000000
01FE000000
01FE000000
01FE000000
01FE000000
01FE000000
01FE000000
01FE000000
01FE000000
01FE000000
01FE000000
01FE000000
FFFFFC0000
FFFFFC0000
FFFFFC0000
FFFFFC0000
FFFFFC0000
FFFFFC0000
FFFFFC0000
FFFFFC0000
ENDCHAR
STARTCHAR Lcommaaccent
ENCODING 315
SWIDTH 685 0
DWIDTH 36 0
BBX 30 52 0 -7
BITMAP
FE000000
FE000000
FE000000
FE000000
FE000000
FE000000
FE000000
FE000000
FE000000
FE000000
FE000000
FE000000
FE000000
FE000000
FE000000
FE000000
FE000000
FE000000
FE000000
FE000000
FE000000
FE000000
FE000000
FE000000
FE000000
FE000000
FE000000
FE000000
FE000000
FE000000
FE000000
FE000000
FE000000
FE000000
FE000000
FE000000
FE000000
FFFFFFFC
FFFFFFFC
FFFFFFFC
FFFFFFFC
FFFFFFFC
FFFFFFFC
FFFFFFFC
FFFFFFF8
FE000000
FE000000
FE000000
FE000000
FE000000
FE000000
FE000000
ENDCHAR
STARTCHAR lcommaaccent
ENCODING 316
SWIDTH 685 0
DWIDTH 36 0
BBX 23 52 7 -7
BITMAP
FFFE00
FFFE00
FFFE00
FFFE00
FFFE00
FFFE00
FFFE00
01FE00
00FE00
00FE00
00FE00
00FE00
00FE00
00FE00
00FE00
00FE00
00FE00
00FE00
00FE00
00FE00
00FE00
00FE00
00FE00
00FE00
00FE00
00FE00
00FE00
00FE00
00FE00
00FE00
00FE00
00FE00
00FE00
00FE00
00FE00
00FE00
00FE00
7FFFFE
FFFFFE
FFFFFE
FFFFFE
FFFFFE
FFFFFE
FFFFFE
FFFFFC
FF0000
FF0000
FF0000
FF0000
FF0000
FF0000
FF0000
ENDCHAR
STARTCHAR Lcaron
ENCODING 317
SWIDTH 685 0
DWIDTH 36 0
BBX 37 45 0 0
BITMAP
FE01FC03F8
FE01FC03F8
FE01FC03F8
FE01FC03F8
FE01FC03F8
FE01FC03F8
FE01FC03F8
FE0003FC00
FE0003FC00
FE0003FC00
FE0003FC00
FE0003FC00
FE0003FC00
FE0003FC00
FE0003FC00
FE00000000
FE00000000
FE00000000
FE00000000
FE00000000
FE00000000
FE00000000
FE00000000
FE00000000
FE00000000
FE00000000
FE00000000
FE00000000
FE00000000
FE00000000
FE00000000
FE00000000
FE00000000
FE00000000
FE00000000
FE00000000
FE00000000
FFFFFFFC00
FFFFFFFC00
FFFFFFFC00
FFFFFFFC00
FFFFFFFC00
FFFFFFFC00
FFFFFFFC00
FFFFFFF800
ENDCHAR
STARTCHAR lcaron
ENCODING 318
SWIDTH 685 0
DWIDTH 36 0
BBX 37 45 0 0
BITMAP
FE01FC03F8
FE01FC03F8
FE01FC03F8
FE01FC03F8
FE01FC03F8
FE01FC03F8
FE01FC03F8
FE0003FC00
FE0003FC00
FE0003FC00
FE0003FC00
FE0003FC00
FE0003FC00
FE0003FC00
FE0003FC00
FE00000000
FE00000000
FE00000000
FE00000000
FE00000000
FE00000000
FE00000000
FE00000000
FE00000000
FE00000000
FE00000000
FE00000000
FE00000000
FE00000000
FE00000000
FE00000000
FE00000000
FE00000000
FE00000000
FE00000000
FE00000000
FE00000000
01FE000000
01FE000000
01FE000000
01FE000000
01FE000000
01FE000000
01FE000000
00FC000000
ENDCHAR
STARTCHAR Ldot
ENCODING 319
SWIDTH 685 0
DWIDTH 36 0
BBX 30 45 0 0
BITMAP
FE000000
FE000000
FE000000
FE000000
FE000000
FE000000
FE000000
FE000000
FE000000
FE000000
FE000000
FE000000
FE000000
FE000000
FE000000
FE01FC00
FE01FC00
FE01FC00
FE01FC00
FE01FC00
FE01FC00
FE01FC00
FE000000
FE000000
FE000000
FE000000
FE000000
FE000000
FE000000
FE000000
FE000000
FE000000
FE000000
FE000000
FE000000
FE000000
FE000000
FFFFFFFC
FFFFFFFC
FFFFFFFC
FFFFFFFC
FFFFFFFC
FFFFFFFC
FFFFFFFC
FFFFFFF8
ENDCHAR
STARTCHAR ldot
ENCODING 320
SWIDTH 685 0
DWIDTH 36 0
BBX 30 45 0 0
BITMAP
FFFE0000
FFFE0000
FFFE0000
FFFE0000
FFFE0000
FFFE0000
FFFE0000
01FE0000
01FE0000
01FE0000
01FE0000
01FE0000
01FE0000
01FE0000
01FE0000
01FE03FC
01FE03FC
01FE03FC
01FE03FC
01FE03FC
01FE03FC
01FE03FC
01FE0000
01FE0000
01FE0000
01FE0000
01FE0000
01FE0000
01FE0000
01FE0000
01FE0000
01FE0000
01FE0000
01FE0000
01FE0000
01FE0000
01FE0000
FFFFFC00
FFFFFC00
FFFFFC00
FFFFFC00
FFFFFC00
FFFFFC00
FFFFFC00
FFFFFC00
ENDCHAR
STARTCHAR Lslash
ENCODING 321
SWIDTH 685 0
DWIDTH 36 0
BBX 30 45 0 0
BITMAP
FE000000
FE000000
FE000000
FE000000
FE000000
FE000000
FE000000
FE000000
FE000000
FE000000
FE000000
FE000000
FE000000
FE000000
FF000000
FFFE0000
FFFE0000
FFFE0000
FFFE0000
FFFE0000
FFFE0000
FFFE0000
FF000000
FE000000
FE000000
FE000000
FE000000
FE000000
FE000000
FE000000
FE000000
FE000000
FE000000
FE000000
FE000000
FE000000
FE000000
FFFFFFFC
FFFFFFFC
FFFFFFFC
FFFFFFFC
FFFFFFFC
FFFFFFFC
FFFFFFFC
FFFFFFF8
ENDCHAR
STARTCHAR lslash
ENCODING 322
SWIDTH 685 0
DWIDTH 36 0
BBX 23 45 7 0
BITMAP
FFFE00
FFFE00
FFFE00
FFFE00
FFFE00
FFFE00
FFFE00
01FE00
00FE00
00FE00
00FE00
00FE00
00FE00
00FE00
00FE00
00FFFE
00FFFE
00FFFE
00FFFE
00FFFE
00FFFE
00FFFE
7FFE00
FFFE00
FFFE00
FFFE00
FFFE00
FFFE00
FFFE00
7FFE00
00FE00
00FE00
00FE00
00FE00
00FE00
00FE00
00FE00
7FFFFE
FFFFFE
FFFFFE
FFFFFE
FFFFFE
FFFFFE
FFFFFE
7FFFFC
ENDCHAR
STARTCHAR Nacute
ENCODING 323
SWIDTH 685 0
DWIDTH 36 0
BBX 30 45 0 0
BITMAP
FE0003FC
FE0003FC
FE0003FC
FE0003FC
FE0003FC
FE0003FC
FE0003FC
FFFC03FC
FFFE03FC
FFFE03FC
FFFE03FC
FFFE03FC
FFFE03FC
FFFE03FC
FFFE03FC
FFFE03FC
FFFE03FC
FFFE03FC
FFFE03FC
FFFE03FC
FFFE03FC
FFFE03FC
FF01FFFC
FE01FFFC
FE01FFFC
FE01FFFC
FE01FFFC
FE01FFFC
FE01FFFC
FE01FFFC
FE01FFFC
FE01FFFC
FE01FFFC
FE01FFFC
FE01FFFC
FE01FFFC
FE01FFFC
FE0003FC
FE0003FC
FE0003FC
FE0003FC
FE0003FC
FE0003FC
FE0003FC
FE0001F8
ENDCHAR
STARTCHAR nacute
ENCODING 324
SWIDTH 685 0
DWIDTH 36 0
BBX 30 45 0 0
BITMAP
0001FC00
0001FC00
0001FC00
0001FC00
0001FC00
0001FC00
0001FC00
00FE0000
01FE0000
01FE0000
01FE0000
01FE0000
01FE0000
01FE0000
01FE0000
FFFFFC00
FFFFFC00
FFFFFC00
FFFFFC00
FFFFFC00
FFFFFC00
FFFFFC00
FF0003FC
FE0003FC
FE0003FC
FE0003FC
FE0003FC
FE0003FC
FE0003FC
FE0003FC
FE0003FC
FE0003FC
FE0003FC
FE0003FC
FE0003FC
FE0003FC
FE0003FC
FE0003FC
FE0003FC
FE0003FC
FE0003FC
FE0003FC
FE0003FC
FE0003FC
FE0001F8
ENDCHAR
STARTCHAR Ncommaaccent
ENCODING 325
SWIDTH 685 0
DWIDTH 36 0
BBX 30 52 0 -7
BITMAP
FE0003FC
FE0003FC
FE0003FC
FE0003FC
FE0003FC
FE0003FC
FE0003FC
FFFC03FC
FFFE03FC
FFFE03FC
FFFE03FC
FFFE03FC
FFFE03FC
FFFE03FC
FFFE03FC
FFFE03FC
FFFE03FC
FFFE03FC
FFFE03FC
FFFE03FC
FFFE03FC
FFFE03FC
FF01FFFC
FE01FFFC
FE01FFFC
FE01FFFC
FE01FFFC
FE01FFFC
FE01FFFC
FE01FFFC
FE01FFFC
FE01FFFC
FE01FFFC
FE01FFFC
FE01FFFC
FE01FFFC
FE01FFFC
FE0003FC
FE0003FC
FE0003FC
FE0003FC
FE0003FC
FE0003FC
FE0003FC
FE0001F8
FE000000
FE000000
FE000000
FE000000
FE000000
FE000000
FE000000
ENDCHAR
STARTCHAR ncommaaccent
ENCODING 326
SWIDTH 685 0
DWIDTH 36 0
BBX 30 37 0 -7
BITMAP
FFFFFC00
FFFFFC00
FFFFFC00
FFFFFC00
FFFFFC00
FFFFFC00
FFFFFC00
FF0003FC
FE0003FC
FE0003FC
FE0003FC
FE0003FC
FE0003FC
FE0003FC
FE0003FC
FE0003FC
FE0003FC
FE0003FC
FE0003FC
FE0003FC
FE0003FC
FE0003FC
FE0003FC
FE0003FC
FE0003FC
FE0003FC
FE0003FC
FE0003FC
FE0003FC
FE0001F8
FE000000
FE000000
FE000000
FE000000
FE000000
FE000000
FE000000
ENDCHAR
STARTCHAR Ncaron
ENCODING 327
SWIDTH 685 0
DWIDTH 36 0
BBX 30 45 0 0
BITMAP
FE0003FC
FE0003FC
FE0003FC
FE0003FC
FE0003FC
FE0003FC
FE0003FC
FFFC03FC
FFFE03FC
FFFE03FC
FFFE03FC
FFFE03FC
FFFE03FC
FFFE03FC
FFFE03FC
FFFE03FC
FFFE03FC
FFFE03FC
FFFE03FC
FFFE03FC
FFFE03FC
FFFE03FC
FF01FFFC
FE01FFFC
FE01FFFC
FE01FFFC
FE01FFFC
FE01FFFC
FE01FFFC
FE01FFFC
FE01FFFC
FE01FFFC
FE01FFFC
FE01FFFC
FE01FFFC
FE01FFFC
FE01FFFC
FE0003FC
FE0003FC
FE0003FC
FE0003FC
FE0003FC
FE0003FC
FE0003FC
FE0001F8
ENDCHAR
STARTCHAR ncaron
ENCODING 328
SWIDTH 685 0
DWIDTH 36 0
BBX 30 45 0 0
BITMAP
FE01FC00
FE01FC00
FE01FC00
FE01FC00
FE01FC00
FE01FC00
FE01FC00
01FE0000
01FE0000
01FE0000
01FE0000
01FE0000
01FE0000
01FE0000
01FE0000
FFFFFC00
FFFFFC00
FFFFFC00
FFFFFC00
FFFFFC00
FFFFFC00
FFFFFC00
FF0003FC
FE0003FC
FE0003FC
FE0003FC
FE0003FC
FE0003FC
FE0003FC
FE0003FC
FE0003FC
FE0003FC
FE0003FC
FE0003FC
FE0003FC
FE0003FC
FE0003FC
FE0003FC
FE0003FC
FE0003FC
FE0003FC
FE0003FC
FE0003FC
FE0003FC
FE0001F8
ENDCHAR
STARTCHAR napostrophe
ENCODING 329
SWIDTH 685 0
DWIDTH 36 0
BBX 30 45 0 0
BITMAP
FE000000
FE000000
FE000000
FE000000
FE000000
FE000000
FE000000
00000000
00000000
00000000
00000000
00000000
00000000
00000000
00000000
FFFFFC00
FFFFFC00
FFFFFC00
FFFFFC00
FFFFFC00
FFFFFC00
FFFFFC00
FF0003FC
FE0003FC
FE0003FC
FE0003FC
FE0003FC
FE0003FC
FE0003FC
FE0003FC
FE0003FC
FE0003FC
FE0003FC
FE0003FC
FE0003FC
FE0003FC
FE0003FC
FE0003FC
FE0003FC
FE0003FC
FE0003FC
FE0003FC
FE0003FC
FE0003FC
FE0001F8
ENDCHAR
STARTCHAR Eng
ENCODING 330
SWIDTH 685 0
DWIDTH 36 0
BBX 30 52 0 -7
BITMAP
FE0003FC
FE0003FC
FE0003FC
FE0003FC
FE0003FC
FE0003FC
FE0003FC
FFFC03FC
FFFE03FC
FFFE03FC
FFFE03FC
FFFE03FC
FFFE03FC
FFFE03FC
FFFE03FC
FFFE03FC
FFFE03FC
FFFE03FC
FFFE03FC
FFFE03FC
FFFE03FC
FFFE03FC
FF01FFFC
FE01FFFC
FE01FFFC
FE01FFFC
FE01FFFC
FE01FFFC
FE01FFFC
FE01FFFC
FE01FFFC
FE01FFFC
FE01FFFC
FE01FFFC
FE01FFFC
FE01FFFC
FE01FFFC
FE0003FC
FE0003FC
FE0003FC
FE0003FC
FE0003FC
FE0003FC
FE0003FC
FE0003F8
0001FC00
0001FC00
0001FC00
0001FC00
0001FC00
0001FC00
0001FC00
ENDCHAR
STARTCHAR eng
ENCODING 331
SWIDTH 685 0
DWIDTH 36 0
BBX 30 37 0 -7
BITMAP
FFFFFC00
FFFFFC00
FFFFFC00
FFFFFC00
FFFFFC00
FFFFFC00
FFFFFC00
FF0003FC
FE0003FC
FE0003FC
FE0003FC
FE0003FC
FE0003FC
FE0003FC
FE0003FC
FE0003FC
FE0003FC
FE0003FC
FE0003FC
FE0003FC
FE0003FC
FE0003FC
FE0003FC
FE0003FC
FE0003FC
FE0003FC
FE0003FC
FE0003FC
FE0003FC
FE0003F8
0001FC00
0001FC00
0001FC00
0001FC00
0001FC00
0001FC00
0001FC00
ENDCHAR
STARTCHAR Omacron
ENCODING 332
SWIDTH 685 0
DWIDTH 36 0
BBX 30 45 0 0
BITMAP
01FFFC00
01FFFC00
01FFFC00
01FFFC00
01FFFC00
01FFFC00
01FFFC00
FE0003F8
FE0003FC
FE0003FC
FE0003FC
FE0003FC
FE0003FC
FE0003FC
FE0003FC
FE0003FC
FE0003FC
FE0003FC
FE0003FC
FE0003FC
FE0003FC
FE0003FC
FE0003FC
FE0003FC
FE0003FC
FE0003FC
FE0003FC
FE0003FC
FE0003FC
FE0003FC
FE0003FC
FE0003FC
FE0003FC
FE0003FC
FE0003FC
FE0003FC
FE0003FC
01FFFC00
01FFFC00
01FFFC00
01FFFC00
01FFFC00
01FFFC00
01FFFC00
00FFFC00
ENDCHAR
STARTCHAR omacron
ENCODING 333
SWIDTH 685 0
DWIDTH 36 0
BBX 30 45 0 0
BITMAP
FFFFFFFC
FFFFFFFC
FFFFFFFC
FFFFFFFC
FFFFFFFC
FFFFFFFC
FFFFFFFC
00000000
00000000
00000000
00000000
00000000
00000000
00000000
00000000
01FFFC00
01FFFC00
01FFFC00
01FFFC00
01FFFC00
01FFFC00
01FFFC00
FE0003FC
FE0003FC
FE0003FC
FE0003FC
FE0003FC
FE0003FC
FE0003FC
FE0003FC
FE0003FC
FE0003FC
FE0003FC
FE0003FC
FE0003FC
FE0003FC
FE0003FC
01FFFC00
01FFFC00
01FFFC00
01FFFC00
01FFFC00
01FFFC00
01FFFC00
00FFFC00
ENDCHAR
STARTCHAR Obreve
ENCODING 334
SWIDTH 685 0
DWIDTH 36 0
BBX 30 45 0 0
BITMAP
01FFFC00
01FFFC00
01FFFC00
01FFFC00
01FFFC00
01FFFC00
01FFFC00
FE0003F8
FE0003FC
FE0003FC
FE0003FC
FE0003FC
FE0003FC
FE0003FC
FE0003FC
FE0003FC
FE0003FC
FE0003FC
FE0003FC
FE0003FC
FE0003FC
FE0003FC
FE0003FC
FE0003FC
FE0003FC
FE0003FC
FE0003FC
FE0003FC
FE0003FC
FE0003FC
FE0003FC
FE0003FC
FE0003FC
FE0003FC
FE0003FC
FE0003FC
FE0003FC
01FFFC00
01FFFC00
01FFFC00
01FFFC00
01FFFC00
01FFFC00
01FFFC00
00FFFC00
ENDCHAR
STARTCHAR obreve
ENCODING 335
SWIDTH 685 0
DWIDTH 36 0
BBX 30 45 0 0
BITMAP
FE0003FC
FE0003FC
FE0003FC
FE0003FC
FE0003FC
FE0003FC
FE0003FC
01FFFC00
01FFFC00
01FFFC00
01FFFC00
01FFFC00
01FFFC00
01FFFC00
01FFFC00
01FFFC00
01FFFC00
01FFFC00
01FFFC00
01FFFC00
01FFFC00
01FFFC00
FE0003FC
FE0003FC
FE0003FC
FE0003FC
FE0003FC
FE0003FC
FE0003FC
FE0003FC
FE0003FC
FE0003FC
FE0003FC
FE0003FC
FE0003FC
FE0003FC
FE0003FC
01FFFC00
01FFFC00
01FFFC00
01FFFC00
01FFFC00
01FFFC00
01FFFC00
00FFFC00
ENDCHAR
STARTCHAR Ohungarumlaut
ENCODING 336
SWIDTH 685 0
DWIDTH 36 0
BBX 30 45 0 0
BITMAP
01FFFC00
01FFFC00
01FFFC00
01FFFC00
01FFFC00
01FFFC00
01FFFC00
FE0003F8
FE0003FC
FE0003FC
FE0003FC
FE0003FC
FE0003FC
FE0003FC
FE0003FC
FE0003FC
FE0003FC
FE0003FC
FE0003FC
FE0003FC
FE0003FC
FE0003FC
FE0003FC
FE0003FC
FE0003FC
FE0003FC
FE0003FC
FE0003FC
FE0003FC
FE0003FC
FE0003FC
FE0003FC
FE0003FC
FE0003FC
FE0003FC
FE0003FC
FE0003FC
01FFFC00
01FFFC00
01FFFC00
01FFFC00
01FFFC00
01FFFC00
01FFFC00
00FFFC00
ENDCHAR
STARTCHAR ohungarumlaut
ENCODING 337
SWIDTH 685 0
DWIDTH 36 0
BBX 37 45 0 0
BITMAP
01FE0003F8
01FE0003F8
01FE0003F8
01FE0003F8
01FE0003F8
01FE0003F8
01FE0003F8
FE0001FC00
FE0003FC00
FE0003FC00
FE0003FC00
FE0003FC00
FE0003FC00
FE0003FC00
FE0003FC00
01FFFC0000
01FFFC0000
01FFFC0000
01FFFC0000
01FFFC0000
01FFFC0000
01FFFC0000
FE0003FC00
FE0003FC00
FE0003FC00
FE0003FC00
FE0003FC00
FE0003FC00
FE0003FC00
FE0003FC00
FE0003FC00
FE0003FC00
FE0003FC00
FE0003FC00
FE0003FC00
FE0003FC00
FE0003FC00
01FFFC0000
01FFFC0000
01FFFC0000
01FFFC0000
01FFFC0000
01FFFC0000
01FFFC0000
00FFFC0000
ENDCHAR
STARTCHAR OE
ENCODING 338
SWIDTH 685 0
DWIDTH 36 0
BBX 30 45 0 0
BITMAP
01FFFFFC
01FFFFFC
01FFFFFC
01FFFFFC
01FFFFFC
01FFFFFC
01FFFFFC
FE03FE00
FE01FC00
FE01FC00
FE01FC00
FE01FC00
FE01FC00
FE01FC00
FE01FC00
FE01FFFC
FE01FFFC
FE01FFFC
FE01FFFC
FE01FFFC
FE01FFFC
FE01FFFC
FE01FC00
FE01FC00
FE01FC00
FE01FC00
FE01FC00
FE01FC00
FE01FC00
FE01FC00
FE01FC00
FE01FC00
FE01FC00
FE01FC00
FE01FC00
FE01FC00
FE01FC00
01FFFFFC
01FFFFFC
01FFFFFC
01FFFFFC
01FFFFFC
01FFFFFC
01FFFFFC
00FFFFF8
ENDCHAR
STARTCHAR oe
ENCODING 339
SWIDTH 685 0
DWIDTH 36 0
BBX 30 30 0 0
BITMAP
01FFFFFC
01FFFFFC
01FFFFFC
01FFFFFC
01FFFFFC
01FFFFFC
01FFFFFC
FE01FFFC
FE01FFFC
FE01FFFC
FE01FFFC
FE01FFFC
FE01FFFC
FE01FFFC
FE01FFFC
FE01FC00
FE01FC00
FE01FC00
FE01FC00
FE01FC00
FE01FC00
FE01FC00
01FFFFFC
01FFFFFC
01FFFFFC
01FFFFFC
01FFFFFC
01FFFFFC
01FFFFFC
00FFFFF8
ENDCHAR
STARTCHAR Racute
ENCODING 340
SWIDTH 685 0
DWIDTH 36 0
BBX 30 45 0 0
BITMAP
FFFFFC00
FFFFFC00
FFFFFC00
FFFFFC00
FFFFFC00
FFFFFC00
FFFFFC00
FF0003F8
FE0003FC
FE0003FC
FE0003FC
FE0003FC
FE0003FC
FE0003FC
FE0003FC
FE0003FC
FE0003FC
FE0003FC
FE0003FC
FE0003FC
FE0003FC
FE0003FC
FFFFFC00
FFFFFC00
FFFFFC00
FFFFFC00
FFFFFC00
FFFFFC00
FFFFFC00
FFFFFC00
FE01FC00
FE01FC00
FE01FC00
FE01FC00
FE01FC00
FE01FC00
FE01FC00
FE0003FC
FE0003FC
FE0003FC
FE0003FC
FE0003FC
FE0003FC
FE0003FC
FE0001F8
ENDCHAR
STARTCHAR racute
ENCODING 341
SWIDTH 685 0
DWIDTH 36 0
BBX 30 45 0 0
BITMAP
0001FC00
0001FC00
0001FC00
0001FC00
0001FC00
0001FC00
0001FC00
00FE0000
01FE0000
01FE0000
01FE0000
01FE0000
01FE0000
01FE0000
01FE0000
FFFFFC00
FFFFFC00
FFFFFC00
FFFFFC00
FFFFFC00
FFFFFC00
FFFFFC00
FF0003FC
FE0003FC
FE0003FC
FE0003FC
FE0003FC
FE0003FC
FE0003FC
FE0003FC
FE000000
FE000000
FE000000
FE000000
FE000000
FE000000
FE000000
FE000000
FE000000
FE000000
FE000000
FE000000
FE000000
FE000000
FE000000
ENDCHAR
STARTCHAR Rcommaaccent
ENCODING 342
SWIDTH 685 0
DWIDTH 36 0
BBX 30 52 0 -7
BITMAP
FFFFFC00
FFFFFC00
FFFFFC00
FFFFFC00
FFFFFC00
FFFFFC00
FFFFFC00
FF0003F8
FE0003FC
FE0003FC
FE0003FC
FE0003FC
FE0003FC
FE0003FC
FE0003FC
FE0003FC
FE0003FC
FE0003FC
FE0003FC
FE0003FC
FE0003FC
FE0003FC
FFFFFC00
FFFFFC00
FFFFFC00
FFFFFC00
FFFFFC00
FFFFFC00
FFFFFC00
FFFFFC00
FE01FC00
FE01FC00
FE01FC00
FE01FC00
FE01FC00
FE01FC00
FE01FC00
FE0003FC
FE0003FC
FE0003FC
FE0003FC
FE0003FC
FE0003FC
FE0003FC
FE0001F8
FE000000
FE000000
FE000000
FE000000
FE000000
FE000000
FE000000
ENDCHAR
STARTCHAR rcommaaccent
ENCODING 343
SWIDTH 685 0
DWIDTH 36 0
BBX 30 37 0 -7
BITMAP
FFFFFC00
FFFFFC00
FFFFFC00
FFFFFC00
FFFFFC00
FFFFFC00
FFFFFC00
FF0003FC
FE0003FC
FE0003FC
FE0003FC
FE0003FC
FE0003FC
FE0003FC
FE0003FC
FE000000
FE000000
FE000000
FE000000
FE000000
FE000000
FE000000
FE000000
FE000000
FE000000
FE000000
FE000000
FE000000
FE000000
FE000000
01FE0000
01FE0000
01FE0000
01FE0000
01FE0000
01FE0000
01FE0000
ENDCHAR
STARTCHAR Rcaron
ENCODING 344
SWIDTH 685 0
DWIDTH 36 0
BBX 30 45 0 0
BITMAP
FFFFFC00
FFFFFC00
FFFFFC00
FFFFFC00
FFFFFC00
FFFFFC00
FFFFFC00
FF0003F8
FE0003FC
FE0003FC
FE0003FC
FE0003FC
FE0003FC
FE0003FC
FE0003FC
FE0003FC
FE0003FC
FE0003FC
FE0003FC
FE0003FC
FE0003FC
FE0003FC
FFFFFC00
FFFFFC00
FFFFFC00
FFFFFC00
FFFFFC00
FFFFFC00
FFFFFC00
FFFFFC00
FE01FC00
FE01FC00
FE01FC00
FE01FC00
FE01FC00
FE01FC00
FE01FC00
FE0003FC
FE0003FC
FE0003FC
FE0003FC
FE0003FC
FE0003FC
FE0003FC
FE0001F8
ENDCHAR
STARTCHAR rcaron
ENCODING 345
SWIDTH 685 0
DWIDTH 36 0
BBX 30 45 0 0
BITMAP
FE01FC00
FE01FC00
FE01FC00
FE01FC00
FE01FC00
FE01FC00
FE01FC00
01FE0000
01FE0000
01FE0000
01FE0000
01FE0000
01FE0000
01FE0000
01FE0000
FFFFFC00
FFFFFC00
FFFFFC00
FFFFFC00
FFFFFC00
FFFFFC00
FFFFFC00
FF0003FC
FE0003FC
FE0003FC
FE0003FC
FE0003FC
FE0003FC
FE0003FC
FE0003FC
FE000000
FE000000
FE000000
FE000000
FE000000
FE000000
FE000000
FE000000
FE000000
FE000000
FE000000
FE000000
FE000000
FE000000
FE000000
ENDCHAR
STARTCHAR Sacute
ENCODING 346
SWIDTH 685 0
DWIDTH 36 0
BBX 30 45 0 0
BITMAP
01FFFC00
01FFFC00
01FFFC00
01FFFC00
01FFFC00
01FFFC00
01FFFC00
FE0003F8
FE0003FC
FE0003FC
FE0003FC
FE0003FC
FE0003FC
FE0003FC
FE0003FC
01FE0000
01FE0000
01FE0000
01FE0000
01FE0000
01FE0000
01FE0000
0001FC00
0001FC00
0001FC00
0001FC00
0001FC00
0001FC00
0001FC00
0001FC00
FE0003FC
FE0003FC
FE0003FC
FE0003FC
FE0003FC
FE0003FC
FE0003FC
01FFFC00
01FFFC00
01FFFC00
01FFFC00
01FFFC00
01FFFC00
01FFFC00
00FFFC00
ENDCHAR
STARTCHAR sacute
ENCODING 347
SWIDTH 685 0
DWIDTH 36 0
BBX 30 45 0 0
BITMAP
0001FC00
0001FC00
0001FC00
0001FC00
0001FC00
0001FC00
0001FC00
00FE0000
01FE0000
01FE0000
01FE0000
01FE0000
01FE0000
01FE0000
01FE0000
01FFFFFC
01FFFFFC
01FFFFFC
01FFFFFC
01FFFFFC
01FFFFFC
01FFFFFC
FFFE0000
FFFE0000
FFFE0000
FFFE0000
FFFE0000
FFFE0000
FFFE0000
FFFE0000
0001FFFC
0001FFFC
0001FFFC
0001FFFC
0001FFFC
0001FFFC
0001FFFC
FFFFFC00
FFFFFC00
FFFFFC00
FFFFFC00
FFFFFC00
FFFFFC00
FFFFFC00
FFFFFC00
ENDCHAR
STARTCHAR Scircumflex
ENCODING 348
SWIDTH 685 0
DWIDTH 36 0
BBX 30 45 0 0
BITMAP
01FFFC00
01FFFC00
01FFFC00
01FFFC00
01FFFC00
01FFFC00
01FFFC00
FE0003F8
FE0003FC
FE0003FC
FE0003FC
FE0003FC
FE0003FC
FE0003FC
FE0003FC
01FE0000
01FE0000
01FE0000
01FE0000
01FE0000
01FE0000
01FE0000
0001FC00
0001FC00
0001FC00
0001FC00
0001FC00
0001FC00
0001FC00
0001FC00
FE0003FC
FE0003FC
FE0003FC
FE0003FC
FE0003FC
FE0003FC
FE0003FC
01FFFC00
01FFFC00
01FFFC00
01FFFC00
01FFFC00
01FFFC00
01FFFC00
00FFFC00
ENDCHAR
STARTCHAR scircumflex
ENCODING 349
SWIDTH 685 0
DWIDTH 36 0
BBX 30 45 0 0
BITMAP
01FFFC00
01FFFC00
01FFFC00
01FFFC00
01FFFC00
01FFFC00
01FFFC00
00000000
00000000
00000000
00000000
00000000
00000000
00000000
00000000
01FFFFFC
01FFFFFC
01FFFFFC
01FFFFFC
01FFFFFC
01FFFFFC
01FFFFFC
FFFE0000
FFFE0000
FFFE0000
FFFE0000
FFFE0000
FFFE0000
FFFE0000
FFFE0000
0001FFFC
0001FFFC
0001FFFC
0001FFFC
0001FFFC
0001FFFC
0001FFFC
FFFFFC00
FFFFFC00
FFFFFC00
FFFFFC00
FFFFFC00
FFFFFC00
FFFFFC00
FFFFFC00
ENDCHAR
STARTCHAR Scedilla
ENCODING 350
SWIDTH 685 0
DWIDTH 36 0
BBX 30 52 0 -7
BITMAP
01FFFC00
01FFFC00
01FFFC00
01FFFC00
01FFFC00
01FFFC00
01FFFC00
FE0003F8
FE0003FC
FE0003FC
FE0003FC
FE0003FC
FE0003FC
FE0003FC
FE0003FC
01FE0000
01FE0000
01FE0000
01FE0000
01FE0000
01FE0000
01FE0000
0001FC00
0001FC00
0001FC00
0001FC00
0001FC00
0001FC00
0001FC00
0001FC00
FE0003FC
FE0003FC
FE0003FC
FE0003FC
FE0003FC
FE0003FC
FE0003FC
01FFFC00
01FFFC00
01FFFC00
01FFFC00
01FFFC00
01FFFC00
01FFFC00
01FFFC00
01FE0000
01FE0000
01FE0000
01FE0000
01FE0000
01FE0000
01FE0000
ENDCHAR
STARTCHAR scedilla
ENCODING 351
SWIDTH 685 0
DWIDTH 36 0
BBX 30 37 0 -7
BITMAP
01FFFFFC
01FFFFFC
01FFFFFC
01FFFFFC
01FFFFFC
01FFFFFC
01FFFFFC
FFFE0000
FFFE0000
FFFE0000
FFFE0000
FFFE0000
FFFE0000
FFFE0000
FFFE0000
0001FFFC
0001FFFC
0001FFFC
0001FFFC
0001FFFC
0001FFFC
0001FFFC
FFFFFC00
FFFFFC00
FFFFFC00
FFFFFC00
FFFFFC00
FFFFFC00
FFFFFC00
FFFFFC00
01FE0000
01FE0000
01FE0000
01FE0000
01FE0000
01FE0000
01FE0000
ENDCHAR
STARTCHAR Scaron
ENCODING 352
SWIDTH 685 0
DWIDTH 36 0
BBX 30 45 0 0
BITMAP
01FFFC00
01FFFC00
01FFFC00
01FFFC00
01FFFC00
01FFFC00
01FFFC00
FE0003F8
FE0003FC
FE0003FC
FE0003FC
FE0003FC
FE0003FC
FE0003FC
FE0003FC
01FE0000
01FE0000
01FE0000
01FE0000
01FE0000
01FE0000
01FE0000
0001FC00
0001FC00
0001FC00
0001FC00
0001FC00
0001FC00
0001FC00
0001FC00
FE0003FC
FE0003FC
FE0003FC
FE0003FC
FE0003FC
FE0003FC
FE0003FC
01FFFC00
01FFFC00
01FFFC00
01FFFC00
01FFFC00
01FFFC00
01FFFC00
00FFFC00
ENDCHAR
STARTCHAR scaron
ENCODING 353
SWIDTH 685 0
DWIDTH 36 0
BBX 30 45 0 0
BITMAP
01FE03FC
01FE03FC
01FE03FC
01FE03FC
01FE03FC
01FE03FC
01FE03FC
0001FC00
0001FC00
0001FC00
0001FC00
0001FC00
0001FC00
0001FC00
0001FC00
01FFFFFC
01FFFFFC
01FFFFFC
01FFFFFC
01FFFFFC
01FFFFFC
01FFFFFC
FFFE0000
FFFE0000
FFFE0000
FFFE0000
FFFE0000
FFFE0000
FFFE0000
FFFE0000
0001FFFC
0001FFFC
0001FFFC
0001FFFC
0001FFFC
0001FFFC
0001FFFC
FFFFFC00
FFFFFC00
FFFFFC00
FFFFFC00
FFFFFC00
FFFFFC00
FFFFFC00
FFFFFC00
ENDCHAR
STARTCHAR Tcommaaccent
ENCODING 354
SWIDTH 685 0
DWIDTH 36 0
BBX 23 52 7 -7
BITMAP
FFFFFE
FFFFFE
FFFFFE
FFFFFE
FFFFFE
FFFFFE
FFFFFE
01FF00
00FE00
00FE00
00FE00
00FE00
00FE00
00FE00
00FE00
00FE00
00FE00
00FE00
00FE00
00FE00
00FE00
00FE00
00FE00
00FE00
00FE00
00FE00
00FE00
00FE00
00FE00
00FE00
00FE00
00FE00
00FE00
00FE00
00FE00
00FE00
00FE00
00FE00
00FE00
00FE00
00FE00
00FE00
00FE00
00FE00
00FE00
FF0000
FF0000
FF0000
FF0000
FF0000
FF0000
FF0000
ENDCHAR
STARTCHAR tcommaaccent
ENCODING 355
SWIDTH 685 0
DWIDTH 36 0
BBX 30 52 0 -7
BITMAP
01FE0000
01FE0000
01FE0000
01FE0000
01FE0000
01FE0000
01FE0000
01FE0000
01FE0000
01FE0000
01FE0000
01FE0000
01FE0000
01FE0000
01FE0000
FFFFFC00
FFFFFC00
FFFFFC00
FFFFFC00
FFFFFC00
FFFFFC00
FFFFFC00
01FE0000
01FE0000
01FE0000
01FE0000
01FE0000
01FE0000
01FE0000
01FE0000
01FE0000
01FE0000
01FE0000
01FE0000
01FE0000
01FE0000
01FE0000
0001FFFC
0001FFFC
0001FFFC
0001FFFC
0001FFFC
0001FFFC
0001FFFC
0001FFF8
01FE0000
01FE0000
01FE0000
01FE0000
01FE0000
01FE0000
01FE0000
ENDCHAR
STARTCHAR Tcaron
ENCODING 356
SWIDTH 685 0
DWIDTH 36 0
BBX 22 45 0 0
BITMAP
FFFFFC
FFFFFC
FFFFFC
FFFFFC
FFFFFC
FFFFFC
FFFFFC
01FE00
01FE00
01FE00
01FE00
01FE00
01FE00
01FE00
01FE00
01FE00
01FE00
01FE00
01FE00
01FE00
01FE00
01FE00
01FE00
01FE00
01FE00
01FE00
01FE00
01FE00
01FE00
01FE00
01FE00
01FE00
01FE00
01FE00
01FE00
01FE00
01FE00
01FE00
01FE00
01FE00
01FE00
01FE00
01FE00
01FE00
00FC00
ENDCHAR
STARTCHAR tcaron
ENCODING 357
SWIDTH 685 0
DWIDTH 36 0
BBX 30 45 0 0
BITMAP
01FE03FC
01FE03FC
01FE03FC
01FE03FC
01FE03FC
01FE03FC
01FE03FC
0001FC00
0001FC00
0001FC00
0001FC00
0001FC00
0001FC00
0001FC00
0001FC00
01FE0000
01FE0000
01FE0000
01FE0000
01FE0000
01FE0000
01FE0000
FFFFFC00
FFFFFC00
FFFFFC00
FFFFFC00
FFFFFC00
FFFFFC00
FFFFFC00
FFFFFC00
01FE0000
01FE0000
01FE0000
01FE0000
01FE0000
01FE0000
01FE0000
0001FFFC
0001FFFC
0001FFFC
0001FFFC
0001FFFC
0001FFFC
0001FFFC
0001FFF8
ENDCHAR
STARTCHAR Tbar
ENCODING 358
SWIDTH 685 0
DWIDTH 36 0
BBX 22 45 0 0
BITMAP
FFFFFC
FFFFFC
FFFFFC
FFFFFC
FFFFFC
FFFFFC
FFFFFC
01FE00
01FE00
01FE00
01FE00
01FE00
01FE00
01FE00
01FE00
FFFFFC
FFFFFC
FFFFFC
FFFFFC
FFFFFC
FFFFFC
FFFFFC
01FE00
01FE00
01FE00
01FE00
01FE00
01FE00
01FE00
01FE00
01FE00
01FE00
01FE00
01FE00
01FE00
01FE00
01FE00
01FE00
01FE00
01FE00
01FE00
01FE00
01FE00
01FE00
00FC00
ENDCHAR
STARTCHAR tbar
ENCODING 359
SWIDTH 685 0
DWIDTH 36 0
BBX 30 45 0 0
BITMAP
01FE0000
01FE0000
01FE0000
01FE0000
01FE0000
01FE0000
01FE0000
FFFFFC00
FFFFFC00
FFFFFC00
FFFFFC00
FFFFFC00
FFFFFC00
FFFFFC00
FFFFFC00
01FE0000
01FE0000
01FE0000
01FE0000
01FE0000
01FE0000
01FE0000
FFFFFC00
FFFFFC00
FFFFFC00
FFFFFC00
FFFFFC00
FFFFFC00
FFFFFC00
FFFFFC00
01FE0000
01FE0000
01FE0000
01FE0000
01FE0000
01FE0000
01FE0000
0001FFFC
0001FFFC
0001FFFC
0001FFFC
0001FFFC
0001FFFC
0001FFFC
0001FFF8
ENDCHAR
STARTCHAR Utilde
ENCODING 360
SWIDTH 685 0
DWIDTH 36 0
BBX 30 45 0 0
BITMAP
FE0003FC
FE0003FC
FE0003FC
FE0003FC
FE0003FC
FE0003FC
FE0003FC
FE0003FC
FE0003FC
FE0003FC
FE0003FC
FE0003FC
FE0003FC
FE0003FC
FE0003FC
FE0003FC
FE0003FC
FE0003FC
FE0003FC
FE0003FC
FE0003FC
FE0003FC
FE0003FC
FE0003FC
FE0003FC
FE0003FC
FE0003FC
FE0003FC
FE0003FC
FE0003FC
FE0003FC
FE0003FC
FE0003FC
FE0003FC
FE0003FC
FE0003FC
FE0003FC
01FFFC00
01FFFC00
01FFFC00
01FFFC00
01FFFC00
01FFFC00
01FFFC00
00FFFC00
ENDCHAR
STARTCHAR utilde
ENCODING 361
SWIDTH 685 0
DWIDTH 36 0
BBX 30 45 0 0
BITMAP
01FE03FC
01FE03FC
01FE03FC
01FE03FC
01FE03FC
01FE03FC
01FE03FC
FE01FC00
FE01FC00
FE01FC00
FE01FC00
FE01FC00
FE01FC00
FE01FC00
FE01FC00
FE0003FC
FE0003FC
FE0003FC
FE0003FC
FE0003FC
FE0003FC
FE0003FC
FE0003FC
FE0003FC
FE0003FC
FE0003FC
FE0003FC
FE0003FC
FE0003FC
FE0003FC
FE0003FC
FE0003FC
FE0003FC
FE0003FC
FE0003FC
FE0003FC
FE0003FC
01FFFFFC
01FFFFFC
01FFFFFC
01FFFFFC
01FFFFFC
01FFFFFC
01FFFFFC
00FFFFF8
ENDCHAR
STARTCHAR Umacron
ENCODING 362
SWIDTH 685 0
DWIDTH 36 0
BBX 30 45 0 0
BITMAP
FE0003FC
FE0003FC
FE0003FC
FE0003FC
FE0003FC
FE0003FC
FE0003FC
FE0003FC
FE0003FC
FE0003FC
FE0003FC
FE0003FC
FE0003FC
FE0003FC
FE0003FC
FE0003FC
FE0003FC
FE0003FC
FE0003FC
FE0003FC
FE0003FC
FE0003FC
FE0003FC
FE0003FC
FE0003FC
FE0003FC
FE0003FC
FE0003FC
FE0003FC
FE0003FC
FE0003FC
FE0003FC
FE0003FC
FE0003FC
FE0003FC
FE0003FC
FE0003FC
01FFFC00
01FFFC00
01FFFC00
01FFFC00
01FFFC00
01FFFC00
01FFFC00
00FFFC00
ENDCHAR
STARTCHAR umacron
ENCODING 363
SWIDTH 685 0
DWIDTH 36 0
BBX 30 45 0 0
BITMAP
FFFFFFFC
FFFFFFFC
FFFFFFFC
FFFFFFFC
FFFFFFFC
FFFFFFFC
FFFFFFFC
00000000
00000000
00000000
00000000
00000000
00000000
00000000
00000000
FE0003FC
FE0003FC
FE0003FC
FE0003FC
FE0003FC
FE0003FC
FE0003FC
FE0003FC
FE0003FC
FE0003FC
FE0003FC
FE0003FC
FE0003FC
FE0003FC
FE0003FC
FE0003FC
FE0003FC
FE0003FC
FE0003FC
FE0003FC
FE0003FC
FE0003FC
01FFFFFC
01FFFFFC
01FFFFFC
01FFFFFC
01FFFFFC
01FFFFFC
01FFFFFC
00FFFFF8
ENDCHAR
STARTCHAR Ubreve
ENCODING 364
SWIDTH 685 0
DWIDTH 36 0
BBX 30 45 0 0
BITMAP
FE0003FC
FE0003FC
FE0003FC
FE0003FC
FE0003FC
FE0003FC
FE0003FC
FE0003FC
FE0003FC
FE0003FC
FE0003FC
FE0003FC
FE0003FC
FE0003FC
FE0003FC
FE0003FC
FE0003FC
FE0003FC
FE0003FC
FE0003FC
FE0003FC
FE0003FC
FE0003FC
FE0003FC
FE0003FC
FE0003FC
FE0003FC
FE0003FC
FE0003FC
FE0003FC
FE0003FC
FE0003FC
FE0003FC
FE0003FC
FE0003FC
FE0003FC
FE0003FC
01FFFC00
01FFFC00
01FFFC00
01FFFC00
01FFFC00
01FFFC00
01FFFC00
00FFFC00
ENDCHAR
STARTCHAR ubreve
ENCODING 365
SWIDTH 685 0
DWIDTH 36 0
BBX 30 45 0 0
BITMAP
FE0003FC
FE0003FC
FE0003FC
FE0003FC
FE0003FC
FE0003FC
FE0003FC
01FFFC00
01FFFC00
01FFFC00
01FFFC00
01FFFC00
01FFFC00
01FFFC00
00FFFC00
00000000
00000000
00000000
00000000
00000000
00000000
00000000
FE0003FC
FE0003FC
FE0003FC
FE0003FC
FE0003FC
FE0003FC
FE0003FC
FE0003FC
FE0003FC
FE0003FC
FE0003FC
FE0003FC
FE0003FC
FE0003FC
FE0003FC
01FFFFFC
01FFFFFC
01FFFFFC
01FFFFFC
01FFFFFC
01FFFFFC
01FFFFFC
00FFFFF8
ENDCHAR
STARTCHAR Uring
ENCODING 366
SWIDTH 685 0
DWIDTH 36 0
BBX 30 45 0 0
BITMAP
FE0003FC
FE0003FC
FE0003FC
FE0003FC
FE0003FC
FE0003FC
FE0003FC
FE0003FC
FE0003FC
FE0003FC
FE0003FC
FE0003FC
FE0003FC
FE0003FC
FE0003FC
FE0003FC
FE0003FC
FE0003FC
FE0003FC
FE0003FC
FE0003FC
FE0003FC
FE0003FC
FE0003FC
FE0003FC
FE0003FC
FE0003FC
FE0003FC
FE0003FC
FE0003FC
FE0003FC
FE0003FC
FE0003FC
FE0003FC
FE0003FC
FE0003FC
FE0003FC
01FFFC00
01FFFC00
01FFFC00
01FFFC00
01FFFC00
01FFFC00
01FFFC00
00FFFC00
ENDCHAR
STARTCHAR uring
ENCODING 367
SWIDTH 685 0
DWIDTH 36 0
BBX 30 45 0 0
BITMAP
01FFFC00
01FFFC00
01FFFC00
01FFFC00
01FFFC00
01FFFC00
01FFFC00
01FFFC00
01FFFC00
01FFFC00
01FFFC00
01FFFC00
01FFFC00
01FFFC00
00FFFC00
00000000
00000000
00000000
00000000
00000000
00000000
00000000
FE0003FC
FE0003FC
FE0003FC
FE0003FC
FE0003FC
FE0003FC
FE0003FC
FE0003FC
FE0003FC
FE0003FC
FE0003FC
FE0003FC
FE0003FC
FE0003FC
FE0003FC
01FFFFFC
01FFFFFC
01FFFFFC
01FFFFFC
01FFFFFC
01FFFFFC
01FFFFFC
00FFFFF8
ENDCHAR
STARTCHAR Uhungarumlaut
ENCODING 368
SWIDTH 685 0
DWIDTH 36 0
BBX 30 45 0 0
BITMAP
FE0003FC
FE0003FC
FE0003FC
FE0003FC
FE0003FC
FE0003FC
FE0003FC
FE0003FC
FE0003FC
FE0003FC
FE0003FC
FE0003FC
FE0003FC
FE0003FC
FE0003FC
FE0003FC
FE0003FC
FE0003FC
FE0003FC
FE0003FC
FE0003FC
FE0003FC
FE0003FC
FE0003FC
FE0003FC
FE0003FC
FE0003FC
FE0003FC
FE0003FC
FE0003FC
FE0003FC
FE0003FC
FE0003FC
FE0003FC
FE0003FC
FE0003FC
FE0003FC
01FFFC00
01FFFC00
01FFFC00
01FFFC00
01FFFC00
01FFFC00
01FFFC00
00FFFC00
ENDCHAR
STARTCHAR uhungarumlaut
ENCODING 369
SWIDTH 685 0
DWIDTH 36 0
BBX 37 45 0 0
BITMAP
01FE0003F8
01FE0003F8
01FE0003F8
01FE0003F8
01FE0003F8
01FE0003F8
01FE0003F8
FE0001FC00
FE0003FC00
FE0003FC00
FE0003FC00
FE0003FC00
FE0003FC00
FE0003FC00
FE0003FC00
0000000000
0000000000
0000000000
0000000000
0000000000
0000000000
0000000000
FE0003FC00
FE0003FC00
FE0003FC00
FE0003FC00
FE0003FC00
FE0003FC00
FE0003FC00
FE0003FC00
FE0003FC00
FE0003FC00
FE0003FC00
FE0003FC00
FE0003FC00
FE0003FC00
FE0003FC00
01FFFFFC00
01FFFFFC00
01FFFFFC00
01FFFFFC00
01FFFFFC00
01FFFFFC00
01FFFFFC00
00FFFFF800
ENDCHAR
STARTCHAR Uogonek
ENCODING 370
SWIDTH 685 0
DWIDTH 36 0
BBX 30 52 0 -7
BITMAP
FE0003FC
FE0003FC
FE0003FC
FE0003FC
FE0003FC
FE0003FC
FE0003FC
FE0003FC
FE0003FC
FE0003FC
FE0003FC
FE0003FC
FE0003FC
FE0003FC
FE0003FC
FE0003FC
FE0003FC
FE0003FC
FE0003FC
FE0003FC
FE0003FC
FE0003FC
FE0003FC
FE0003FC
FE0003FC
FE0003FC
FE0003FC
FE0003FC
FE0003FC
FE0003FC
FE0003FC
FE0003FC
FE0003FC
FE0003FC
FE0003FC
FE0003FC
FE0003FC
01FFFC00
01FFFC00
01FFFC00
01FFFC00
01FFFC00
01FFFC00
01FFFC00
01FFFC00
01FE0000
01FE0000
01FE0000
01FE0000
01FE0000
01FE0000
01FE0000
ENDCHAR
STARTCHAR uogonek
ENCODING 371
SWIDTH 685 0
DWIDTH 36 0
BBX 30 37 0 -7
BITMAP
FE0003FC
FE0003FC
FE0003FC
FE0003FC
FE0003FC
FE0003FC
FE0003FC
FE0003FC
FE0003FC
FE0003FC
FE0003FC
FE0003FC
FE0003FC
FE0003FC
FE0003FC
FE0003FC
FE0003FC
FE0003FC
FE0003FC
FE0003FC
FE0003FC
FE0003FC
01FFFFFC
01FFFFFC
01FFFFFC
01FFFFFC
01FFFFFC
01FFFFFC
01FFFFFC
00FFFFF8
0001FC00
0001FC00
0001FC00
0001FC00
0001FC00
0001FC00
0001FC00
ENDCHAR
STARTCHAR Wcircumflex
ENCODING 372
SWIDTH 685 0
DWIDTH 36 0
BBX 30 45 0 0
BITMAP
FE0003FC
FE0003FC
FE0003FC
FE0003FC
FE0003FC
FE0003FC
FE0003FC
FE0003FC
FE0003FC
FE0003FC
FE0003FC
FE0003FC
FE0003FC
FE0003FC
FE0003FC
FE0003FC
FE0003FC
FE0003FC
FE0003FC
FE0003FC
FE0003FC
FE0003FC
FFFFFFFC
FFFFFFFC
FFFFFFFC
FFFFFFFC
FFFFFFFC
FFFFFFFC
FFFFFFFC
FFFFFFFC
FFFFFFFC
FFFFFFFC
FFFFFFFC
FFFFFFFC
FFFFFFFC
FFFFFFFC
FFFFFFFC
FF0003FC
FE0003FC
FE0003FC
FE0003FC
FE0003FC
FE0003FC
FE0003FC
FE0001F8
ENDCHAR
STARTCHAR wcircumflex
ENCODING 373
SWIDTH 685 0
DWIDTH 36 0
BBX 30 45 0 0
BITMAP
0001FC00
0001FC00
0001FC00
0001FC00
0001FC00
0001FC00
0001FC00
00FE03F8
01FE03FC
01FE03FC
01FE03FC
01FE03FC
01FE03FC
01FE03FC
00FE03FC
00000000
00000000
00000000
00000000
00000000
00000000
00000000
FE0003FC
FE0003FC
FE0003FC
FE0003FC
FE0003FC
FE0003FC
FE0003FC
FF0003FC
FFFFFFFC
FFFFFFFC
FFFFFFFC
FFFFFFFC
FFFFFFFC
FFFFFFFC
FFFFFFFC
FFFFFFFC
FFFFFFFC
FFFFFFFC
FFFFFFFC
FFFFFFFC
FFFFFFFC
FFFFFFFC
FFFFFFF8
ENDCHAR
STARTCHAR Ycircumflex
ENCODING 374
SWIDTH 685 0
DWIDTH 36 0
BBX 22 45 0 0
BITMAP
FE01FC
FE01FC
FE01FC
FE01FC
FE01FC
FE01FC
FE01FC
FE01FC
FE01FC
FE01FC
FE01FC
FE01FC
FE01FC
FE01FC
FE01FC
FE01FC
FE01FC
FE01FC
FE01FC
FE01FC
FE01FC
FE01FC
01FE00
01FE00
01FE00
01FE00
01FE00
01FE00
01FE00
01FE00
01FE00
01FE00
01FE00
01FE00
01FE00
01FE00
01FE00
01FE00
01FE00
01FE00
01FE00
01FE00
01FE00
01FE00
00FC00
ENDCHAR
STARTCHAR ycircumflex
ENCODING 375
SWIDTH 685 0
DWIDTH 36 0
BBX 30 52 0 -7
BITMAP
0001FC00
0001FC00
0001FC00
0001FC00
0001FC00
0001FC00
0001FC00
00FE03F8
01FE03FC
01FE03FC
01FE03FC
01FE03FC
01FE03FC
01FE03FC
00FE03FC
00000000
00000000
00000000
00000000
00000000
00000000
00000000
FE0003FC
FE0003FC
FE0003FC
FE0003FC
FE0003FC
FE0003FC
FE0003FC
FE0003FC
01FE03FC
01FE03FC
01FE03FC
01FE03FC
01FE03FC
01FE03FC
01FE03FC
0001FC00
0001FC00
0001FC00
0001FC00
0001FC00
0001FC00
0001FC00
0001FC00
01FE0000
01FE0000
01FE0000
01FE0000
01FE0000
01FE0000
01FE0000
ENDCHAR
STARTCHAR Ydieresis
ENCODING 376
SWIDTH 685 0
DWIDTH 36 0
BBX 22 45 0 0
BITMAP
FE01FC
FE01FC
FE01FC
FE01FC
FE01FC
FE01FC
FE01FC
FE01FC
FE01FC
FE01FC
FE01FC
FE01FC
FE01FC
FE01FC
FE01FC
FE01FC
FE01FC
FE01FC
FE01FC
FE01FC
FE01FC
FE01FC
01FE00
01FE00
01FE00
01FE00
01FE00
01FE00
01FE00
01FE00
01FE00
01FE00
01FE00
01FE00
01FE00
01FE00
01FE00
01FE00
01FE00
01FE00
01FE00
01FE00
01FE00
01FE00
00FC00
ENDCHAR
STARTCHAR Zacute
ENCODING 377
SWIDTH 685 0
DWIDTH 36 0
BBX 30 45 0 0
BITMAP
FFFFFFFC
FFFFFFFC
FFFFFFFC
FFFFFFFC
FFFFFFFC
FFFFFFFC
FFFFFFFC
000003FC
000003FC
000003FC
000003FC
000003FC
000003FC
000003FC
000003FC
0001FC00
0001FC00
0001FC00
0001FC00
0001FC00
0001FC00
0001FC00
00FE0000
01FE0000
01FE0000
01FE0000
01FE0000
01FE0000
01FE0000
01FE0000
FE000000
FE000000
FE000000
FE000000
FE000000
FE000000
FE000000
FFFFFFFC
FFFFFFFC
FFFFFFFC
FFFFFFFC
FFFFFFFC
FFFFFFFC
FFFFFFFC
FFFFFFF8
ENDCHAR
STARTCHAR zacute
ENCODING 378
SWIDTH 685 0
DWIDTH 36 0
BBX 30 45 0 0
BITMAP
0001FC00
0001FC00
0001FC00
0001FC00
0001FC00
0001FC00
0001FC00
00FE0000
01FE0000
01FE0000
01FE0000
01FE0000
01FE0000
01FE0000
01FE0000
FFFFFFFC
FFFFFFFC
FFFFFFFC
FFFFFFFC
FFFFFFFC
FFFFFFFC
FFFFFFFC
0001FC00
0001FC00
0001FC00
0001FC00
0001FC00
0001FC00
0001FC00
0001FC00
01FE0000
01FE0000
01FE0000
01FE0000
01FE0000
01FE0000
01FE0000
FFFFFFFC
FFFFFFFC
FFFFFFFC
FFFFFFFC
FFFFFFFC
FFFFFFFC
FFFFFFFC
FFFFFFF8
ENDCHAR
STARTCHAR Zdotaccent
ENCODING 379
SWIDTH 685 0
DWIDTH 36 0
BBX 30 45 0 0
BITMAP
FFFFFFFC
FFFFFFFC
FFFFFFFC
FFFFFFFC
FFFFFFFC
FFFFFFFC
FFFFFFFC
000003FC
000003FC
000003FC
000003FC
000003FC
000003FC
000003FC
000003FC
0001FC00
0001FC00
0001FC00
0001FC00
0001FC00
0001FC00
0001FC00
00FE0000
01FE0000
01FE0000
01FE0000
01FE0000
01FE0000
01FE0000
01FE0000
FE000000
FE000000
FE000000
FE000000
FE000000
FE000000
FE000000
FFFFFFFC
FFFFFFFC
FFFFFFFC
FFFFFFFC
FFFFFFFC
FFFFFFFC
FFFFFFFC
FFFFFFF8
ENDCHAR
STARTCHAR zdotaccent
ENCODING 380
SWIDTH 685 0
DWIDTH 36 0
BBX 30 45 0 0
BITMAP
0001FC00
0001FC00
0001FC00
0001FC00
0001FC00
0001FC00
0001FC00
00000000
00000000
00000000
00000000
00000000
00000000
00000000
00000000
FFFFFFFC
FFFFFFFC
FFFFFFFC
FFFFFFFC
FFFFFFFC
FFFFFFFC
FFFFFFFC
0001FC00
0001FC00
0001FC00
0001FC00
0001FC00
0001FC00
0001FC00
0001FC00
01FE0000
01FE0000
01FE0000
01FE0000
01FE0000
01FE0000
01FE0000
FFFFFFFC
FFFFFFFC
FFFFFFFC
FFFFFFFC
FFFFFFFC
FFFFFFFC
FFFFFFFC
FFFFFFF8
ENDCHAR
STARTCHAR Zcaron
ENCODING 381
SWIDTH 685 0
DWIDTH 36 0
BBX 30 45 0 0
BITMAP
FFFFFFFC
FFFFFFFC
FFFFFFFC
FFFFFFFC
FFFFFFFC
FFFFFFFC
FFFFFFFC
000003FC
000003FC
000003FC
000003FC
000003FC
000003FC
000003FC
000003FC
0001FC00
0001FC00
0001FC00
0001FC00
0001FC00
0001FC00
0001FC00
00FE0000
01FE0000
01FE0000
01FE0000
01FE0000
01FE0000
01FE0000
01FE0000
FE000000
FE000000
FE000000
FE000000
FE000000
FE000000
FE000000
FFFFFFFC
FFFFFFFC
FFFFFFFC
FFFFFFFC
FFFFFFFC
FFFFFFFC
FFFFFFFC
FFFFFFF8
ENDCHAR
STARTCHAR zcaron
ENCODING 382
SWIDTH 685 0
DWIDTH 36 0
BBX 30 45 0 0
BITMAP
01FE03FC
01FE03FC
01FE03FC
01FE03FC
01FE03FC
01FE03FC
01FE03FC
0001FC00
0001FC00
0001FC00
0001FC00
0001FC00
0001FC00
0001FC00
0001FC00
FFFFFFFC
FFFFFFFC
FFFFFFFC
FFFFFFFC
FFFFFFFC
FFFFFFFC
FFFFFFFC
0001FC00
0001FC00
0001FC00
0001FC00
0001FC00
0001FC00
0001FC00
0001FC00
01FE0000
01FE0000
01FE0000
01FE0000
01FE0000
01FE0000
01FE0000
FFFFFFFC
FFFFFFFC
FFFFFFFC
FFFFFFFC
FFFFFFFC
FFFFFFFC
FFFFFFFC
FFFFFFF8
ENDCHAR
STARTCHAR longs
ENCODING 383
SWIDTH 685 0
DWIDTH 36 0
BBX 23 45 7 0
BITMAP
0001FE
0001FE
0001FE
0001FE
0001FE
0001FE
0001FE
00FE00
00FE00
00FE00
00FE00
00FE00
00FE00
00FE00
00FE00
FFFE00
FFFE00
FFFE00
FFFE00
FFFE00
FFFE00
FFFE00
00FE00
00FE00
00FE00
00FE00
00FE00
00FE00
00FE00
00FE00
00FE00
00FE00
00FE00
00FE00
00FE00
00FE00
00FE00
00FE00
00FE00
00FE00
00FE00
00FE00
00FE00
00FE00
00FE00
ENDCHAR
STARTCHAR uni0180
ENCODING 384
SWIDTH 685 0
DWIDTH 36 0
BBX 30 45 0 0
BITMAP
01FE0000
01FE0000
01FE0000
01FE0000
01FE0000
01FE0000
01FE0000
FFFFFC00
FFFFFC00
FFFFFC00
FFFFFC00
FFFFFC00
FFFFFC00
FFFFFC00
FFFFFC00
01FE0000
01FE0000
01FE0000
01FE0000
01FE0000
01FE0000
01FE0000
01FFFC00
01FFFC00
01FFFC00
01FFFC00
01FFFC00
01FFFC00
01FFFC00
01FFFC00
01FE03FC
01FE03FC
01FE03FC
01FE03FC
01FE03FC
01FE03FC
01FE03FC
01FFFC00
01FFFC00
01FFFC00
01FFFC00
01FFFC00
01FFFC00
01FFFC00
00FFFC00
ENDCHAR
STARTCHAR uni0181
ENCODING 385
SWIDTH 685 0
DWIDTH 36 0
BBX 30 45 0 0
BITMAP
FFFFFC00
FFFFFC00
FFFFFC00
FFFFFC00
FFFFFC00
FFFFFC00
FFFFFC00
01FE03F8
01FE03FC
01FE03FC
01FE03FC
01FE03FC
01FE03FC
01FE03FC
01FE03FC
01FFFC00
01FFFC00
01FFFC00
01FFFC00
01FFFC00
01FFFC00
01FFFC00
01FE03FC
01FE03FC
01FE03FC
01FE03FC
01FE03FC
01FE03FC
01FE03FC
01FE03FC
01FE03FC
01FE03FC
01FE03FC
01FE03FC
01FE03FC
01FE03FC
01FE03FC
01FFFC00
01FFFC00
01FFFC00
01FFFC00
01FFFC00
01FFFC00
01FFFC00
00FFFC00
ENDCHAR
STARTCHAR uni0182
ENCODING 386
SWIDTH 685 0
DWIDTH 36 0
BBX 30 45 0 0
BITMAP
FFFFFC00
FFFFFC00
FFFFFC00
FFFFFC00
FFFFFC00
FFFFFC00
FFFFFC00
FF000000
FE000000
FE000000
FE000000
FE000000
FE000000
FE000000
FF000000
FFFFFC00
FFFFFC00
FFFFFC00
FFFFFC00
FFFFFC00
FFFFFC00
FFFFFC00
FF0003FC
FE0003FC
FE0003FC
FE0003FC
FE0003FC
FE0003FC
FE0003FC
FE0003FC
FE0003FC
FE0003FC
FE0003FC
FE0003FC
FE0003FC
FE0003FC
FE0003FC
FFFFFC00
FFFFFC00
FFFFFC00
FFFFFC00
FFFFFC00
FFFFFC00
FFFFFC00
FFFFFC00
ENDCHAR
STARTCHAR uni0183
ENCODING 387
SWIDTH 685 0
DWIDTH 36 0
BBX 23 45 7 0
BITMAP
FFFE00
FFFE00
FFFE00
FFFE00
FFFE00
FFFE00
FFFE00
FF0000
FF0000
FF0000
FF0000
FF0000
FF0000
FF0000
FF0000
FFFE00
FFFE00
FFFE00
FFFE00
FFFE00
FFFE00
FFFE00
FF01FE
FF01FE
FF01FE
FF01FE
FF01FE
FF01FE
FF01FE
FF01FE
FF01FE
FF01FE
FF01FE
FF01FE
FF01FE
FF01FE
FF01FE
FFFE00
FFFE00
FFFE00
FFFE00
FFFE00
FFFE00
FFFE00
7FFE00
ENDCHAR
STARTCHAR uni0184
ENCODING 388
SWIDTH 685 0
DWIDTH 36 0
BBX 37 45 0 0
BITMAP
01FE000000
01FE000000
01FE000000
01FE000000
01FE000000
01FE000000
01FE000000
FFFE000000
FFFE000000
FFFE000000
FFFE000000
FFFE000000
FFFE000000
FFFE000000
FFFE000000
FFFFFFFC00
FFFFFFFC00
FFFFFFFC00
FFFFFFFC00
FFFFFFFC00
FFFFFFFC00
FFFFFFFC00
01FE0003F8
01FE0003F8
01FE0003F8
01FE0003F8
01FE0003F8
01FE0003F8
01FE0003F8
01FE0003F8
01FE0003F8
01FE0003F8
01FE0003F8
01FE0003F8
01FE0003F8
01FE0003F8
01FE0003F8
01FFFFFC00
01FFFFFC00
01FFFFFC00
01FFFFFC00
01FFFFFC00
01FFFFFC00
01FFFFFC00
00FFFFF800
ENDCHAR
STARTCHAR uni0185
ENCODING 389
SWIDTH 685 0
DWIDTH 36 0
BBX 30 45 0 0
BITMAP
01FE0000
01FE0000
01FE0000
01FE0000
01FE0000
01FE0000
01FE0000
FFFE0000
FFFE0000
FFFE0000
FFFE0000
FFFE0000
FFFE0000
FFFE0000
FFFE0000
01FFFC00
01FFFC00
01FFFC00
01FFFC00
01FFFC00
01FFFC00
01FFFC00
01FE03FC
01FE03FC
01FE03FC
01FE03FC
01FE03FC
01FE03FC
01FE03FC
01FE03FC
01FE03FC
01FE03FC
01FE03FC
01FE03FC
01FE03FC
01FE03FC
01FE03FC
01FFFC00
01FFFC00
01FFFC00
01FFFC00
01FFFC00
01FFFC00
01FFFC00
00FFFC00
ENDCHAR
STARTCHAR uni0186
ENCODING 390
SWIDTH 685 0
DWIDTH 36 0
BBX 30 45 0 0
BITMAP
01FFFC00
01FFFC00
01FFFC00
01FFFC00
01FFFC00
01FFFC00
01FFFC00
FE0003F8
FE0003FC
FE0003FC
FE0003FC
FE0003FC
FE0003FC
FE0003FC
FE0003FC
000003FC
000003FC
000003FC
000003FC
000003FC
000003FC
000003FC
000003FC
000003FC
000003FC
000003FC
000003FC
000003FC
000003FC
000003FC
FE0003FC
FE0003FC
FE0003FC
FE0003FC
FE0003FC
FE0003FC
FE0003FC
01FFFC00
01FFFC00
01FFFC00
01FFFC00
01FFFC00
01FFFC00
01FFFC00
00FFFC00
ENDCHAR
STARTCHAR uni0187
ENCODING 391
SWIDTH 685 0
DWIDTH 36 0
BBX 37 45 0 0
BITMAP
01FFFC03F8
01FFFC03F8
01FFFC03F8
01FFFC03F8
01FFFC03F8
01FFFC03F8
01FFFC03F8
FE0003FC00
FE0003FC00
FE0003FC00
FE0003FC00
FE0003FC00
FE0003FC00
FE0003FC00
FE0003FC00
FE00000000
FE00000000
FE00000000
FE00000000
FE00000000
FE00000000
FE00000000
FE00000000
FE00000000
FE00000000
FE00000000
FE00000000
FE00000000
FE00000000
FE00000000
FE0003FC00
FE0003FC00
FE0003FC00
FE0003FC00
FE0003FC00
FE0003FC00
FE0003FC00
01FFFC0000
01FFFC0000
01FFFC0000
01FFFC0000
01FFFC0000
01FFFC0000
01FFFC0000
00FFFC0000
ENDCHAR
STARTCHAR uni0188
ENCODING 392
SWIDTH 685 0
DWIDTH 36 0
BBX 30 38 0 0
BITMAP
000001F8
000003FC
000003FC
000003FC
000003FC
000003FC
000003FC
000003FC
01FFFC00
01FFFC00
01FFFC00
01FFFC00
01FFFC00
01FFFC00
01FFFC00
FE000000
FE000000
FE000000
FE000000
FE000000
FE000000
FE000000
FE000000
FE000000
FE000000
FE000000
FE000000
FE000000
FE000000
FE000000
01FFFC00
01FFFC00
01FFFC00
01FFFC00
01FFFC00
01FFFC00
01FFFC00
00FFFC00
ENDCHAR
STARTCHAR uni0189
ENCODING 393
SWIDTH 685 0
DWIDTH 36 0
BBX 30 45 0 0
BITMAP
FFFFFC00
FFFFFC00
FFFFFC00
FFFFFC00
FFFFFC00
FFFFFC00
FFFFFC00
01FE03F8
01FE03FC
01FE03FC
01FE03FC
01FE03FC
01FE03FC
01FE03FC
01FE03FC
FFFE03FC
FFFE03FC
FFFE03FC
FFFE03FC
FFFE03FC
FFFE03FC
FFFE03FC
01FE03FC
01FE03FC
01FE03FC
01FE03FC
01FE03FC
01FE03FC
01FE03FC
01FE03FC
01FE03FC
01FE03FC
01FE03FC
01FE03FC
01FE03FC
01FE03FC
01FE03FC
FFFFFC00
FFFFFC00
FFFFFC00
FFFFFC00
FFFFFC00
FFFFFC00
FFFFFC00
FFFFFC00
ENDCHAR
STARTCHAR uni018A
ENCODING 394
SWIDTH 685 0
DWIDTH 36 0
BBX 30 45 0 0
BITMAP
FFFFFC00
FFFFFC00
FFFFFC00
FFFFFC00
FFFFFC00
FFFFFC00
FFFFFC00
01FE03F8
01FE03FC
01FE03FC
01FE03FC
01FE03FC
01FE03FC
01FE03FC
01FE03FC
01FE03FC
01FE03FC
01FE03FC
01FE03FC
01FE03FC
01FE03FC
01FE03FC
01FE03FC
01FE03FC
01FE03FC
01FE03FC
01FE03FC
01FE03FC
01FE03FC
01FE03FC
01FE03FC
01FE03FC
01FE03FC
01FE03FC
01FE03FC
01FE03FC
01FE03FC
01FFFC00
01FFFC00
01FFFC00
01FFFC00
01FFFC00
01FFFC00
01FFFC00
00FFFC00
ENDCHAR
STARTCHAR uni018B
ENCODING 395
SWIDTH 685 0
DWIDTH 36 0
BBX 30 45 0 0
BITMAP
01FFFFFC
01FFFFFC
01FFFFFC
01FFFFFC
01FFFFFC
01FFFFFC
01FFFFFC
000003FC
000003FC
000003FC
000003FC
000003FC
000003FC
000003FC
000003FC
01FFFFFC
01FFFFFC
01FFFFFC
01FFFFFC
01FFFFFC
01FFFFFC
01FFFFFC
FE0003FC
FE0003FC
FE0003FC
FE0003FC
FE0003FC
FE0003FC
FE0003FC
FE0003FC
FE0003FC
FE0003FC
FE0003FC
FE0003FC
FE0003FC
FE0003FC
FE0003FC
01FFFFFC
01FFFFFC
01FFFFFC
01FFFFFC
01FFFFFC
01FFFFFC
01FFFFFC
00FFFFF8
ENDCHAR
STARTCHAR uni018C
ENCODING 396
SWIDTH 685 0
DWIDTH 36 0
BBX 23 45 7 0
BITMAP
00FFFE
00FFFE
00FFFE
00FFFE
00FFFE
00FFFE
00FFFE
0001FE
0001FE
0001FE
0001FE
0001FE
0001FE
0001FE
0001FE
00FFFE
00FFFE
00FFFE
00FFFE
00FFFE
00FFFE
00FFFE
7F01FE
FF01FE
FF01FE
FF01FE
FF01FE
FF01FE
FF01FE
FF01FE
FF01FE
FF01FE
FF01FE
FF01FE
FF01FE
FF01FE
FF01FE
00FFFE
00FFFE
00FFFE
00FFFE
00FFFE
00FFFE
00FFFE
00FFFC
ENDCHAR
STARTCHAR uni018D
ENCODING 397
SWIDTH 685 0
DWIDTH 36 0
BBX 30 37 0 -7
BITMAP
01FFFC00
01FFFC00
01FFFC00
01FFFC00
01FFFC00
01FFFC00
01FFFC00
FE0003FC
FE0003FC
FE0003FC
FE0003FC
FE0003FC
FE0003FC
FE0003FC
FE0003FC
01FFFC00
01FFFC00
01FFFC00
01FFFC00
01FFFC00
01FFFC00
01FFFC00
000003FC
000003FC
000003FC
000003FC
000003FC
000003FC
000003FC
000003F8
01FFFC00
01FFFC00
01FFFC00
01FFFC00
01FFFC00
01FFFC00
01FFFC00
ENDCHAR
STARTCHAR uni018E
ENCODING 398
SWIDTH 685 0
DWIDTH 36 0
BBX 30 45 0 0
BITMAP
FFFFFFFC
FFFFFFFC
FFFFFFFC
FFFFFFFC
FFFFFFFC
FFFFFFFC
FFFFFFFC
000003FC
000003FC
000003FC
000003FC
000003FC
000003FC
000003FC
000003FC
01FFFFFC
01FFFFFC
01FFFFFC
01FFFFFC
01FFFFFC
01FFFFFC
01FFFFFC
000003FC
000003FC
000003FC
000003FC
000003FC
000003FC
000003FC
000003FC
000003FC
000003FC
000003FC
000003FC
000003FC
000003FC
000003FC
FFFFFFFC
FFFFFFFC
FFFFFFFC
FFFFFFFC
FFFFFFFC
FFFFFFFC
FFFFFFFC
FFFFFFF8
ENDCHAR
STARTCHAR uni018F
ENCODING 399
SWIDTH 685 0
DWIDTH 36 0
BBX 30 45 0 0
BITMAP
01FFFC00
01FFFC00
01FFFC00
01FFFC00
01FFFC00
01FFFC00
01FFFC00
FE0003F8
FE0003FC
FE0003FC
FE0003FC
FE0003FC
FE0003FC
FE0003FC
FE0003FC
000003FC
000003FC
000003FC
000003FC
000003FC
000003FC
000003FC
FFFFFFFC
FFFFFFFC
FFFFFFFC
FFFFFFFC
FFFFFFFC
FFFFFFFC
FFFFFFFC
FFFFFFFC
FE0003FC
FE0003FC
FE0003FC
FE0003FC
FE0003FC
FE0003FC
FE0003FC
01FFFC00
01FFFC00
01FFFC00
01FFFC00
01FFFC00
01FFFC00
01FFFC00
00FFFC00
ENDCHAR
STARTCHAR uni0190
ENCODING 400
SWIDTH 685 0
DWIDTH 36 0
BBX 30 45 0 0
BITMAP
01FFFC00
01FFFC00
01FFFC00
01FFFC00
01FFFC00
01FFFC00
01FFFC00
FE0003F8
FE0003FC
FE0003FC
FE0003FC
FE0003FC
FE0003FC
FE0003FC
FE0003FC
01FE0000
01FE0000
01FE0000
01FE0000
01FE0000
01FE0000
01FE0000
FE000000
FE000000
FE000000
FE000000
FE000000
FE000000
FE000000
FE000000
FE0003FC
FE0003FC
FE0003FC
FE0003FC
FE0003FC
FE0003FC
FE0003FC
01FFFC00
01FFFC00
01FFFC00
01FFFC00
01FFFC00
01FFFC00
01FFFC00
00FFFC00
ENDCHAR
STARTCHAR uni0191
ENCODING 401
SWIDTH 685 0
DWIDTH 36 0
BBX 30 52 0 -7
BITMAP
01FFFFFC
01FFFFFC
01FFFFFC
01FFFFFC
01FFFFFC
01FFFFFC
01FFFFFC
01FE0000
01FE0000
01FE0000
01FE0000
01FE0000
01FE0000
01FE0000
01FE0000
01FFFC00
01FFFC00
01FFFC00
01FFFC00
01FFFC00
01FFFC00
01FFFC00
01FE0000
01FE0000
01FE0000
01FE0000
01FE0000
01FE0000
01FE0000
01FE0000
01FE0000
01FE0000
01FE0000
01FE0000
01FE0000
01FE0000
01FE0000
01FE0000
01FE0000
01FE0000
01FE0000
01FE0000
01FE0000
01FE0000
01FC0000
FE000000
FE000000
FE000000
FE000000
FE000000
FE000000
FE000000
ENDCHAR
STARTCHAR florin
ENCODING 402
SWIDTH 685 0
DWIDTH 36 0
BBX 30 52 0 -7
BITMAP
0001FC00
0001FC00
0001FC00
0001FC00
0001FC00
0001FC00
0001FC00
00FE03F8
01FE03FC
01FE03FC
01FE03FC
01FE03FC
01FE03FC
01FE03FC
01FE03FC
01FE0000
01FE0000
01FE0000
01FE0000
01FE0000
01FE0000
01FE0000
FFFFFC00
FFFFFC00
FFFFFC00
FFFFFC00
FFFFFC00
FFFFFC00
FFFFFC00
FFFFFC00
01FE0000
01FE0000
01FE0000
01FE0000
01FE0000
01FE0000
01FE0000
01FE0000
01FE0000
01FE0000
01FE0000
01FE0000
01FE0000
01FE0000
01FC0000
FE000000
FE000000
FE000000
FE000000
FE000000
FE000000
FE000000
ENDCHAR
STARTCHAR uni0193
ENCODING 403
SWIDTH 685 0
DWIDTH 36 0
BBX 30 45 0 0
BITMAP
01FFFFFC
01FFFFFC
01FFFFFC
01FFFFFC
01FFFFFC
01FFFFFC
01FFFFFC
FE0003FC
FE0003FC
FE0003FC
FE0003FC
FE0003FC
FE0003FC
FE0003FC
FE0003FC
FE000000
FE000000
FE000000
FE000000
FE000000
FE000000
FE000000
FE01FFFC
FE01FFFC
FE01FFFC
FE01FFFC
FE01FFFC
FE01FFFC
FE01FFFC
FE01FFFC
FE0003FC
FE0003FC
FE0003FC
FE0003FC
FE0003FC
FE0003FC
FE0003FC
01FFFFFC
01FFFFFC
01FFFFFC
01FFFFFC
01FFFFFC
01FFFFFC
01FFFFFC
00FFFFF8
ENDCHAR
STARTCHAR uni0194
ENCODING 404
SWIDTH 685 0
DWIDTH 36 0
BBX 30 38 0 0
BITMAP
FE0001F8
FE0003FC
FE0003FC
FE0003FC
FE0003FC
FE0003FC
FE0003FC
FE0003FC
FE0003FC
FE0003FC
FE0003FC
FE0003FC
FE0003FC
FE0003FC
FE0003FC
01FFFC00
01FFFC00
01FFFC00
01FFFC00
01FFFC00
01FFFC00
01FFFC00
01FFFC00
FE0003FC
FE0003FC
FE0003FC
FE0003FC
FE0003FC
FE0003FC
FE0003FC
01FFFC00
01FFFC00
01FFFC00
01FFFC00
01FFFC00
01FFFC00
01FFFC00
00FFFC00
ENDCHAR
STARTCHAR uni0195
ENCODING 405
SWIDTH 685 0
DWIDTH 36 0
BBX 37 45 0 0
BITMAP
FE00000000
FE00000000
FE00000000
FE00000000
FE00000000
FE00000000
FE00000000
FE00000000
FE00000000
FE00000000
FE00000000
FE00000000
FE00000000
FE00000000
FF00000000
FFFE0003F8
FFFE0003F8
FFFE0003F8
FFFE0003F8
FFFE0003F8
FFFE0003F8
FFFE0003F8
FF01FC03F8
FE01FC03F8
FE01FC03F8
FE01FC03F8
FE01FC03F8
FE01FC03F8
FE01FC03F8
FE01FC03F8
FE01FC03F8
FE01FC03F8
FE01FC03F8
FE01FC03F8
FE01FC03F8
FE01FC03F8
FE01FC03F8
FE0003FC00
FE0003FC00
FE0003FC00
FE0003FC00
FE0003FC00
FE0003FC00
FE0003FC00
FE0001F800
ENDCHAR
STARTCHAR uni0196
ENCODING 406
SWIDTH 685 0
DWIDTH 36 0
BBX 23 45 7 0
BITMAP
FFFE00
FFFE00
FFFE00
FFFE00
FFFE00
FFFE00
FFFE00
01FE00
00FE00
00FE00
00FE00
00FE00
00FE00
00FE00
00FE00
00FE00
00FE00
00FE00
00FE00
00FE00
00FE00
00FE00
00FE00
00FE00
00FE00
00FE00
00FE00
00FE00
00FE00
00FE00
00FE00
00FE00
00FE00
00FE00
00FE00
00FE00
00FE00
0001FE
0001FE
0001FE
0001FE
0001FE
0001FE
0001FE
0000FC
ENDCHAR
STARTCHAR uni0197
ENCODING 407
SWIDTH 685 0
DWIDTH 36 0
BBX 23 45 7 0
BITMAP
FFFFFE
FFFFFE
FFFFFE
FFFFFE
FFFFFE
FFFFFE
FFFFFE
01FF00
00FE00
00FE00
00FE00
00FE00
00FE00
00FE00
00FE00
FFFFFE
FFFFFE
FFFFFE
FFFFFE
FFFFFE
FFFFFE
FFFFFE
00FE00
00FE00
00FE00
00FE00
00FE00
00FE00
00FE00
00FE00
00FE00
00FE00
00FE00
00FE00
00FE00
00FE00
00FE00
7FFFFE
FFFFFE
FFFFFE
FFFFFE
FFFFFE
FFFFFE
FFFFFE
7FFFFC
ENDCHAR
STARTCHAR uni0198
ENCODING 408
SWIDTH 685 0
DWIDTH 36 0
BBX 30 45 0 0
BITMAP
FE01FC00
FE01FC00
FE01FC00
FE01FC00
FE01FC00
FE01FC00
FE01FC00
FFFE03F8
FFFE03FC
FFFE03FC
FFFE03FC
FFFE03FC
FFFE03FC
FFFE03FC
FFFE03FC
FE000000
FE000000
FE000000
FE000000
FE000000
FE000000
FE000000
FFFE0000
FFFE0000
FFFE0000
FFFE0000
FFFE0000
FFFE0000
FFFE0000
FFFE0000
FE01FC00
FE01FC00
FE01FC00
FE01FC00
FE01FC00
FE01FC00
FE01FC00
FE0003FC
FE0003FC
FE0003FC
FE0003FC
FE0003FC
FE0003FC
FE0003FC
FE0001F8
ENDCHAR
STARTCHAR uni0199
ENCODING 409
SWIDTH 685 0
DWIDTH 36 0
BBX 30 45 0 0
BITMAP
01FFFC00
01FFFC00
01FFFC00
01FFFC00
01FFFC00
01FFFC00
01FFFC00
FE000000
FE000000
FE000000
FE000000
FE000000
FE000000
FE000000
FE000000
FE01FC00
FE01FC00
FE01FC00
FE01FC00
FE01FC00
FE01FC00
FE01FC00
FFFE0000
FFFE0000
FFFE0000
FFFE0000
FFFE0000
FFFE0000
FFFE0000
FFFE0000
FE01FC00
FE01FC00
FE01FC00
FE01FC00
FE01FC00
FE01FC00
FE01FC00
FE0003FC
FE0003FC
FE0003FC
FE0003FC
FE0003FC
FE0003FC
FE0003FC
FE0001F8
ENDCHAR
STARTCHAR uni019A
ENCODING 410
SWIDTH 685 0
DWIDTH 36 0
BBX 23 45 7 0
BITMAP
FFFE00
FFFE00
FFFE00
FFFE00
FFFE00
FFFE00
FFFE00
01FE00
00FE00
00FE00
00FE00
00FE00
00FE00
00FE00
00FE00
FFFFFE
FFFFFE
FFFFFE
FFFFFE
FFFFFE
FFFFFE
FFFFFE
00FE00
00FE00
00FE00
00FE00
00FE00
00FE00
00FE00
00FE00
00FE00
00FE00
00FE00
00FE00
00FE00
00FE00
00FE00
7FFFFE
FFFFFE
FFFFFE
FFFFFE
FFFFFE
FFFFFE
FFFFFE
7FFFFC
ENDCHAR
STARTCHAR uni019B
ENCODING 411
SWIDTH 685 0
DWIDTH 36 0
BBX 23 45 7 0
BITMAP
FF0000
FF0000
FF0000
FF0000
FF0000
FF0000
FF0000
00FFFC
00FFFE
00FFFE
00FFFE
00FFFE
00FFFE
00FFFE
00FFFE
FFFE00
FFFE00
FFFE00
FFFE00
FFFE00
FFFE00
FFFE00
00FE00
00FE00
00FE00
00FE00
00FE00
00FE00
00FE00
00FE00
FF01FE
FF01FE
FF01FE
FF01FE
FF01FE
FF01FE
FF01FE
FF01FE
FF01FE
FF01FE
FF01FE
FF01FE
FF01FE
FF01FE
7E00FC
ENDCHAR
STARTCHAR uni019C
ENCODING 412
SWIDTH 685 0
DWIDTH 36 0
BBX 30 45 0 0
BITMAP
FE0003FC
FE0003FC
FE0003FC
FE0003FC
FE0003FC
FE0003FC
FE0003FC
FE0003FC
FE0003FC
FE0003FC
FE0003FC
FE0003FC
FE0003FC
FE0003FC
FE0003FC
FE0003FC
FE0003FC
FE0003FC
FE0003FC
FE0003FC
FE0003FC
FE0003FC
FE0003FC
FE0003FC
FE0003FC
FE0003FC
FE0003FC
FE0003FC
FE0003FC
FF0003FC
FFFFFFFC
FFFFFFFC
FFFFFFFC
FFFFFFFC
FFFFFFFC
FFFFFFFC
FFFFFFFC
01FE03FC
01FE03FC
01FE03FC
01FE03FC
01FE03FC
01FE03FC
01FE03FC
00FC01F8
ENDCHAR
STARTCHAR uni019D
ENCODING 413
SWIDTH 685 0
DWIDTH 36 0
BBX 37 52 0 -7
BITMAP
01FE0003F8
01FE0003F8
01FE0003F8
01FE0003F8
01FE0003F8
01FE0003F8
01FE0003F8
01FFFC03F8
01FFFC03F8
01FFFC03F8
01FFFC03F8
01FFFC03F8
01FFFC03F8
01FFFC03F8
01FFFC03F8
01FFFC03F8
01FFFC03F8
01FFFC03F8
01FFFC03F8
01FFFC03F8
01FFFC03F8
01FFFC03F8
01FE03FFF8
01FE03FFF8
01FE03FFF8
01FE03FFF8
01FE03FFF8
01FE03FFF8
01FE03FFF8
01FE03FFF8
01FE03FFF8
01FE03FFF8
01FE03FFF8
01FE03FFF8
01FE03FFF8
01FE03FFF8
01FE03FFF8
01FE0003F8
01FE0003F8
01FE0003F8
01FE0003F8
01FE0003F8
01FE0003F8
01FE0003F8
01FC0003F8
FE00000000
FE00000000
FE00000000
FE00000000
FE00000000
FE00000000
FE00000000
ENDCHAR
STARTCHAR uni019E
ENCODING 414
SWIDTH 685 0
DWIDTH 36 0
BBX 30 37 0 -7
BITMAP
FFFFFC00
FFFFFC00
FFFFFC00
FFFFFC00
FFFFFC00
FFFFFC00
FFFFFC00
FF0003FC
FE0003FC
FE0003FC
FE0003FC
FE0003FC
FE0003FC
FE0003FC
FE0003FC
FE0003FC
FE0003FC
FE0003FC
FE0003FC
FE0003FC
FE0003FC
FE0003FC
FE0003FC
FE0003FC
FE0003FC
FE0003FC
FE0003FC
FE0003FC
FE0003FC
FE0003FC
000003FC
000003FC
000003FC
000003FC
000003FC
000003FC
000003FC
ENDCHAR
STARTCHAR uni019F
ENCODING 415
SWIDTH 685 0
DWIDTH 36 0
BBX 30 45 0 0
BITMAP
01FFFC00
01FFFC00
01FFFC00
01FFFC00
01FFFC00
01FFFC00
01FFFC00
FE0003F8
FE0003FC
FE0003FC
FE0003FC
FE0003FC
FE0003FC
FE0003FC
FF0003FC
FFFFFFFC
FFFFFFFC
FFFFFFFC
FFFFFFFC
FFFFFFFC
FFFFFFFC
FFFFFFFC
FF0003FC
FE0003FC
FE0003FC
FE0003FC
FE0003FC
FE0003FC
FE0003FC
FE0003FC
FE0003FC
FE0003FC
FE0003FC
FE0003FC
FE0003FC
FE0003FC
FE0003FC
01FFFC00
01FFFC00
01FFFC00
01FFFC00
01FFFC00
01FFFC00
01FFFC00
00FFFC00
ENDCHAR
STARTCHAR Ohorn
ENCODING 416
SWIDTH 685 0
DWIDTH 36 0
BBX 37 45 0 0
BITMAP
01FFFC03F8
01FFFC03F8
01FFFC03F8
01FFFC03F8
01FFFC03F8
01FFFC03F8
01FFFC03F8
FE0003FC00
FE0003FC00
FE0003FC00
FE0003FC00
FE0003FC00
FE0003FC00
FE0003FC00
FE0003FC00
FE0003FC00
FE0003FC00
FE0003FC00
FE0003FC00
FE0003FC00
FE0003FC00
FE0003FC00
FE0003FC00
FE0003FC00
FE0003FC00
FE0003FC00
FE0003FC00
FE0003FC00
FE0003FC00
FE0003FC00
FE0003FC00
FE0003FC00
FE0003FC00
FE0003FC00
FE0003FC00
FE0003FC00
FE0003FC00
01FFFC0000
01FFFC0000
01FFFC0000
01FFFC0000
01FFFC0000
01FFFC0000
01FFFC0000
00FFFC0000
ENDCHAR
STARTCHAR ohorn
ENCODING 417
SWIDTH 685 0
DWIDTH 36 0
BBX 37 38 0 0
BITMAP
00000003F8
00000003F8
00000003F8
00000003F8
00000003F8
00000003F8
00000003F8
00000003F8
01FFFFFC00
01FFFFFC00
01FFFFFC00
01FFFFFC00
01FFFFFC00
01FFFFFC00
01FFFFFC00
FE0003FC00
FE0003FC00
FE0003FC00
FE0003FC00
FE0003FC00
FE0003FC00
FE0003FC00
FE0003FC00
FE0003FC00
FE0003FC00
FE0003FC00
FE0003FC00
FE0003FC00
FE0003FC00
FE0003FC00
01FFFC0000
01FFFC0000
01FFFC0000
01FFFC0000
01FFFC0000
01FFFC0000
01FFFC0000
00FFFC0000
ENDCHAR
STARTCHAR uni01A2
ENCODING 418
SWIDTH 685 0
DWIDTH 36 0
BBX 37 45 0 0
BITMAP
01FFFFFC00
01FFFFFC00
01FFFFFC00
01FFFFFC00
01FFFFFC00
01FFFFFC00
01FFFFFC00
FE03FE03F8
FE01FC03F8
FE01FC03F8
FE01FC03F8
FE01FC03F8
FE01FC03F8
FE01FC03F8
FE01FC03F8
FE01FC03F8
FE01FC03F8
FE01FC03F8
FE01FC03F8
FE01FC03F8
FE01FC03F8
FE01FC03F8
FE01FC03F8
FE01FC03F8
FE01FC03F8
FE01FC03F8
FE01FC03F8
FE01FC03F8
FE01FC03F8
FE01FC03F8
FE01FC03F8
FE01FC03F8
FE01FC03F8
FE01FC03F8
FE01FC03F8
FE01FC03F8
FE01FC03F8
01FE000000
01FE000000
01FE000000
01FE000000
01FE000000
01FE000000
01FE000000
00FC000000
ENDCHAR
STARTCHAR uni01A3
ENCODING 419
SWIDTH 685 0
DWIDTH 36 0
BBX 37 30 0 0
BITMAP
01FFFFFC00
01FFFFFC00
01FFFFFC00
01FFFFFC00
01FFFFFC00
01FFFFFC00
01FFFFFC00
FE01FC03F8
FE01FC03F8
FE01FC03F8
FE01FC03F8
FE01FC03F8
FE01FC03F8
FE01FC03F8
FE01FC03F8
FE01FC03F8
FE01FC03F8
FE01FC03F8
FE01FC03F8
FE01FC03F8
FE01FC03F8
FE01FC03F8
01FE0003F8
01FE0003F8
01FE0003F8
01FE0003F8
01FE0003F8
01FE0003F8
01FE0003F8
00FC0003F8
ENDCHAR
STARTCHAR uni01A4
ENCODING 420
SWIDTH 685 0
DWIDTH 36 0
BBX 30 45 0 0
BITMAP
FFFFFC00
FFFFFC00
FFFFFC00
FFFFFC00
FFFFFC00
FFFFFC00
FFFFFC00
01FE03F8
01FE03FC
01FE03FC
01FE03FC
01FE03FC
01FE03FC
01FE03FC
01FE03FC
01FE03FC
01FE03FC
01FE03FC
01FE03FC
01FE03FC
01FE03FC
01FE03FC
01FFFC00
01FFFC00
01FFFC00
01FFFC00
01FFFC00
01FFFC00
01FFFC00
01FFFC00
01FE0000
01FE0000
01FE0000
01FE0000
01FE0000
01FE0000
01FE0000
01FE0000
01FE0000
01FE0000
01FE0000
01FE0000
01FE0000
01FE0000
00FC0000
ENDCHAR
STARTCHAR uni01A5
ENCODING 421
SWIDTH 685 0
DWIDTH 36 0
BBX 30 52 0 -7
BITMAP
01FFFC00
01FFFC00
01FFFC00
01FFFC00
01FFFC00
01FFFC00
01FFFC00
FE000000
FE000000
FE000000
FE000000
FE000000
FE000000
FE000000
FF000000
FFFFFC00
FFFFFC00
FFFFFC00
FFFFFC00
FFFFFC00
FFFFFC00
FFFFFC00
FF0003FC
FE0003FC
FE0003FC
FE0003FC
FE0003FC
FE0003FC
FE0003FC
FE0003FC
FE0003FC
FE0003FC
FE0003FC
FE0003FC
FE0003FC
FE0003FC
FE0003FC
FFFFFC00
FFFFFC00
FFFFFC00
FFFFFC00
FFFFFC00
FFFFFC00
FFFFFC00
FFFFFC00
FE000000
FE000000
FE000000
FE000000
FE000000
FE000000
FE000000
ENDCHAR
STARTCHAR uni01A6
ENCODING 422
SWIDTH 685 0
DWIDTH 36 0
BBX 30 52 0 -7
BITMAP
FE000000
FE000000
FE000000
FE000000
FE000000
FE000000
FE000000
FFFFFC00
FFFFFC00
FFFFFC00
FFFFFC00
FFFFFC00
FFFFFC00
FFFFFC00
FFFFFC00
FE0003FC
FE0003FC
FE0003FC
FE0003FC
FE0003FC
FE0003FC
FE0003FC
FFFFFC00
FFFFFC00
FFFFFC00
FFFFFC00
FFFFFC00
FFFFFC00
FFFFFC00
FFFFFC00
FFFE0000
FFFE0000
FFFE0000
FFFE0000
FFFE0000
FFFE0000
FFFE0000
FF01FC00
FE01FC00
FE01FC00
FE01FC00
FE01FC00
FE01FC00
FE01FC00
FE01FC00
000003FC
000003FC
000003FC
000003FC
000003FC
000003FC
000003FC
ENDCHAR
STARTCHAR uni01A7
ENCODING 423
SWIDTH 685 0
DWIDTH 36 0
BBX 30 45 0 0
BITMAP
01FFFC00
01FFFC00
01FFFC00
01FFFC00
01FFFC00
01FFFC00
01FFFC00
FE0003F8
FE0003FC
FE0003FC
FE0003FC
FE0003FC
FE0003FC
FE0003FC
FE0003FC
0001FC00
0001FC00
0001FC00
0001FC00
0001FC00
0001FC00
0001FC00
00FE0000
01FE0000
01FE0000
01FE0000
01FE0000
01FE0000
01FE0000
01FE0000
FE0003FC
FE0003FC
FE0003FC
FE0003FC
FE0003FC
FE0003FC
FE0003FC
01FFFC00
01FFFC00
01FFFC00
01FFFC00
01FFFC00
01FFFC00
01FFFC00
00FFFC00
ENDCHAR
STARTCHAR uni01A8
ENCODING 424
SWIDTH 685 0
DWIDTH 36 0
BBX 30 30 0 0
BITMAP
FFFFFC00
FFFFFC00
FFFFFC00
FFFFFC00
FFFFFC00
FFFFFC00
FFFFFC00
0001FFFC
0001FFFC
0001FFFC
0001FFFC
0001FFFC
0001FFFC
0001FFFC
0001FFFC
FFFE0000
FFFE0000
FFFE0000
FFFE0000
FFFE0000
FFFE0000
FFFE0000
01FFFFFC
01FFFFFC
01FFFFFC
01FFFFFC
01FFFFFC
01FFFFFC
01FFFFFC
00FFFFF8
ENDCHAR
STARTCHAR uni01A9
ENCODING 425
SWIDTH 685 0
DWIDTH 36 0
BBX 30 45 0 0
BITMAP
FFFFFFFC
FFFFFFFC
FFFFFFFC
FFFFFFFC
FFFFFFFC
FFFFFFFC
FFFFFFFC
FF000000
FE000000
FE000000
FE000000
FE000000
FE000000
FE000000
FE000000
01FE0000
01FE0000
01FE0000
01FE0000
01FE0000
01FE0000
01FE0000
01FE0000
01FE0000
01FE0000
01FE0000
01FE0000
01FE0000
01FE0000
01FE0000
FE000000
FE000000
FE000000
FE000000
FE000000
FE000000
FE000000
FFFFFFFC
FFFFFFFC
FFFFFFFC
FFFFFFFC
FFFFFFFC
FFFFFFFC
FFFFFFFC
FFFFFFF8
ENDCHAR
STARTCHAR uni01AA
ENCODING 426
SWIDTH 685 0
DWIDTH 36 0
BBX 30 52 0 -7
BITMAP
01FE0000
01FE0000
01FE0000
01FE0000
01FE0000
01FE0000
01FE0000
FE01FC00
FE01FC00
FE01FC00
FE01FC00
FE01FC00
FE01FC00
FE01FC00
FE01FC00
01FFFFFC
01FFFFFC
01FFFFFC
01FFFFFC
01FFFFFC
01FFFFFC
01FFFFFC
0001FC00
0001FC00
0001FC00
0001FC00
0001FC00
0001FC00
0001FC00
0001FC00
0001FC00
0001FC00
0001FC00
0001FC00
0001FC00
0001FC00
0001FC00
0001FC00
0001FC00
0001FC00
0001FC00
0001FC00
0001FC00
0001FC00
0001FC00
000003FC
000003FC
000003FC
000003FC
000003FC
000003FC
000003FC
ENDCHAR
STARTCHAR uni01AB
ENCODING 427
SWIDTH 685 0
DWIDTH 36 0
BBX 30 52 0 -7
BITMAP
01FE0000
01FE0000
01FE0000
01FE0000
01FE0000
01FE0000
01FE0000
01FE0000
01FE0000
01FE0000
01FE0000
01FE0000
01FE0000
01FE0000
01FE0000
FFFFFC00
FFFFFC00
FFFFFC00
FFFFFC00
FFFFFC00
FFFFFC00
FFFFFC00
01FE0000
01FE0000
01FE0000
01FE0000
01FE0000
01FE0000
01FE0000
01FE0000
01FFFFFC
01FFFFFC
01FFFFFC
01FFFFFC
01FFFFFC
01FFFFFC
01FFFFFC
000003FC
000003FC
000003FC
000003FC
000003FC
000003FC
000003FC
000003F8
0001FC00
0001FC00
0001FC00
0001FC00
0001FC00
0001FC00
0001FC00
ENDCHAR
STARTCHAR uni01AC
ENCODING 428
SWIDTH 685 0
DWIDTH 36 0
BBX 30 45 0 0
BITMAP
01FFFFFC
01FFFFFC
01FFFFFC
01FFFFFC
01FFFFFC
01FFFFFC
01FFFFFC
FE03FE00
FE01FC00
FE01FC00
FE01FC00
FE01FC00
FE01FC00
FE01FC00
FE01FC00
FE01FC00
FE01FC00
FE01FC00
FE01FC00
FE01FC00
FE01FC00
FE01FC00
0001FC00
0001FC00
0001FC00
0001FC00
0001FC00
0001FC00
0001FC00
0001FC00
0001FC00
0001FC00
0001FC00
0001FC00
0001FC00
0001FC00
0001FC00
0001FC00
0001FC00
0001FC00
0001FC00
0001FC00
0001FC00
0001FC00
0001FC00
ENDCHAR
STARTCHAR uni01AD
ENCODING 429
SWIDTH 685 0
DWIDTH 36 0
BBX 30 45 0 0
BITMAP
0001FFFC
0001FFFC
0001FFFC
0001FFFC
0001FFFC
0001FFFC
0001FFFC
00FE0000
01FE0000
01FE0000
01FE0000
01FE0000
01FE0000
01FE0000
01FE0000
FFFFFC00
FFFFFC00
FFFFFC00
FFFFFC00
FFFFFC00
FFFFFC00
FFFFFC00
01FE0000
01FE0000
01FE0000
01FE0000
01FE0000
01FE0000
01FE0000
01FE0000
01FE0000
01FE0000
01FE0000
01FE0000
01FE0000
01FE0000
01FE0000
0001FFFC
0001FFFC
0001FFFC
0001FFFC
0001FFFC
0001FFFC
0001FFFC
0001FFF8
ENDCHAR
STARTCHAR uni01AE
ENCODING 430
SWIDTH 685 0
DWIDTH 36 0
BBX 30 52 0 -7
BITMAP
FFFFFC00
FFFFFC00
FFFFFC00
FFFFFC00
FFFFFC00
FFFFFC00
FFFFFC00
01FE0000
01FE0000
01FE0000
01FE0000
01FE0000
01FE0000
01FE0000
01FE0000
01FE0000
01FE0000
01FE0000
01FE0000
01FE0000
01FE0000
01FE0000
01FE0000
01FE0000
01FE0000
01FE0000
01FE0000
01FE0000
01FE0000
01FE0000
01FE0000
01FE0000
01FE0000
01FE0000
01FE0000
01FE0000
01FE0000
01FE0000
01FE0000
01FE0000
01FE0000
01FE0000
01FE0000
01FE0000
00FE0000
0001FFFC
0001FFFC
0001FFFC
0001FFFC
0001FFFC
0001FFFC
0001FFFC
ENDCHAR
STARTCHAR Uhorn
ENCODING 431
SWIDTH 685 0
DWIDTH 36 0
BBX 37 45 0 0
BITMAP
FE0003FFF8
FE0003FFF8
FE0003FFF8
FE0003FFF8
FE0003FFF8
FE0003FFF8
FE0003FFF8
FE0003FC00
FE0003FC00
FE0003FC00
FE0003FC00
FE0003FC00
FE0003FC00
FE0003FC00
FE0003FC00
FE0003FC00
FE0003FC00
FE0003FC00
FE0003FC00
FE0003FC00
FE0003FC00
FE0003FC00
FE0003FC00
FE0003FC00
FE0003FC00
FE0003FC00
FE0003FC00
FE0003FC00
FE0003FC00
FE0003FC00
FE0003FC00
FE0003FC00
FE0003FC00
FE0003FC00
FE0003FC00
FE0003FC00
FE0003FC00
01FFFC0000
01FFFC0000
01FFFC0000
01FFFC0000
01FFFC0000
01FFFC0000
01FFFC0000
00FFFC0000
ENDCHAR
STARTCHAR uhorn
ENCODING 432
SWIDTH 685 0
DWIDTH 36 0
BBX 37 38 0 0
BITMAP
00000003F8
00000003F8
00000003F8
00000003F8
00000003F8
00000003F8
00000003F8
00000003F8
FE0003FC00
FE0003FC00
FE0003FC00
FE0003FC00
FE0003FC00
FE0003FC00
FE0003FC00
FE0003FC00
FE0003FC00
FE0003FC00
FE0003FC00
FE0003FC00
FE0003FC00
FE0003FC00
FE0003FC00
FE0003FC00
FE0003FC00
FE0003FC00
FE0003FC00
FE0003FC00
FE0003FC00
FE0003FC00
01FFFFFC00
01FFFFFC00
01FFFFFC00
01FFFFFC00
01FFFFFC00
01FFFFFC00
01FFFFFC00
00FFFFF800
ENDCHAR
STARTCHAR uni01B1
ENCODING 433
SWIDTH 685 0
DWIDTH 36 0
BBX 37 45 0 0
BITMAP
01FE03FC00
01FE03FC00
01FE03FC00
01FE03FC00
01FE03FC00
01FE03FC00
01FE03FC00
FE000003F8
FE000003F8
FE000003F8
FE000003F8
FE000003F8
FE000003F8
FE000003F8
FE000003F8
FE000003F8
FE000003F8
FE000003F8
FE000003F8
FE000003F8
FE000003F8
FE000003F8
FE000003F8
FE000003F8
FE000003F8
FE000003F8
FE000003F8
FE000003F8
FE000003F8
FE000003F8
FE000003F8
FE000003F8
FE000003F8
FE000003F8
FE000003F8
FE000003F8
FE000003F8
01FFFFFC00
01FFFFFC00
01FFFFFC00
01FFFFFC00
01FFFFFC00
01FFFFFC00
01FFFFFC00
00FFFFF800
ENDCHAR
STARTCHAR uni01B2
ENCODING 434
SWIDTH 685 0
DWIDTH 36 0
BBX 30 45 0 0
BITMAP
FE01FC00
FE01FC00
FE01FC00
FE01FC00
FE01FC00
FE01FC00
FE01FC00
FE0003F8
FE0003FC
FE0003FC
FE0003FC
FE0003FC
FE0003FC
FE0003FC
FE0003FC
FE0003FC
FE0003FC
FE0003FC
FE0003FC
FE0003FC
FE0003FC
FE0003FC
FE0003FC
FE0003FC
FE0003FC
FE0003FC
FE0003FC
FE0003FC
FE0003FC
FE0003FC
FE0003FC
FE0003FC
FE0003FC
FE0003FC
FE0003FC
FE0003FC
FE0003FC
01FFFC00
01FFFC00
01FFFC00
01FFFC00
01FFFC00
01FFFC00
01FFFC00
00FFFC00
ENDCHAR
STARTCHAR uni01B3
ENCODING 435
SWIDTH 685 0
DWIDTH 36 0
BBX 30 45 0 0
BITMAP
FE0003FC
FE0003FC
FE0003FC
FE0003FC
FE0003FC
FE0003FC
FE0003FC
01FC03FC
01FE03FC
01FE03FC
01FE03FC
01FE03FC
01FE03FC
01FE03FC
01FE03FC
01FE03FC
01FE03FC
01FE03FC
01FE03FC
01FE03FC
01FE03FC
01FE03FC
0001FC00
0001FC00
0001FC00
0001FC00
0001FC00
0001FC00
0001FC00
0001FC00
0001FC00
0001FC00
0001FC00
0001FC00
0001FC00
0001FC00
0001FC00
0001FC00
0001FC00
0001FC00
0001FC00
0001FC00
0001FC00
0001FC00
0001FC00
ENDCHAR
STARTCHAR uni01B4
ENCODING 436
SWIDTH 685 0
DWIDTH 36 0
BBX 30 37 0 -7
BITMAP
FE0003FC
FE0003FC
FE0003FC
FE0003FC
FE0003FC
FE0003FC
FE0003FC
FE01FC00
FE01FC00
FE01FC00
FE01FC00
FE01FC00
FE01FC00
FE01FC00
FE01FC00
FE01FC00
FE01FC00
FE01FC00
FE01FC00
FE01FC00
FE01FC00
FE01FC00
01FE0000
01FE0000
01FE0000
01FE0000
01FE0000
01FE0000
01FE0000
01FC0000
FE000000
FE000000
FE000000
FE000000
FE000000
FE000000
FE000000
ENDCHAR
STARTCHAR uni01B5
ENCODING 437
SWIDTH 685 0
DWIDTH 36 0
BBX 30 45 0 0
BITMAP
FFFFFFFC
FFFFFFFC
FFFFFFFC
FFFFFFFC
FFFFFFFC
FFFFFFFC
FFFFFFFC
000003FC
000003FC
000003FC
000003FC
000003FC
000003FC
000003FC
000003FC
FFFFFFFC
FFFFFFFC
FFFFFFFC
FFFFFFFC
FFFFFFFC
FFFFFFFC
FFFFFFFC
01FE0000
01FE0000
01FE0000
01FE0000
01FE0000
01FE0000
01FE0000
01FE0000
FE000000
FE000000
FE000000
FE000000
FE000000
FE000000
FE000000
FFFFFFFC
FFFFFFFC
FFFFFFFC
FFFFFFFC
FFFFFFFC
FFFFFFFC
FFFFFFFC
FFFFFFF8
ENDCHAR
STARTCHAR uni01B6
ENCODING 438
SWIDTH 685 0
DWIDTH 36 0
BBX 30 30 0 0
BITMAP
FFFFFFFC
FFFFFFFC
FFFFFFFC
FFFFFFFC
FFFFFFFC
FFFFFFFC
FFFFFFFC
01FFFFFC
01FFFFFC
01FFFFFC
01FFFFFC
01FFFFFC
01FFFFFC
01FFFFFC
01FFFFFC
01FE0000
01FE0000
01FE0000
01FE0000
01FE0000
01FE0000
01FE0000
FFFFFFFC
FFFFFFFC
FFFFFFFC
FFFFFFFC
FFFFFFFC
FFFFFFFC
FFFFFFFC
FFFFFFF8
ENDCHAR
STARTCHAR uni01B7
ENCODING 439
SWIDTH 685 0
DWIDTH 36 0
BBX 30 45 0 0
BITMAP
FFFFFFFC
FFFFFFFC
FFFFFFFC
FFFFFFFC
FFFFFFFC
FFFFFFFC
FFFFFFFC
0003FE00
0001FC00
0001FC00
0001FC00
0001FC00
0001FC00
0001FC00
0001FC00
01FFFC00
01FFFC00
01FFFC00
01FFFC00
01FFFC00
01FFFC00
01FFFC00
000003FC
000003FC
000003FC
000003FC
000003FC
000003FC
000003FC
000003FC
000003FC
000003FC
000003FC
000003FC
000003FC
000003FC
000003FC
FFFFFC00
FFFFFC00
FFFFFC00
FFFFFC00
FFFFFC00
FFFFFC00
FFFFFC00
FFFFFC00
ENDCHAR
STARTCHAR uni01B8
ENCODING 440
SWIDTH 685 0
DWIDTH 36 0
BBX 30 45 0 0
BITMAP
FFFFFFFC
FFFFFFFC
FFFFFFFC
FFFFFFFC
FFFFFFFC
FFFFFFFC
FFFFFFFC
01FE0000
01FE0000
01FE0000
01FE0000
01FE0000
01FE0000
01FE0000
01FE0000
01FFFC00
01FFFC00
01FFFC00
01FFFC00
01FFFC00
01FFFC00
01FFFC00
FE000000
FE000000
FE000000
FE000000
FE000000
FE000000
FE000000
FE000000
FE000000
FE000000
FE000000
FE000000
FE000000
FE000000
FE000000
01FFFFFC
01FFFFFC
01FFFFFC
01FFFFFC
01FFFFFC
01FFFFFC
01FFFFFC
00FFFFF8
ENDCHAR
STARTCHAR uni01B9
ENCODING 441
SWIDTH 685 0
DWIDTH 36 0
BBX 30 37 0 -7
BITMAP
FFFFFFFC
FFFFFFFC
FFFFFFFC
FFFFFFFC
FFFFFFFC
FFFFFFFC
FFFFFFFC
01FE0000
01FE0000
01FE0000
01FE0000
01FE0000
01FE0000
01FE0000
01FE0000
01FFFC00
01FFFC00
01FFFC00
01FFFC00
01FFFC00
01FFFC00
01FFFC00
FE000000
FE000000
FE000000
FE000000
FE000000
FE000000
FE000000
FE000000
01FFFFFC
01FFFFFC
01FFFFFC
01FFFFFC
01FFFFFC
01FFFFFC
01FFFFFC
ENDCHAR
STARTCHAR uni01BA
ENCODING 442
SWIDTH 685 0
DWIDTH 36 0
BBX 37 37 0 -7
BITMAP
FFFFFFFC00
FFFFFFFC00
FFFFFFFC00
FFFFFFFC00
FFFFFFFC00
FFFFFFFC00
FFFFFFFC00
0001FC0000
0001FC0000
0001FC0000
0001FC0000
0001FC0000
0001FC0000
0001FC0000
0001FC0000
01FFFC0000
01FFFC0000
01FFFC0000
01FFFC0000
01FFFC0000
01FFFC0000
01FFFC0000
0001FFFC00
0001FFFC00
0001FFFC00
0001FFFC00
0001FFFC00
0001FFFC00
0001FFFC00
0003FFFC00
FFFFFFFFF8
FFFFFFFFF8
FFFFFFFFF8
FFFFFFFFF8
FFFFFFFFF8
FFFFFFFFF8
FFFFFFFFF8
ENDCHAR
STARTCHAR uni01BB
ENCODING 443
SWIDTH 685 0
DWIDTH 36 0
BBX 30 45 0 0
BITMAP
01FFFC00
01FFFC00
01FFFC00
01FFFC00
01FFFC00
01FFFC00
01FFFC00
FE0003F8
FE0003FC
FE0003FC
FE0003FC
FE0003FC
FE0003FC
FE0003FC
FE0003FC
000003FC
000003FC
000003FC
000003FC
000003FC
000003FC
000003FC
FFFFFFFC
FFFFFFFC
FFFFFFFC
FFFFFFFC
FFFFFFFC
FFFFFFFC
FFFFFFFC
FFFFFFFC
01FE0000
01FE0000
01FE0000
01FE0000
01FE0000
01FE0000
01FE0000
FFFFFFFC
FFFFFFFC
FFFFFFFC
FFFFFFFC
FFFFFFFC
FFFFFFFC
FFFFFFFC
FFFFFFF8
ENDCHAR
STARTCHAR uni01BC
ENCODING 444
SWIDTH 685 0
DWIDTH 36 0
BBX 30 45 0 0
BITMAP
FFFFFFFC
FFFFFFFC
FFFFFFFC
FFFFFFFC
FFFFFFFC
FFFFFFFC
FFFFFFFC
FF000000
FE000000
FE000000
FE000000
FE000000
FE000000
FE000000
FF000000
FFFFFC00
FFFFFC00
FFFFFC00
FFFFFC00
FFFFFC00
FFFFFC00
FFFFFC00
FF0003FC
FE0003FC
FE0003FC
FE0003FC
FE0003FC
FE0003FC
FE0003FC
FE0003FC
000003FC
000003FC
000003FC
000003FC
000003FC
000003FC
000003FC
FFFFFC00
FFFFFC00
FFFFFC00
FFFFFC00
FFFFFC00
FFFFFC00
FFFFFC00
FFFFFC00
ENDCHAR
STARTCHAR uni01BD
ENCODING 445
SWIDTH 685 0
DWIDTH 36 0
BBX 23 30 7 0
BITMAP
FFFFFE
FFFFFE
FFFFFE
FFFFFE
FFFFFE
FFFFFE
FFFFFE
FFFE00
FFFE00
FFFE00
FFFE00
FFFE00
FFFE00
FFFE00
7FFE00
0001FE
0001FE
0001FE
0001FE
0001FE
0001FE
0001FE
7FFE00
FFFE00
FFFE00
FFFE00
FFFE00
FFFE00
FFFE00
7FFE00
ENDCHAR
STARTCHAR uni01BE
ENCODING 446
SWIDTH 685 0
DWIDTH 36 0
BBX 23 38 7 0
BITMAP
00FE00
00FE00
00FE00
00FE00
00FE00
00FE00
00FE00
00FE00
FFFFFE
FFFFFE
FFFFFE
FFFFFE
FFFFFE
FFFFFE
FFFFFE
00FE00
00FE00
00FE00
00FE00
00FE00
00FE00
00FE00
00FE00
0001FE
0001FE
0001FE
0001FE
0001FE
0001FE
0001FE
7FFE00
FFFE00
FFFE00
FFFE00
FFFE00
FFFE00
FFFE00
7FFE00
ENDCHAR
STARTCHAR uni01BF
ENCODING 447
SWIDTH 685 0
DWIDTH 36 0
BBX 30 37 0 -7
BITMAP
FFFFFC00
FFFFFC00
FFFFFC00
FFFFFC00
FFFFFC00
FFFFFC00
FFFFFC00
FF0003FC
FE0003FC
FE0003FC
FE0003FC
FE0003FC
FE0003FC
FE0003FC
FE0003FC
FE01FC00
FE01FC00
FE01FC00
FE01FC00
FE01FC00
FE01FC00
FE01FC00
FFFE0000
FFFE0000
FFFE0000
FFFE0000
FFFE0000
FFFE0000
FFFE0000
FFFC0000
FE000000
FE000000
FE000000
FE000000
FE000000
FE000000
FE000000
ENDCHAR
STARTCHAR uni01C0
ENCODING 448
SWIDTH 685 0
DWIDTH 36 0
BBX 7 38 15 0
BITMAP
FE
FE
FE
FE
FE
FE
FE
FE
FE
FE
FE
FE
FE
FE
FE
FE
FE
FE
FE
FE
FE
FE
FE
FE
FE
FE
FE
FE
FE
FE
FE
FE
FE
FE
FE
FE
FE
FE
ENDCHAR
STARTCHAR uni01C1
ENCODING 449
SWIDTH 685 0
DWIDTH 36 0
BBX 23 38 7 0
BITMAP
7E00FC
FF01FE
FF01FE
FF01FE
FF01FE
FF01FE
FF01FE
FF01FE
FF01FE
FF01FE
FF01FE
FF01FE
FF01FE
FF01FE
FF01FE
FF01FE
FF01FE
FF01FE
FF01FE
FF01FE
FF01FE
FF01FE
FF01FE
FF01FE
FF01FE
FF01FE
FF01FE
FF01FE
FF01FE
FF01FE
FF01FE
FF01FE
FF01FE
FF01FE
FF01FE
FF01FE
FF01FE
7E00FC
ENDCHAR
STARTCHAR uni01C2
ENCODING 450
SWIDTH 685 0
DWIDTH 36 0
BBX 23 38 7 0
BITMAP
00FE00
00FE00
00FE00
00FE00
00FE00
00FE00
00FE00
00FE00
FFFFFE
FFFFFE
FFFFFE
FFFFFE
FFFFFE
FFFFFE
FFFFFE
00FE00
00FE00
00FE00
00FE00
00FE00
00FE00
00FE00
00FE00
FFFFFE
FFFFFE
FFFFFE
FFFFFE
FFFFFE
FFFFFE
FFFFFE
00FE00
00FE00
00FE00
00FE00
00FE00
00FE00
00FE00
00FE00
ENDCHAR
STARTCHAR uni01C3
ENCODING 451
SWIDTH 685 0
DWIDTH 36 0
BBX 7 38 15 0
BITMAP
FE
FE
FE
FE
FE
FE
FE
FE
FE
FE
FE
FE
FE
FE
FE
FE
FE
FE
FE
FE
FE
FE
FE
00
00
00
00
00
00
00
FE
FE
FE
FE
FE
FE
FE
FE
ENDCHAR
STARTCHAR uni01C4
ENCODING 452
SWIDTH 685 0
DWIDTH 36 0
BBX 37 45 0 0
BITMAP
000003FFF8
000003FFF8
000003FFF8
000003FFF8
000003FFF8
000003FFF8
000003FFF8
FFFC03FFF8
FFFE03FFF8
FFFE03FFF8
FFFE03FFF8
FFFE03FFF8
FFFE03FFF8
FFFE03FFF8
FFFE03FFF8
FE01FC03F8
FE01FC03F8
FE01FC03F8
FE01FC03F8
FE01FC03F8
FE01FC03F8
FE01FC03F8
FE01FC03F8
FE01FC03F8
FE01FC03F8
FE01FC03F8
FE01FC03F8
FE01FC03F8
FE01FC03F8
FE01FC03F8
FE01FFFC00
FE01FFFC00
FE01FFFC00
FE01FFFC00
FE01FFFC00
FE01FFFC00
FE01FFFC00
FFFE03FFF8
FFFE03FFF8
FFFE03FFF8
FFFE03FFF8
FFFE03FFF8
FFFE03FFF8
FFFE03FFF8
FFFC01FFF8
ENDCHAR
STARTCHAR uni01C5
ENCODING 453
SWIDTH 685 0
DWIDTH 36 0
BBX 37 45 0 0
BITMAP
FFFE03FFF8
FFFE03FFF8
FFFE03FFF8
FFFE03FFF8
FFFE03FFF8
FFFE03FFF8
FFFE03FFF8
FF01FC0000
FE01FC0000
FE01FC0000
FE01FC0000
FE01FC0000
FE01FC0000
FE01FC0000
FE01FC0000
FE01FFFFF8
FE01FFFFF8
FE01FFFFF8
FE01FFFFF8
FE01FFFFF8
FE01FFFFF8
FE01FFFFF8
FE01FC03F8
FE01FC03F8
FE01FC03F8
FE01FC03F8
FE01FC03F8
FE01FC03F8
FE01FC03F8
FE01FC03F8
FE01FFFC00
FE01FFFC00
FE01FFFC00
FE01FFFC00
FE01FFFC00
FE01FFFC00
FE01FFFC00
FFFE03FFF8
FFFE03FFF8
FFFE03FFF8
FFFE03FFF8
FFFE03FFF8
FFFE03FFF8
FFFE03FFF8
FFFC01FFF8
ENDCHAR
STARTCHAR uni01C6
ENCODING 454
SWIDTH 685 0
DWIDTH 36 0
BBX 37 45 0 0
BITMAP
0001FFFFF8
0001FFFFF8
0001FFFFF8
0001FFFFF8
0001FFFFF8
0001FFFFF8
0001FFFFF8
0001FE0000
0001FC0000
0001FC0000
0001FC0000
0001FC0000
0001FC0000
0001FC0000
0001FC0000
01FFFFFFF8
01FFFFFFF8
01FFFFFFF8
01FFFFFFF8
01FFFFFFF8
01FFFFFFF8
01FFFFFFF8
FE01FC03F8
FE01FC03F8
FE01FC03F8
FE01FC03F8
FE01FC03F8
FE01FC03F8
FE01FC03F8
FE01FC03F8
FE01FFFC00
FE01FFFC00
FE01FFFC00
FE01FFFC00
FE01FFFC00
FE01FFFC00
FE01FFFC00
01FFFFFFF8
01FFFFFFF8
01FFFFFFF8
01FFFFFFF8
01FFFFFFF8
01FFFFFFF8
01FFFFFFF8
00FFFFFFF8
ENDCHAR
STARTCHAR uni01C7
ENCODING 455
SWIDTH 685 0
DWIDTH 36 0
BBX 37 45 0 0
BITMAP
FE000003F8
FE000003F8
FE000003F8
FE000003F8
FE000003F8
FE000003F8
FE000003F8
FE000003F8
FE000003F8
FE000003F8
FE000003F8
FE000003F8
FE000003F8
FE000003F8
FE000003F8
FE000003F8
FE000003F8
FE000003F8
FE000003F8
FE000003F8
FE000003F8
FE000003F8
FE000003F8
FE000003F8
FE000003F8
FE000003F8
FE000003F8
FE000003F8
FE000003F8
FE000003F8
FE01FC03F8
FE01FC03F8
FE01FC03F8
FE01FC03F8
FE01FC03F8
FE01FC03F8
FE01FC03F8
FFFE03FC00
FFFE03FC00
FFFE03FC00
FFFE03FC00
FFFE03FC00
FFFE03FC00
FFFE03FC00
FFFC01F800
ENDCHAR
STARTCHAR uni01C8
ENCODING 456
SWIDTH 685 0
DWIDTH 36 0
BBX 37 52 0 -7
BITMAP
FE000003F8
FE000003F8
FE000003F8
FE000003F8
FE000003F8
FE000003F8
FE000003F8
FE00000000
FE00000000
FE00000000
FE00000000
FE00000000
FE00000000
FE00000000
FE00000000
FE000003F8
FE000003F8
FE000003F8
FE000003F8
FE000003F8
FE000003F8
FE000003F8
FE000003F8
FE000003F8
FE000003F8
FE000003F8
FE000003F8
FE000003F8
FE000003F8
FE000003F8
FE000003F8
FE000003F8
FE000003F8
FE000003F8
FE000003F8
FE000003F8
FE000003F8
FFFFFC03F8
FFFFFC03F8
FFFFFC03F8
FFFFFC03F8
FFFFFC03F8
FFFFFC03F8
FFFFFC03F8
FFFFFC03F8
000003FC00
000003FC00
000003FC00
000003FC00
000003FC00
000003FC00
000003FC00
ENDCHAR
STARTCHAR uni01C9
ENCODING 457
SWIDTH 685 0
DWIDTH 36 0
BBX 37 52 0 -7
BITMAP
FFFE0003F8
FFFE0003F8
FFFE0003F8
FFFE0003F8
FFFE0003F8
FFFE0003F8
FFFE0003F8
01FE000000
01FE000000
01FE000000
01FE000000
01FE000000
01FE000000
01FE000000
01FE000000
01FE0003F8
01FE0003F8
01FE0003F8
01FE0003F8
01FE0003F8
01FE0003F8
01FE0003F8
01FE0003F8
01FE0003F8
01FE0003F8
01FE0003F8
01FE0003F8
01FE0003F8
01FE0003F8
01FE0003F8
01FE0003F8
01FE0003F8
01FE0003F8
01FE0003F8
01FE0003F8
01FE0003F8
01FE0003F8
FFFFFC03F8
FFFFFC03F8
FFFFFC03F8
FFFFFC03F8
FFFFFC03F8
FFFFFC03F8
FFFFFC03F8
FFFFFC03F8
000003FC00
000003FC00
000003FC00
000003FC00
000003FC00
000003FC00
000003FC00
ENDCHAR
STARTCHAR uni01CA
ENCODING 458
SWIDTH 685 0
DWIDTH 36 0
BBX 37 45 0 0
BITMAP
FFFE0003F8
FFFE0003F8
FFFE0003F8
FFFE0003F8
FFFE0003F8
FFFE0003F8
FFFE0003F8
FF01FC03F8
FE01FC03F8
FE01FC03F8
FE01FC03F8
FE01FC03F8
FE01FC03F8
FE01FC03F8
FE01FC03F8
FE01FC03F8
FE01FC03F8
FE01FC03F8
FE01FC03F8
FE01FC03F8
FE01FC03F8
FE01FC03F8
FE01FC03F8
FE01FC03F8
FE01FC03F8
FE01FC03F8
FE01FC03F8
FE01FC03F8
FE01FC03F8
FE01FC03F8
FE01FC03F8
FE01FC03F8
FE01FC03F8
FE01FC03F8
FE01FC03F8
FE01FC03F8
FE01FC03F8
FE01FFFC00
FE01FFFC00
FE01FFFC00
FE01FFFC00
FE01FFFC00
FE01FFFC00
FE01FFFC00
FE01FFF800
ENDCHAR
STARTCHAR uni01CB
ENCODING 459
SWIDTH 685 0
DWIDTH 36 0
BBX 37 52 0 -7
BITMAP
FFFE0003F8
FFFE0003F8
FFFE0003F8
FFFE0003F8
FFFE0003F8
FFFE0003F8
FFFE0003F8
FF01FC0000
FE01FC0000
FE01FC0000
FE01FC0000
FE01FC0000
FE01FC0000
FE01FC0000
FE01FC0000
FE01FC03F8
FE01FC03F8
FE01FC03F8
FE01FC03F8
FE01FC03F8
FE01FC03F8
FE01FC03F8
FE01FC03F8
FE01FC03F8
FE01FC03F8
FE01FC03F8
FE01FC03F8
FE01FC03F8
FE01FC03F8
FE01FC03F8
FE01FC03F8
FE01FC03F8
FE01FC03F8
FE01FC03F8
FE01FC03F8
FE01FC03F8
FE01FC03F8
FE01FC03F8
FE01FC03F8
FE01FC03F8
FE01FC03F8
FE01FC03F8
FE01FC03F8
FE01FC03F8
FE01FC03F8
000003FC00
000003FC00
000003FC00
000003FC00
000003FC00
000003FC00
000003FC00
ENDCHAR
STARTCHAR uni01CC
ENCODING 460
SWIDTH 685 0
DWIDTH 36 0
BBX 37 52 0 -7
BITMAP
00000003F8
00000003F8
00000003F8
00000003F8
00000003F8
00000003F8
00000003F8
0000000000
0000000000
0000000000
0000000000
0000000000
0000000000
0000000000
0000000000
FFFE0003F8
FFFE0003F8
FFFE0003F8
FFFE0003F8
FFFE0003F8
FFFE0003F8
FFFE0003F8
FF01FC03F8
FE01FC03F8
FE01FC03F8
FE01FC03F8
FE01FC03F8
FE01FC03F8
FE01FC03F8
FE01FC03F8
FE01FC03F8
FE01FC03F8
FE01FC03F8
FE01FC03F8
FE01FC03F8
FE01FC03F8
FE01FC03F8
FE01FC03F8
FE01FC03F8
FE01FC03F8
FE01FC03F8
FE01FC03F8
FE01FC03F8
FE01FC03F8
FE01FC03F8
000003FC00
000003FC00
000003FC00
000003FC00
000003FC00
000003FC00
000003FC00
ENDCHAR
STARTCHAR uni01CD
ENCODING 461
SWIDTH 685 0
DWIDTH 36 0
BBX 30 45 0 0
BITMAP
01FFFC00
01FFFC00
01FFFC00
01FFFC00
01FFFC00
01FFFC00
01FFFC00
FE0003F8
FE0003FC
FE0003FC
FE0003FC
FE0003FC
FE0003FC
FE0003FC
FE0003FC
FE0003FC
FE0003FC
FE0003FC
FE0003FC
FE0003FC
FE0003FC
FE0003FC
FFFFFFFC
FFFFFFFC
FFFFFFFC
FFFFFFFC
FFFFFFFC
FFFFFFFC
FFFFFFFC
FFFFFFFC
FE0003FC
FE0003FC
FE0003FC
FE0003FC
FE0003FC
FE0003FC
FE0003FC
FE0003FC
FE0003FC
FE0003FC
FE0003FC
FE0003FC
FE0003FC
FE0003FC
FE0001F8
ENDCHAR
STARTCHAR uni01CE
ENCODING 462
SWIDTH 685 0
DWIDTH 36 0
BBX 30 45 0 0
BITMAP
01FE03FC
01FE03FC
01FE03FC
01FE03FC
01FE03FC
01FE03FC
01FE03FC
0001FC00
0001FC00
0001FC00
0001FC00
0001FC00
0001FC00
0001FC00
0001FC00
01FFFFFC
01FFFFFC
01FFFFFC
01FFFFFC
01FFFFFC
01FFFFFC
01FFFFFC
FE0003FC
FE0003FC
FE0003FC
FE0003FC
FE0003FC
FE0003FC
FE0003FC
FE0003FC
FE01FFFC
FE01FFFC
FE01FFFC
FE01FFFC
FE01FFFC
FE01FFFC
FE01FFFC
01FE03FC
01FE03FC
01FE03FC
01FE03FC
01FE03FC
01FE03FC
01FE03FC
00FC01F8
ENDCHAR
STARTCHAR uni01CF
ENCODING 463
SWIDTH 685 0
DWIDTH 36 0
BBX 23 45 7 0
BITMAP
FFFFFE
FFFFFE
FFFFFE
FFFFFE
FFFFFE
FFFFFE
FFFFFE
01FF00
00FE00
00FE00
00FE00
00FE00
00FE00
00FE00
00FE00
00FE00
00FE00
00FE00
00FE00
00FE00
00FE00
00FE00
00FE00
00FE00
00FE00
00FE00
00FE00
00FE00
00FE00
00FE00
00FE00
00FE00
00FE00
00FE00
00FE00
00FE00
00FE00
7FFFFE
FFFFFE
FFFFFE
FFFFFE
FFFFFE
FFFFFE
FFFFFE
7FFFFC
ENDCHAR
STARTCHAR uni01D0
ENCODING 464
SWIDTH 685 0
DWIDTH 36 0
BBX 23 45 7 0
BITMAP
FF01FE
FF01FE
FF01FE
FF01FE
FF01FE
FF01FE
FF01FE
00FE00
00FE00
00FE00
00FE00
00FE00
00FE00
00FE00
00FE00
FFFE00
FFFE00
FFFE00
FFFE00
FFFE00
FFFE00
FFFE00
00FE00
00FE00
00FE00
00FE00
00FE00
00FE00
00FE00
00FE00
00FE00
00FE00
00FE00
00FE00
00FE00
00FE00
00FE00
7FFFFE
FFFFFE
FFFFFE
FFFFFE
FFFFFE
FFFFFE
FFFFFE
7FFFFC
ENDCHAR
STARTCHAR uni01D1
ENCODING 465
SWIDTH 685 0
DWIDTH 36 0
BBX 30 45 0 0
BITMAP
01FFFC00
01FFFC00
01FFFC00
01FFFC00
01FFFC00
01FFFC00
01FFFC00
FE0003F8
FE0003FC
FE0003FC
FE0003FC
FE0003FC
FE0003FC
FE0003FC
FE0003FC
FE0003FC
FE0003FC
FE0003FC
FE0003FC
FE0003FC
FE0003FC
FE0003FC
FE0003FC
FE0003FC
FE0003FC
FE0003FC
FE0003FC
FE0003FC
FE0003FC
FE0003FC
FE0003FC
FE0003FC
FE0003FC
FE0003FC
FE0003FC
FE0003FC
FE0003FC
01FFFC00
01FFFC00
01FFFC00
01FFFC00
01FFFC00
01FFFC00
01FFFC00
00FFFC00
ENDCHAR
STARTCHAR uni01D2
ENCODING 466
SWIDTH 685 0
DWIDTH 36 0
BBX 30 45 0 0
BITMAP
FE01FC00
FE01FC00
FE01FC00
FE01FC00
FE01FC00
FE01FC00
FE01FC00
01FE0000
01FE0000
01FE0000
01FE0000
01FE0000
01FE0000
01FE0000
01FE0000
01FFFC00
01FFFC00
01FFFC00
01FFFC00
01FFFC00
01FFFC00
01FFFC00
FE0003FC
FE0003FC
FE0003FC
FE0003FC
FE0003FC
FE0003FC
FE0003FC
FE0003FC
FE0003FC
FE0003FC
FE0003FC
FE0003FC
FE0003FC
FE0003FC
FE0003FC
01FFFC00
01FFFC00
01FFFC00
01FFFC00
01FFFC00
01FFFC00
01FFFC00
00FFFC00
ENDCHAR
STARTCHAR uni01D3
ENCODING 467
SWIDTH 685 0
DWIDTH 36 0
BBX 30 45 0 0
BITMAP
FE0003FC
FE0003FC
FE0003FC
FE0003FC
FE0003FC
FE0003FC
FE0003FC
FE0003FC
FE0003FC
FE0003FC
FE0003FC
FE0003FC
FE0003FC
FE0003FC
FE0003FC
FE0003FC
FE0003FC
FE0003FC
FE0003FC
FE0003FC
FE0003FC
FE0003FC
FE0003FC
FE0003FC
FE0003FC
FE0003FC
FE0003FC
FE0003FC
FE0003FC
FE0003FC
FE0003FC
FE0003FC
FE0003FC
FE0003FC
FE0003FC
FE0003FC
FE0003FC
01FFFC00
01FFFC00
01FFFC00
01FFFC00
01FFFC00
01FFFC00
01FFFC00
00FFFC00
ENDCHAR
STARTCHAR uni01D4
ENCODING 468
SWIDTH 685 0
DWIDTH 36 0
BBX 30 45 0 0
BITMAP
01FE03FC
01FE03FC
01FE03FC
01FE03FC
01FE03FC
01FE03FC
01FE03FC
0001FC00
0001FC00
0001FC00
0001FC00
0001FC00
0001FC00
0001FC00
0001FC00
FE0003FC
FE0003FC
FE0003FC
FE0003FC
FE0003FC
FE0003FC
FE0003FC
FE0003FC
FE0003FC
FE0003FC
FE0003FC
FE0003FC
FE0003FC
FE0003FC
FE0003FC
FE0003FC
FE0003FC
FE0003FC
FE0003FC
FE0003FC
FE0003FC
FE0003FC
01FFFFFC
01FFFFFC
01FFFFFC
01FFFFFC
01FFFFFC
01FFFFFC
01FFFFFC
00FFFFF8
ENDCHAR
STARTCHAR uni01D5
ENCODING 469
SWIDTH 685 0
DWIDTH 36 0
BBX 30 45 0 0
BITMAP
FE0003FC
FE0003FC
FE0003FC
FE0003FC
FE0003FC
FE0003FC
FE0003FC
FE0003FC
FE0003FC
FE0003FC
FE0003FC
FE0003FC
FE0003FC
FE0003FC
FE0003FC
FE0003FC
FE0003FC
FE0003FC
FE0003FC
FE0003FC
FE0003FC
FE0003FC
FE0003FC
FE0003FC
FE0003FC
FE0003FC
FE0003FC
FE0003FC
FE0003FC
FE0003FC
FE0003FC
FE0003FC
FE0003FC
FE0003FC
FE0003FC
FE0003FC
FE0003FC
01FFFC00
01FFFC00
01FFFC00
01FFFC00
01FFFC00
01FFFC00
01FFFC00
00FFFC00
ENDCHAR
STARTCHAR uni01D6
ENCODING 470
SWIDTH 685 0
DWIDTH 36 0
BBX 30 45 0 0
BITMAP
01FFFFFC
01FFFFFC
01FFFFFC
01FFFFFC
01FFFFFC
01FFFFFC
01FFFFFC
01FE03FC
01FE03FC
01FE03FC
01FE03FC
01FE03FC
01FE03FC
01FE03FC
00FE03FC
00000000
00000000
00000000
00000000
00000000
00000000
00000000
FE0003FC
FE0003FC
FE0003FC
FE0003FC
FE0003FC
FE0003FC
FE0003FC
FE0003FC
FE0003FC
FE0003FC
FE0003FC
FE0003FC
FE0003FC
FE0003FC
FE0003FC
01FFFFFC
01FFFFFC
01FFFFFC
01FFFFFC
01FFFFFC
01FFFFFC
01FFFFFC
00FFFFF8
ENDCHAR
STARTCHAR uni01D7
ENCODING 471
SWIDTH 685 0
DWIDTH 36 0
BBX 30 45 0 0
BITMAP
FE0003FC
FE0003FC
FE0003FC
FE0003FC
FE0003FC
FE0003FC
FE0003FC
FE0003FC
FE0003FC
FE0003FC
FE0003FC
FE0003FC
FE0003FC
FE0003FC
FE0003FC
FE0003FC
FE0003FC
FE0003FC
FE0003FC
FE0003FC
FE0003FC
FE0003FC
FE0003FC
FE0003FC
FE0003FC
FE0003FC
FE0003FC
FE0003FC
FE0003FC
FE0003FC
FE0003FC
FE0003FC
FE0003FC
FE0003FC
FE0003FC
FE0003FC
FE0003FC
01FFFC00
01FFFC00
01FFFC00
01FFFC00
01FFFC00
01FFFC00
01FFFC00
00FFFC00
ENDCHAR
STARTCHAR uni01D8
ENCODING 472
SWIDTH 685 0
DWIDTH 36 0
BBX 30 45 0 0
BITMAP
000003FC
000003FC
000003FC
000003FC
000003FC
000003FC
000003FC
00FFFFFC
01FFFFFC
01FFFFFC
01FFFFFC
01FFFFFC
01FFFFFC
01FFFFFC
00FFFFFC
00000000
00000000
00000000
00000000
00000000
00000000
00000000
FE0003FC
FE0003FC
FE0003FC
FE0003FC
FE0003FC
FE0003FC
FE0003FC
FE0003FC
FE0003FC
FE0003FC
FE0003FC
FE0003FC
FE0003FC
FE0003FC
FE0003FC
01FFFFFC
01FFFFFC
01FFFFFC
01FFFFFC
01FFFFFC
01FFFFFC
01FFFFFC
00FFFFF8
ENDCHAR
STARTCHAR uni01D9
ENCODING 473
SWIDTH 685 0
DWIDTH 36 0
BBX 30 45 0 0
BITMAP
FE0003FC
FE0003FC
FE0003FC
FE0003FC
FE0003FC
FE0003FC
FE0003FC
FE0003FC
FE0003FC
FE0003FC
FE0003FC
FE0003FC
FE0003FC
FE0003FC
FE0003FC
FE0003FC
FE0003FC
FE0003FC
FE0003FC
FE0003FC
FE0003FC
FE0003FC
FE0003FC
FE0003FC
FE0003FC
FE0003FC
FE0003FC
FE0003FC
FE0003FC
FE0003FC
FE0003FC
FE0003FC
FE0003FC
FE0003FC
FE0003FC
FE0003FC
FE0003FC
01FFFC00
01FFFC00
01FFFC00
01FFFC00
01FFFC00
01FFFC00
01FFFC00
00FFFC00
ENDCHAR
STARTCHAR uni01DA
ENCODING 474
SWIDTH 685 0
DWIDTH 36 0
BBX 30 45 0 0
BITMAP
01FE03FC
01FE03FC
01FE03FC
01FE03FC
01FE03FC
01FE03FC
01FE03FC
01FFFFFC
01FFFFFC
01FFFFFC
01FFFFFC
01FFFFFC
01FFFFFC
01FFFFFC
00FFFFFC
00000000
00000000
00000000
00000000
00000000
00000000
00000000
FE0003FC
FE0003FC
FE0003FC
FE0003FC
FE0003FC
FE0003FC
FE0003FC
FE0003FC
FE0003FC
FE0003FC
FE0003FC
FE0003FC
FE0003FC
FE0003FC
FE0003FC
01FFFFFC
01FFFFFC
01FFFFFC
01FFFFFC
01FFFFFC
01FFFFFC
01FFFFFC
00FFFFF8
ENDCHAR
STARTCHAR uni01DB
ENCODING 475
SWIDTH 685 0
DWIDTH 36 0
BBX 30 45 0 0
BITMAP
FE0003FC
FE0003FC
FE0003FC
FE0003FC
FE0003FC
FE0003FC
FE0003FC
FE0003FC
FE0003FC
FE0003FC
FE0003FC
FE0003FC
FE0003FC
FE0003FC
FE0003FC
FE0003FC
FE0003FC
FE0003FC
FE0003FC
FE0003FC
FE0003FC
FE0003FC
FE0003FC
FE0003FC
FE0003FC
FE0003FC
FE0003FC
FE0003FC
FE0003FC
FE0003FC
FE0003FC
FE0003FC
FE0003FC
FE0003FC
FE0003FC
FE0003FC
FE0003FC
01FFFC00
01FFFC00
01FFFC00
01FFFC00
01FFFC00
01FFFC00
01FFFC00
00FFFC00
ENDCHAR
STARTCHAR uni01DC
ENCODING 476
SWIDTH 685 0
DWIDTH 36 0
BBX 30 45 0 0
BITMAP
01FE0000
01FE0000
01FE0000
01FE0000
01FE0000
01FE0000
01FE0000
01FFFFF8
01FFFFFC
01FFFFFC
01FFFFFC
01FFFFFC
01FFFFFC
01FFFFFC
00FFFFFC
00000000
00000000
00000000
00000000
00000000
00000000
00000000
FE0003FC
FE0003FC
FE0003FC
FE0003FC
FE0003FC
FE0003FC
FE0003FC
FE0003FC
FE0003FC
FE0003FC
FE0003FC
FE0003FC
FE0003FC
FE0003FC
FE0003FC
01FFFFFC
01FFFFFC
01FFFFFC
01FFFFFC
01FFFFFC
01FFFFFC
01FFFFFC
00FFFFF8
ENDCHAR
STARTCHAR uni01DD
ENCODING 477
SWIDTH 685 0
DWIDTH 36 0
BBX 30 30 0 0
BITMAP
01FFFC00
01FFFC00
01FFFC00
01FFFC00
01FFFC00
01FFFC00
01FFFC00
0001FFFC
0001FFFC
0001FFFC
0001FFFC
0001FFFC
0001FFFC
0001FFFC
0001FFFC
FFFE03FC
FFFE03FC
FFFE03FC
FFFE03FC
FFFE03FC
FFFE03FC
FFFE03FC
01FFFC00
01FFFC00
01FFFC00
01FFFC00
01FFFC00
01FFFC00
01FFFC00
00FFFC00
ENDCHAR
STARTCHAR uni01DE
ENCODING 478
SWIDTH 685 0
DWIDTH 36 0
BBX 30 45 0 0
BITMAP
01FFFC00
01FFFC00
01FFFC00
01FFFC00
01FFFC00
01FFFC00
01FFFC00
FE0003F8
FE0003FC
FE0003FC
FE0003FC
FE0003FC
FE0003FC
FE0003FC
FE0003FC
FE0003FC
FE0003FC
FE0003FC
FE0003FC
FE0003FC
FE0003FC
FE0003FC
FFFFFFFC
FFFFFFFC
FFFFFFFC
FFFFFFFC
FFFFFFFC
FFFFFFFC
FFFFFFFC
FFFFFFFC
FE0003FC
FE0003FC
FE0003FC
FE0003FC
FE0003FC
FE0003FC
FE0003FC
FE0003FC
FE0003FC
FE0003FC
FE0003FC
FE0003FC
FE0003FC
FE0003FC
FE0001F8
ENDCHAR
STARTCHAR uni01DF
ENCODING 479
SWIDTH 685 0
DWIDTH 36 0
BBX 30 45 0 0
BITMAP
01FFFFFC
01FFFFFC
01FFFFFC
01FFFFFC
01FFFFFC
01FFFFFC
01FFFFFC
01FE03FC
01FE03FC
01FE03FC
01FE03FC
01FE03FC
01FE03FC
01FE03FC
01FE03FC
01FFFFFC
01FFFFFC
01FFFFFC
01FFFFFC
01FFFFFC
01FFFFFC
01FFFFFC
FE0003FC
FE0003FC
FE0003FC
FE0003FC
FE0003FC
FE0003FC
FE0003FC
FE0003FC
FE01FFFC
FE01FFFC
FE01FFFC
FE01FFFC
FE01FFFC
FE01FFFC
FE01FFFC
01FE03FC
01FE03FC
01FE03FC
01FE03FC
01FE03FC
01FE03FC
01FE03FC
00FC01F8
ENDCHAR
STARTCHAR uni01E0
ENCODING 480
SWIDTH 685 0
DWIDTH 36 0
BBX 30 45 0 0
BITMAP
01FFFC00
01FFFC00
01FFFC00
01FFFC00
01FFFC00
01FFFC00
01FFFC00
FE0003F8
FE0003FC
FE0003FC
FE0003FC
FE0003FC
FE0003FC
FE0003FC
FE0003FC
FE0003FC
FE0003FC
FE0003FC
FE0003FC
FE0003FC
FE0003FC
FE0003FC
FFFFFFFC
FFFFFFFC
FFFFFFFC
FFFFFFFC
FFFFFFFC
FFFFFFFC
FFFFFFFC
FFFFFFFC
FE0003FC
FE0003FC
FE0003FC
FE0003FC
FE0003FC
FE0003FC
FE0003FC
FE0003FC
FE0003FC
FE0003FC
FE0003FC
FE0003FC
FE0003FC
FE0003FC
FE0001F8
ENDCHAR
STARTCHAR uni01E1
ENCODING 481
SWIDTH 685 0
DWIDTH 36 0
BBX 30 45 0 0
BITMAP
01FFFFFC
01FFFFFC
01FFFFFC
01FFFFFC
01FFFFFC
01FFFFFC
01FFFFFC
0003FE00
0001FC00
0001FC00
0001FC00
0001FC00
0001FC00
0001FC00
0001FC00
01FFFFFC
01FFFFFC
01FFFFFC
01FFFFFC
01FFFFFC
01FFFFFC
01FFFFFC
FE0003FC
FE0003FC
FE0003FC
FE0003FC
FE0003FC
FE0003FC
FE0003FC
FE0003FC
FE01FFFC
FE01FFFC
FE01FFFC
FE01FFFC
FE01FFFC
FE01FFFC
FE01FFFC
01FE03FC
01FE03FC
01FE03FC
01FE03FC
01FE03FC
01FE03FC
01FE03FC
00FC01F8
ENDCHAR
STARTCHAR uni01E2
ENCODING 482
SWIDTH 685 0
DWIDTH 36 0
BBX 30 45 0 0
BITMAP
FFFFFFFC
FFFFFFFC
FFFFFFFC
FFFFFFFC
FFFFFFFC
FFFFFFFC
FFFFFFFC
01FFFFFC
01FFFFFC
01FFFFFC
01FFFFFC
01FFFFFC
01FFFFFC
01FFFFFC
01FFFFFC
FE01FC00
FE01FC00
FE01FC00
FE01FC00
FE01FC00
FE01FC00
FE01FC00
FFFFFFFC
FFFFFFFC
FFFFFFFC
FFFFFFFC
FFFFFFFC
FFFFFFFC
FFFFFFFC
FFFFFFFC
FE01FC00
FE01FC00
FE01FC00
FE01FC00
FE01FC00
FE01FC00
FE01FC00
FE01FFFC
FE01FFFC
FE01FFFC
FE01FFFC
FE01FFFC
FE01FFFC
FE01FFFC
FE01FFF8
ENDCHAR
STARTCHAR uni01E3
ENCODING 483
SWIDTH 685 0
DWIDTH 36 0
BBX 30 45 0 0
BITMAP
FFFFFFFC
FFFFFFFC
FFFFFFFC
FFFFFFFC
FFFFFFFC
FFFFFFFC
FFFFFFFC
00000000
00000000
00000000
00000000
00000000
00000000
00000000
00000000
01FFFFFC
01FFFFFC
01FFFFFC
01FFFFFC
01FFFFFC
01FFFFFC
01FFFFFC
FE01FFFC
FE01FFFC
FE01FFFC
FE01FFFC
FE01FFFC
FE01FFFC
FE01FFFC
FE01FFFC
FE01FC00
FE01FC00
FE01FC00
FE01FC00
FE01FC00
FE01FC00
FE01FC00
01FFFFFC
01FFFFFC
01FFFFFC
01FFFFFC
01FFFFFC
01FFFFFC
01FFFFFC
00FFFFF8
ENDCHAR
STARTCHAR uni01E4
ENCODING 484
SWIDTH 685 0
DWIDTH 36 0
BBX 37 45 0 0
BITMAP
01FFFC0000
01FFFC0000
01FFFC0000
01FFFC0000
01FFFC0000
01FFFC0000
01FFFC0000
FE0003F800
FE0003FC00
FE0003FC00
FE0003FC00
FE0003FC00
FE0003FC00
FE0003FC00
FE0003FC00
FE00000000
FE00000000
FE00000000
FE00000000
FE00000000
FE00000000
FE00000000
FE01FFFC00
FE01FFFC00
FE01FFFC00
FE01FFFC00
FE01FFFC00
FE01FFFC00
FE01FFFC00
FE01FFFC00
FE01FFFFF8
FE01FFFFF8
FE01FFFFF8
FE01FFFFF8
FE01FFFFF8
FE01FFFFF8
FE01FFFFF8
01FFFFFC00
01FFFFFC00
01FFFFFC00
01FFFFFC00
01FFFFFC00
01FFFFFC00
01FFFFFC00
00FFFFF800
ENDCHAR
STARTCHAR uni01E5
ENCODING 485
SWIDTH 685 0
DWIDTH 36 0
BBX 37 37 0 -7
BITMAP
01FFFFFC00
01FFFFFC00
01FFFFFC00
01FFFFFC00
01FFFFFC00
01FFFFFC00
01FFFFFC00
FE0003FC00
FE0003FC00
FE0003FC00
FE0003FC00
FE0003FC00
FE0003FC00
FE0003FC00
FE0003FC00
01FFFC0000
01FFFC0000
01FFFC0000
01FFFC0000
01FFFC0000
01FFFC0000
01FFFC0000
FE01FFFFF8
FE01FFFFF8
FE01FFFFF8
FE01FFFFF8
FE01FFFFF8
FE01FFFFF8
FE01FFFFF8
FE03FFFFF8
01FFFFFC00
01FFFFFC00
01FFFFFC00
01FFFFFC00
01FFFFFC00
01FFFFFC00
01FFFFFC00
ENDCHAR
STARTCHAR Gcaron
ENCODING 486
SWIDTH 685 0
DWIDTH 36 0
BBX 30 45 0 0
BITMAP
01FFFC00
01FFFC00
01FFFC00
01FFFC00
01FFFC00
01FFFC00
01FFFC00
FE0003F8
FE0003FC
FE0003FC
FE0003FC
FE0003FC
FE0003FC
FE0003FC
FE0003FC
FE000000
FE000000
FE000000
FE000000
FE000000
FE000000
FE000000
FE01FFFC
FE01FFFC
FE01FFFC
FE01FFFC
FE01FFFC
FE01FFFC
FE01FFFC
FE01FFFC
FE0003FC
FE0003FC
FE0003FC
FE0003FC
FE0003FC
FE0003FC
FE0003FC
01FFFFFC
01FFFFFC
01FFFFFC
01FFFFFC
01FFFFFC
01FFFFFC
01FFFFFC
00FFFFF8
ENDCHAR
STARTCHAR gcaron
ENCODING 487
SWIDTH 685 0
DWIDTH 36 0
BBX 30 52 0 -7
BITMAP
01FE03FC
01FE03FC
01FE03FC
01FE03FC
01FE03FC
01FE03FC
01FE03FC
0001FC00
0001FC00
0001FC00
0001FC00
0001FC00
0001FC00
0001FC00
0001FC00
01FFFFFC
01FFFFFC
01FFFFFC
01FFFFFC
01FFFFFC
01FFFFFC
01FFFFFC
FE0003FC
FE0003FC
FE0003FC
FE0003FC
FE0003FC
FE0003FC
FE0003FC
FE0003FC
01FFFC00
01FFFC00
01FFFC00
01FFFC00
01FFFC00
01FFFC00
01FFFC00
FE000000
FE000000
FE000000
FE000000
FE000000
FE000000
FE000000
FE000000
01FFFFFC
01FFFFFC
01FFFFFC
01FFFFFC
01FFFFFC
01FFFFFC
01FFFFFC
ENDCHAR
STARTCHAR uni01E8
ENCODING 488
SWIDTH 685 0
DWIDTH 36 0
BBX 30 45 0 0
BITMAP
FE0003FC
FE0003FC
FE0003FC
FE0003FC
FE0003FC
FE0003FC
FE0003FC
FE01FC00
FE01FC00
FE01FC00
FE01FC00
FE01FC00
FE01FC00
FE01FC00
FF01FC00
FFFE0000
FFFE0000
FFFE0000
FFFE0000
FFFE0000
FFFE0000
FFFE0000
FFFE0000
FFFE0000
FFFE0000
FFFE0000
FFFE0000
FFFE0000
FFFE0000
FFFE0000
FE01FC00
FE01FC00
FE01FC00
FE01FC00
FE01FC00
FE01FC00
FE01FC00
FE0003FC
FE0003FC
FE0003FC
FE0003FC
FE0003FC
FE0003FC
FE0003FC
FE0001F8
ENDCHAR
STARTCHAR uni01E9
ENCODING 489
SWIDTH 685 0
DWIDTH 36 0
BBX 30 45 0 0
BITMAP
FFFE03FC
FFFE03FC
FFFE03FC
FFFE03FC
FFFE03FC
FFFE03FC
FFFE03FC
FF01FC00
FE01FC00
FE01FC00
FE01FC00
FE01FC00
FE01FC00
FE01FC00
FE01FC00
FE000000
FE000000
FE000000
FE000000
FE000000
FE000000
FE000000
FE01FC00
FE01FC00
FE01FC00
FE01FC00
FE01FC00
FE01FC00
FE01FC00
FF01FC00
FFFE0000
FFFE0000
FFFE0000
FFFE0000
FFFE0000
FFFE0000
FFFE0000
FF01FC00
FE01FC00
FE01FC00
FE01FC00
FE01FC00
FE01FC00
FE01FC00
FE01FC00
ENDCHAR
STARTCHAR uni01EA
ENCODING 490
SWIDTH 685 0
DWIDTH 36 0
BBX 30 52 0 -7
BITMAP
01FFFC00
01FFFC00
01FFFC00
01FFFC00
01FFFC00
01FFFC00
01FFFC00
FE0003F8
FE0003FC
FE0003FC
FE0003FC
FE0003FC
FE0003FC
FE0003FC
FE0003FC
FE0003FC
FE0003FC
FE0003FC
FE0003FC
FE0003FC
FE0003FC
FE0003FC
FE0003FC
FE0003FC
FE0003FC
FE0003FC
FE0003FC
FE0003FC
FE0003FC
FE0003FC
FE0003FC
FE0003FC
FE0003FC
FE0003FC
FE0003FC
FE0003FC
FE0003FC
01FFFC00
01FFFC00
01FFFC00
01FFFC00
01FFFC00
01FFFC00
01FFFC00
01FFFC00
01FE0000
01FE0000
01FE0000
01FE0000
01FE0000
01FE0000
01FE0000
ENDCHAR
STARTCHAR uni01EB
ENCODING 491
SWIDTH 685 0
DWIDTH 36 0
BBX 30 37 0 -7
BITMAP
01FFFC00
01FFFC00
01FFFC00
01FFFC00
01FFFC00
01FFFC00
01FFFC00
FE0003FC
FE0003FC
FE0003FC
FE0003FC
FE0003FC
FE0003FC
FE0003FC
FE0003FC
FE0003FC
FE0003FC
FE0003FC
FE0003FC
FE0003FC
FE0003FC
FE0003FC
01FFFC00
01FFFC00
01FFFC00
01FFFC00
01FFFC00
01FFFC00
01FFFC00
01FFFC00
01FE0000
01FE0000
01FE0000
01FE0000
01FE0000
01FE0000
01FE0000
ENDCHAR
STARTCHAR uni01EC
ENCODING 492
SWIDTH 685 0
DWIDTH 36 0
BBX 30 52 0 -7
BITMAP
01FFFC00
01FFFC00
01FFFC00
01FFFC00
01FFFC00
01FFFC00
01FFFC00
FE0003F8
FE0003FC
FE0003FC
FE0003FC
FE0003FC
FE0003FC
FE0003FC
FE0003FC
FE0003FC
FE0003FC
FE0003FC
FE0003FC
FE0003FC
FE0003FC
FE0003FC
FE0003FC
FE0003FC
FE0003FC
FE0003FC
FE0003FC
FE0003FC
FE0003FC
FE0003FC
FE0003FC
FE0003FC
FE0003FC
FE0003FC
FE0003FC
FE0003FC
FE0003FC
01FFFC00
01FFFC00
01FFFC00
01FFFC00
01FFFC00
01FFFC00
01FFFC00
01FFFC00
01FE0000
01FE0000
01FE0000
01FE0000
01FE0000
01FE0000
01FE0000
ENDCHAR
STARTCHAR uni01ED
ENCODING 493
SWIDTH 685 0
DWIDTH 36 0
BBX 30 52 0 -7
BITMAP
FFFFFFFC
FFFFFFFC
FFFFFFFC
FFFFFFFC
FFFFFFFC
FFFFFFFC
FFFFFFFC
00000000
00000000
00000000
00000000
00000000
00000000
00000000
00000000
01FFFC00
01FFFC00
01FFFC00
01FFFC00
01FFFC00
01FFFC00
01FFFC00
FE0003FC
FE0003FC
FE0003FC
FE0003FC
FE0003FC
FE0003FC
FE0003FC
FE0003FC
FE0003FC
FE0003FC
FE0003FC
FE0003FC
FE0003FC
FE0003FC
FE0003FC
01FFFC00
01FFFC00
01FFFC00
01FFFC00
01FFFC00
01FFFC00
01FFFC00
01FFFC00
01FE0000
01FE0000
01FE0000
01FE0000
01FE0000
01FE0000
01FE0000
ENDCHAR
STARTCHAR uni01EE
ENCODING 494
SWIDTH 685 0
DWIDTH 36 0
BBX 30 45 0 0
BITMAP
FFFFFFFC
FFFFFFFC
FFFFFFFC
FFFFFFFC
FFFFFFFC
FFFFFFFC
FFFFFFFC
0003FE00
0001FC00
0001FC00
0001FC00
0001FC00
0001FC00
0001FC00
0001FC00
01FFFC00
01FFFC00
01FFFC00
01FFFC00
01FFFC00
01FFFC00
01FFFC00
000003FC
000003FC
000003FC
000003FC
000003FC
000003FC
000003FC
000003FC
000003FC
000003FC
000003FC
000003FC
000003FC
000003FC
000003FC
FFFFFC00
FFFFFC00
FFFFFC00
FFFFFC00
FFFFFC00
FFFFFC00
FFFFFC00
FFFFFC00
ENDCHAR
STARTCHAR uni01EF
ENCODING 495
SWIDTH 685 0
DWIDTH 36 0
BBX 30 52 0 -7
BITMAP
01FE03FC
01FE03FC
01FE03FC
01FE03FC
01FE03FC
01FE03FC
01FE03FC
0001FC00
0001FC00
0001FC00
0001FC00
0001FC00
0001FC00
0001FC00
0001FC00
FFFFFFFC
FFFFFFFC
FFFFFFFC
FFFFFFFC
FFFFFFFC
FFFFFFFC
FFFFFFFC
0001FC00
0001FC00
0001FC00
0001FC00
0001FC00
0001FC00
0001FC00
0001FC00
01FFFC00
01FFFC00
01FFFC00
01FFFC00
01FFFC00
01FFFC00
01FFFC00
000003FC
000003FC
000003FC
000003FC
000003FC
000003FC
000003FC
000003F8
FFFFFC00
FFFFFC00
FFFFFC00
FFFFFC00
FFFFFC00
FFFFFC00
FFFFFC00
ENDCHAR
STARTCHAR uni01F0
ENCODING 496
SWIDTH 685 0
DWIDTH 36 0
BBX 30 52 0 -7
BITMAP
01FE03FC
01FE03FC
01FE03FC
01FE03FC
01FE03FC
01FE03FC
01FE03FC
0001FC00
0001FC00
0001FC00
0001FC00
0001FC00
0001FC00
0001FC00
0001FC00
00000000
00000000
00000000
00000000
00000000
00000000
00000000
0001FC00
0001FC00
0001FC00
0001FC00
0001FC00
0001FC00
0001FC00
0001FC00
0001FC00
0001FC00
0001FC00
0001FC00
0001FC00
0001FC00
0001FC00
FE01FC00
FE01FC00
FE01FC00
FE01FC00
FE01FC00
FE01FC00
FE01FC00
FE01FC00
01FE0000
01FE0000
01FE0000
01FE0000
01FE0000
01FE0000
01FE0000
ENDCHAR
STARTCHAR uni01F1
ENCODING 497
SWIDTH 685 0
DWIDTH 36 0
BBX 37 45 0 0
BITMAP
FFFE03FFF8
FFFE03FFF8
FFFE03FFF8
FFFE03FFF8
FFFE03FFF8
FFFE03FFF8
FFFE03FFF8
FF01FC07F8
FE01FC03F8
FE01FC03F8
FE01FC03F8
FE01FC03F8
FE01FC03F8
FE01FC03F8
FE01FC03F8
FE01FC03F8
FE01FC03F8
FE01FC03F8
FE01FC03F8
FE01FC03F8
FE01FC03F8
FE01FC03F8
FE01FFFC00
FE01FFFC00
FE01FFFC00
FE01FFFC00
FE01FFFC00
FE01FFFC00
FE01FFFC00
FE01FFFC00
FE01FFFC00
FE01FFFC00
FE01FFFC00
FE01FFFC00
FE01FFFC00
FE01FFFC00
FE01FFFC00
FFFE03FFF8
FFFE03FFF8
FFFE03FFF8
FFFE03FFF8
FFFE03FFF8
FFFE03FFF8
FFFE03FFF8
FFFC01FFF8
ENDCHAR
STARTCHAR uni01F2
ENCODING 498
SWIDTH 685 0
DWIDTH 36 0
BBX 37 45 0 0
BITMAP
FFFE000000
FFFE000000
FFFE000000
FFFE000000
FFFE000000
FFFE000000
FFFE000000
FF01FC0000
FE01FC0000
FE01FC0000
FE01FC0000
FE01FC0000
FE01FC0000
FE01FC0000
FE01FC0000
FE01FFFFF8
FE01FFFFF8
FE01FFFFF8
FE01FFFFF8
FE01FFFFF8
FE01FFFFF8
FE01FFFFF8
FE01FC03F8
FE01FC03F8
FE01FC03F8
FE01FC03F8
FE01FC03F8
FE01FC03F8
FE01FC03F8
FE01FC03F8
FE01FFFC00
FE01FFFC00
FE01FFFC00
FE01FFFC00
FE01FFFC00
FE01FFFC00
FE01FFFC00
FFFE03FFF8
FFFE03FFF8
FFFE03FFF8
FFFE03FFF8
FFFE03FFF8
FFFE03FFF8
FFFE03FFF8
FFFC01FFF8
ENDCHAR
STARTCHAR uni01F3
ENCODING 499
SWIDTH 685 0
DWIDTH 36 0
BBX 37 45 0 0
BITMAP
0001FC0000
0001FC0000
0001FC0000
0001FC0000
0001FC0000
0001FC0000
0001FC0000
0001FC0000
0001FC0000
0001FC0000
0001FC0000
0001FC0000
0001FC0000
0001FC0000
0001FC0000
01FFFFFFF8
01FFFFFFF8
01FFFFFFF8
01FFFFFFF8
01FFFFFFF8
01FFFFFFF8
01FFFFFFF8
FE01FC03F8
FE01FC03F8
FE01FC03F8
FE01FC03F8
FE01FC03F8
FE01FC03F8
FE01FC03F8
FE01FC03F8
FE01FFFC00
FE01FFFC00
FE01FFFC00
FE01FFFC00
FE01FFFC00
FE01FFFC00
FE01FFFC00
01FFFFFFF8
01FFFFFFF8
01FFFFFFF8
01FFFFFFF8
01FFFFFFF8
01FFFFFFF8
01FFFFFFF8
00FFFFFFF8
ENDCHAR
ENDFONT
